SplineFontDB: 3.0
FontName: Voltaire
FullName: Voltaire
FamilyName: Voltaire
Weight: Book
Copyright: Copyright (c) 2011, Sorkin Type Co (www.sorkintype.com)\nwith Reserved Font Names "Voltaire" and "Voltaire One".
Version: 1.003
ItalicAngle: 0
UnderlinePosition: -50
UnderlineWidth: 50
Ascent: 1638
Descent: 410
LayerCount: 2
Layer: 0 1 "Back"  1
Layer: 1 1 "Fore"  0
XUID: [1021 631 1661839179 198723]
FSType: 0
OS2Version: 3
OS2_WeightWidthSlopeOnly: 0
OS2_UseTypoMetrics: 1
CreationTime: 1313153700
ModificationTime: 1313140397
PfmFamily: 17
TTFWeight: 400
TTFWidth: 5
LineGap: 0
VLineGap: 0
Panose: 2 1 5 0 0 0 0 0 0 4
OS2TypoAscent: 382
OS2TypoAOffset: 1
OS2TypoDescent: -121
OS2TypoDOffset: 1
OS2TypoLinegap: 0
OS2WinAscent: 0
OS2WinAOffset: 1
OS2WinDescent: 0
OS2WinDOffset: 1
HheadAscent: 0
HheadAOffset: 1
HheadDescent: 0
HheadDOffset: 1
OS2SubXSize: 1434
OS2SubYSize: 1331
OS2SubXOff: 0
OS2SubYOff: 287
OS2SupXSize: 1434
OS2SupYSize: 1331
OS2SupXOff: 0
OS2SupYOff: 977
OS2StrikeYSize: 102
OS2StrikeYPos: 512
OS2Vendor: 'STC '
OS2CodePages: 20000111.00000000
OS2UnicodeRanges: 800000af.00000002.00000000.00000000
DEI: 91125
TtTable: fpgm
PUSHW_1
 511
SCANCTRL
PUSHB_1
 4
SCANTYPE
EndTTInstrs
ShortTable: maxp 16
  1
  0
  240
  88
  5
  0
  0
  1
  0
  0
  0
  0
  0
  0
  0
  0
EndShort
LangName: 1033 "" "" "Regular" "YvonneSchttler: Voltaire: 2011" "" "Version 1.003" "" "Voltaire is a trademark of Sorkin Type Co." "Yvonne Sch+AJ8A-ttler" "Yvonne Sch+AJ8A-ttler" "Voltaire is a low contrast condensed semi-geometric style sans serif. Voltaire is highly readable and will work from medium yext sizes all the way up to larger display settings. Voltaire was inspired by 20th century Swedish posters whose letters  have similar forms." "www.sorkintype.com" "www.ysch.de" "This Font Software is licensed under the SIL Open Font License, Version 1.1." "http://scripts.sil.org/OFL" "" "" "" "Voltaire" 
GaspTable: 1 65535 15
Encoding: UnicodeBmp
UnicodeInterp: none
NameList: Adobe Glyph List

StartChar: e
Encoding: 101 101 4
Width: 862
Flags: W
LayerCount: 2
Fore
SplineSet
488 -19 m 0,0,1
 402 -19 402 -19 329.5 18.5 c 128,-1,2
 257 56 257 56 203.5 127.5 c 128,-1,3
 150 199 150 199 120 302.5 c 128,-1,4
 90 406 90 406 90 538 c 0,5,6
 90 673 90 673 121 775 c 128,-1,7
 152 877 152 877 204.5 945 c 128,-1,8
 257 1013 257 1013 325.5 1047 c 128,-1,9
 394 1081 394 1081 468 1081 c 0,10,11
 554 1081 554 1081 619 1036.5 c 128,-1,12
 684 992 684 992 722 910 c 128,-1,13
 760 828 760 828 769 712.5 c 128,-1,14
 778 597 778 597 753 455 c 1,15,-1
 275 456 l 1,16,17
 283 370 283 370 306.5 311.5 c 128,-1,18
 330 253 330 253 362.5 217 c 128,-1,19
 395 181 395 181 433 165.5 c 128,-1,20
 471 150 471 150 509 150 c 0,21,22
 532 150 532 150 555.5 155 c 128,-1,23
 579 160 579 160 600.5 168 c 128,-1,24
 622 176 622 176 640 186 c 128,-1,25
 658 196 658 196 670 205 c 1,26,-1
 738 53 l 1,27,28
 716 39 716 39 687 26 c 128,-1,29
 658 13 658 13 625.5 3 c 128,-1,30
 593 -7 593 -7 557.5 -13 c 128,-1,31
 522 -19 522 -19 488 -19 c 0,0,1
589 623 m 1,32,33
 594 707 594 707 585.5 761.5 c 128,-1,34
 577 816 577 816 559.5 848.5 c 128,-1,35
 542 881 542 881 517 893.5 c 128,-1,36
 492 906 492 906 464 906 c 0,37,38
 392 906 392 906 340.5 834.5 c 128,-1,39
 289 763 289 763 276 623 c 1,40,-1
 589 623 l 1,32,33
EndSplineSet
EndChar

StartChar: i
Encoding: 105 105 5
Width: 528
Flags: W
LayerCount: 2
Fore
SplineSet
264 1244 m 256,0,1
 235 1244 235 1244 211 1254 c 128,-1,2
 187 1264 187 1264 170 1281 c 128,-1,3
 153 1298 153 1298 144 1320.5 c 128,-1,4
 135 1343 135 1343 135 1368 c 256,5,6
 135 1393 135 1393 144 1415.5 c 128,-1,7
 153 1438 153 1438 170 1455 c 128,-1,8
 187 1472 187 1472 211 1482 c 128,-1,9
 235 1492 235 1492 264 1492 c 256,10,11
 293 1492 293 1492 317 1482 c 128,-1,12
 341 1472 341 1472 358 1455 c 128,-1,13
 375 1438 375 1438 384 1415.5 c 128,-1,14
 393 1393 393 1393 393 1368 c 256,15,16
 393 1343 393 1343 384 1320.5 c 128,-1,17
 375 1298 375 1298 358 1281 c 128,-1,18
 341 1264 341 1264 317 1254 c 128,-1,19
 293 1244 293 1244 264 1244 c 256,0,1
169 1062 m 1,20,-1
 347 1062 l 1,21,-1
 347 0 l 1,22,-1
 169 0 l 1,23,-1
 169 1062 l 1,20,-1
EndSplineSet
EndChar

StartChar: s
Encoding: 115 115 6
Width: 764
Flags: W
LayerCount: 2
Fore
SplineSet
167 210 m 1,0,1
 206 184 206 184 253 168.5 c 128,-1,2
 300 153 300 153 347 153 c 0,3,4
 407 153 407 153 444.5 185 c 128,-1,5
 482 217 482 217 482 271 c 0,6,7
 482 299 482 299 471 322.5 c 128,-1,8
 460 346 460 346 442 368 c 128,-1,9
 424 390 424 390 400.5 410 c 128,-1,10
 377 430 377 430 352 450 c 2,11,-1
 284 504 l 1,12,13
 199 570 199 570 158 643.5 c 128,-1,14
 117 717 117 717 117 802 c 0,15,16
 117 858 117 858 139 908.5 c 128,-1,17
 161 959 161 959 201 997.5 c 128,-1,18
 241 1036 241 1036 296.5 1058.5 c 128,-1,19
 352 1081 352 1081 419 1081 c 0,20,21
 477 1081 477 1081 531 1068.5 c 128,-1,22
 585 1056 585 1056 642 1027 c 1,23,-1
 568 861 l 1,24,25
 531 888 531 888 492.5 900 c 128,-1,26
 454 912 454 912 415 912 c 0,27,28
 387 912 387 912 365 903.5 c 128,-1,29
 343 895 343 895 328 880.5 c 128,-1,30
 313 866 313 866 305 847.5 c 128,-1,31
 297 829 297 829 297 808 c 0,32,33
 297 774 297 774 319 741 c 128,-1,34
 341 708 341 708 396 663 c 2,35,-1
 474 599 l 2,36,37
 526 556 526 556 562.5 516.5 c 128,-1,38
 599 477 599 477 621.5 438 c 128,-1,39
 644 399 644 399 654.5 358 c 128,-1,40
 665 317 665 317 665 272 c 0,41,42
 665 210 665 210 640.5 157 c 128,-1,43
 616 104 616 104 573 65 c 128,-1,44
 530 26 530 26 471 4 c 128,-1,45
 412 -18 412 -18 343 -18 c 0,46,47
 268 -18 268 -18 208.5 2 c 128,-1,48
 149 22 149 22 98 53 c 1,49,-1
 167 210 l 1,0,1
EndSplineSet
EndChar

StartChar: d
Encoding: 100 100 7
Width: 946
Flags: W
LayerCount: 2
Fore
SplineSet
481 -19 m 0,0,1
 404 -19 404 -19 334.5 13 c 128,-1,2
 265 45 265 45 213 112 c 128,-1,3
 161 179 161 179 130.5 283 c 128,-1,4
 100 387 100 387 100 531 c 256,5,6
 100 675 100 675 130.5 779 c 128,-1,7
 161 883 161 883 213 950 c 128,-1,8
 265 1017 265 1017 334.5 1049 c 128,-1,9
 404 1081 404 1081 481 1081 c 0,10,11
 520 1081 520 1081 556 1071 c 128,-1,12
 592 1061 592 1061 624 1042 c 1,13,-1
 624 1593 l 1,14,-1
 802 1593 l 1,15,-1
 802 -23 l 1,16,-1
 681 63 l 1,17,18
 641 23 641 23 590 2 c 128,-1,19
 539 -19 539 -19 481 -19 c 0,0,1
493 149 m 0,20,21
 531 149 531 149 564 162 c 128,-1,22
 597 175 597 175 624 199 c 1,23,-1
 624 862 l 1,24,25
 568 913 568 913 493 913 c 0,26,27
 452 913 452 913 414 895 c 128,-1,28
 376 877 376 877 346.5 833.5 c 128,-1,29
 317 790 317 790 299 716.5 c 128,-1,30
 281 643 281 643 281 531 c 256,31,32
 281 419 281 419 299 345.5 c 128,-1,33
 317 272 317 272 346.5 228.5 c 128,-1,34
 376 185 376 185 414 167 c 128,-1,35
 452 149 452 149 493 149 c 0,20,21
EndSplineSet
EndChar

StartChar: o
Encoding: 111 111 8
Width: 940
Flags: W
LayerCount: 2
Fore
SplineSet
470 -19 m 256,0,1
 395 -19 395 -19 326 15 c 128,-1,2
 257 49 257 49 203.5 118 c 128,-1,3
 150 187 150 187 118 290 c 128,-1,4
 86 393 86 393 86 531 c 256,5,6
 86 669 86 669 118 772 c 128,-1,7
 150 875 150 875 203.5 944 c 128,-1,8
 257 1013 257 1013 326 1047 c 128,-1,9
 395 1081 395 1081 470 1081 c 256,10,11
 545 1081 545 1081 614 1047 c 128,-1,12
 683 1013 683 1013 736.5 944 c 128,-1,13
 790 875 790 875 822 772 c 128,-1,14
 854 669 854 669 854 531 c 256,15,16
 854 393 854 393 822 290 c 128,-1,17
 790 187 790 187 736.5 118 c 128,-1,18
 683 49 683 49 614 15 c 128,-1,19
 545 -19 545 -19 470 -19 c 256,0,1
470 156 m 256,20,21
 506 156 506 156 541 175.5 c 128,-1,22
 576 195 576 195 604.5 239 c 128,-1,23
 633 283 633 283 650.5 355 c 128,-1,24
 668 427 668 427 668 531 c 256,25,26
 668 635 668 635 650.5 706.5 c 128,-1,27
 633 778 633 778 604.5 822.5 c 128,-1,28
 576 867 576 867 541 886.5 c 128,-1,29
 506 906 506 906 470 906 c 256,30,31
 434 906 434 906 399 886.5 c 128,-1,32
 364 867 364 867 335.5 822.5 c 128,-1,33
 307 778 307 778 289.5 706.5 c 128,-1,34
 272 635 272 635 272 531 c 256,35,36
 272 427 272 427 289.5 355 c 128,-1,37
 307 283 307 283 335.5 239 c 128,-1,38
 364 195 364 195 399 175.5 c 128,-1,39
 434 156 434 156 470 156 c 256,20,21
EndSplineSet
EndChar

StartChar: A
Encoding: 65 65 9
Width: 981
Flags: W
LayerCount: 2
Fore
SplineSet
490 1642 m 1,0,-1
 953 0 l 1,1,-1
 753 0 l 1,2,-1
 683 265 l 1,3,-1
 296 265 l 1,4,-1
 227 0 l 1,5,-1
 27 0 l 1,6,-1
 490 1642 l 1,0,-1
637 441 m 1,7,-1
 530 852 l 1,8,-1
 489 1042 l 1,9,-1
 450 852 l 1,10,-1
 342 441 l 1,11,-1
 637 441 l 1,7,-1
EndSplineSet
EndChar

StartChar: D
Encoding: 68 68 10
Width: 987
Flags: W
LayerCount: 2
Fore
SplineSet
170 1611 m 1,0,1
 335 1602 335 1602 469 1543 c 128,-1,2
 603 1484 603 1484 698.5 1380 c 128,-1,3
 794 1276 794 1276 846 1129 c 128,-1,4
 898 982 898 982 898 796 c 256,5,6
 898 610 898 610 846 463 c 128,-1,7
 794 316 794 316 698.5 212 c 128,-1,8
 603 108 603 108 469 49 c 128,-1,9
 335 -10 335 -10 170 -19 c 1,10,-1
 170 1611 l 1,0,1
356 197 m 1,11,12
 420 217 420 217 482.5 261 c 128,-1,13
 545 305 545 305 594.5 377 c 128,-1,14
 644 449 644 449 674.5 552.5 c 128,-1,15
 705 656 705 656 705 796 c 256,16,17
 705 936 705 936 674.5 1039.5 c 128,-1,18
 644 1143 644 1143 594.5 1215 c 128,-1,19
 545 1287 545 1287 482.5 1331 c 128,-1,20
 420 1375 420 1375 356 1395 c 1,21,-1
 356 197 l 1,11,12
EndSplineSet
EndChar

StartChar: H
Encoding: 72 72 11
Width: 1063
Flags: W
LayerCount: 2
Fore
SplineSet
170 1593 m 1,0,-1
 356 1593 l 1,1,-1
 356 709 l 1,2,-1
 707 709 l 1,3,-1
 707 1593 l 1,4,-1
 893 1593 l 1,5,-1
 893 0 l 1,6,-1
 707 0 l 1,7,-1
 707 533 l 1,8,-1
 356 533 l 1,9,-1
 356 0 l 1,10,-1
 170 0 l 1,11,-1
 170 1593 l 1,0,-1
EndSplineSet
EndChar

StartChar: E
Encoding: 69 69 12
Width: 825
Flags: W
LayerCount: 2
Fore
SplineSet
170 1593 m 1,0,-1
 706 1593 l 1,1,-1
 706 1417 l 1,2,-1
 356 1417 l 1,3,-1
 356 805 l 1,4,-1
 656 805 l 1,5,-1
 656 629 l 1,6,-1
 356 629 l 1,7,-1
 356 176 l 1,8,-1
 706 176 l 1,9,-1
 706 0 l 1,10,-1
 170 0 l 1,11,-1
 170 1593 l 1,0,-1
EndSplineSet
EndChar

StartChar: I
Encoding: 73 73 13
Width: 526
Flags: W
LayerCount: 2
Fore
SplineSet
170 1593 m 1,0,-1
 356 1593 l 1,1,-1
 356 0 l 1,2,-1
 170 0 l 1,3,-1
 170 1593 l 1,0,-1
EndSplineSet
EndChar

StartChar: S
Encoding: 83 83 14
Width: 856
Flags: W
LayerCount: 2
Fore
SplineSet
166 239 m 1,0,1
 215 210 215 210 268.5 187 c 128,-1,2
 322 164 322 164 386 164 c 0,3,4
 425 164 425 164 461 175 c 128,-1,5
 497 186 497 186 524 209 c 128,-1,6
 551 232 551 232 567 267.5 c 128,-1,7
 583 303 583 303 583 352 c 0,8,9
 583 385 583 385 574.5 420 c 128,-1,10
 566 455 566 455 546.5 495.5 c 128,-1,11
 527 536 527 536 495.5 584 c 128,-1,12
 464 632 464 632 417 691 c 2,13,-1
 288 854 l 2,14,15
 240 915 240 915 206.5 970 c 128,-1,16
 173 1025 173 1025 152 1075.5 c 128,-1,17
 131 1126 131 1126 121.5 1172.5 c 128,-1,18
 112 1219 112 1219 112 1264 c 0,19,20
 112 1339 112 1339 136 1402.5 c 128,-1,21
 160 1466 160 1466 206 1512.5 c 128,-1,22
 252 1559 252 1559 317.5 1585 c 128,-1,23
 383 1611 383 1611 466 1611 c 0,24,25
 532 1611 532 1611 599 1593.5 c 128,-1,26
 666 1576 666 1576 730 1538 c 1,27,-1
 650 1383 l 1,28,29
 615 1404 615 1404 574.5 1419.5 c 128,-1,30
 534 1435 534 1435 485 1435 c 0,31,32
 403 1435 403 1435 354 1388.5 c 128,-1,33
 305 1342 305 1342 305 1257 c 0,34,35
 305 1234 305 1234 310 1209.5 c 128,-1,36
 315 1185 315 1185 327.5 1156 c 128,-1,37
 340 1127 340 1127 361.5 1092 c 128,-1,38
 383 1057 383 1057 416 1013 c 2,39,-1
 603 767 l 2,40,41
 639 719 639 719 671 673.5 c 128,-1,42
 703 628 703 628 726 580.5 c 128,-1,43
 749 533 749 533 762.5 480.5 c 128,-1,44
 776 428 776 428 776 367 c 0,45,46
 776 277 776 277 747 205.5 c 128,-1,47
 718 134 718 134 666 84 c 128,-1,48
 614 34 614 34 542.5 7.5 c 128,-1,49
 471 -19 471 -19 386 -19 c 0,50,51
 298 -19 298 -19 218 7 c 128,-1,52
 138 33 138 33 80 73 c 1,53,-1
 166 239 l 1,0,1
EndSplineSet
EndChar

StartChar: O
Encoding: 79 79 15
Width: 1049
Flags: W
LayerCount: 2
Fore
SplineSet
524 -19 m 0,0,1
 476 -19 476 -19 425.5 -4.5 c 128,-1,2
 375 10 375 10 327 45.5 c 128,-1,3
 279 81 279 81 236 140.5 c 128,-1,4
 193 200 193 200 160.5 290.5 c 128,-1,5
 128 381 128 381 109 506 c 128,-1,6
 90 631 90 631 90 796 c 256,7,8
 90 961 90 961 109 1086 c 128,-1,9
 128 1211 128 1211 160.5 1301.5 c 128,-1,10
 193 1392 193 1392 236 1451.5 c 128,-1,11
 279 1511 279 1511 327 1546.5 c 128,-1,12
 375 1582 375 1582 425.5 1596.5 c 128,-1,13
 476 1611 476 1611 524 1611 c 0,14,15
 571 1611 571 1611 622 1596.5 c 128,-1,16
 673 1582 673 1582 721 1546.5 c 128,-1,17
 769 1511 769 1511 812 1451.5 c 128,-1,18
 855 1392 855 1392 887.5 1301.5 c 128,-1,19
 920 1211 920 1211 939 1086 c 128,-1,20
 958 961 958 961 958 796 c 256,21,22
 958 631 958 631 939 506 c 128,-1,23
 920 381 920 381 887.5 290.5 c 128,-1,24
 855 200 855 200 812 140.5 c 128,-1,25
 769 81 769 81 721 45.5 c 128,-1,26
 673 10 673 10 622 -4.5 c 128,-1,27
 571 -19 571 -19 524 -19 c 0,0,1
524 165 m 256,28,29
 566 165 566 165 609 195.5 c 128,-1,30
 652 226 652 226 686.5 298.5 c 128,-1,31
 721 371 721 371 743 492.5 c 128,-1,32
 765 614 765 614 765 796 c 256,33,34
 765 978 765 978 743 1099.5 c 128,-1,35
 721 1221 721 1221 686.5 1293.5 c 128,-1,36
 652 1366 652 1366 609 1396.5 c 128,-1,37
 566 1427 566 1427 524 1427 c 256,38,39
 482 1427 482 1427 439 1396.5 c 128,-1,40
 396 1366 396 1366 361.5 1293.5 c 128,-1,41
 327 1221 327 1221 305 1099.5 c 128,-1,42
 283 978 283 978 283 796 c 256,43,44
 283 614 283 614 305 492.5 c 128,-1,45
 327 371 327 371 361.5 298.5 c 128,-1,46
 396 226 396 226 439 195.5 c 128,-1,47
 482 165 482 165 524 165 c 256,28,29
EndSplineSet
EndChar

StartChar: N
Encoding: 78 78 16
Width: 1130
Flags: W
LayerCount: 2
Fore
SplineSet
170 1654 m 1,0,-1
 671 819 l 1,1,-1
 781 625 l 1,2,-1
 776 816 l 1,3,-1
 776 1593 l 1,4,-1
 961 1593 l 1,5,-1
 961 -34 l 1,6,-1
 459 796 l 1,7,-1
 350 970 l 1,8,-1
 356 796 l 1,9,-1
 356 0 l 1,10,-1
 170 0 l 1,11,-1
 170 1654 l 1,0,-1
EndSplineSet
EndChar

StartChar: b
Encoding: 98 98 17
Width: 946
Flags: W
LayerCount: 2
Fore
SplineSet
145 1593 m 1,0,-1
 323 1593 l 1,1,-1
 323 1042 l 1,2,3
 355 1061 355 1061 391 1071 c 128,-1,4
 427 1081 427 1081 466 1081 c 0,5,6
 543 1081 543 1081 612.5 1049 c 128,-1,7
 682 1017 682 1017 734 950 c 128,-1,8
 786 883 786 883 816.5 779 c 128,-1,9
 847 675 847 675 847 531 c 256,10,11
 847 387 847 387 816.5 283 c 128,-1,12
 786 179 786 179 734 112 c 128,-1,13
 682 45 682 45 612.5 13 c 128,-1,14
 543 -19 543 -19 466 -19 c 0,15,16
 345 -19 345 -19 262 67 c 1,17,-1
 145 -17 l 1,18,-1
 145 1593 l 1,0,-1
323 199 m 1,19,20
 349 175 349 175 382.5 162 c 128,-1,21
 416 149 416 149 454 149 c 0,22,23
 495 149 495 149 533 167 c 128,-1,24
 571 185 571 185 600.5 228.5 c 128,-1,25
 630 272 630 272 648 345.5 c 128,-1,26
 666 419 666 419 666 531 c 256,27,28
 666 643 666 643 648 716.5 c 128,-1,29
 630 790 630 790 600.5 833.5 c 128,-1,30
 571 877 571 877 533 895 c 128,-1,31
 495 913 495 913 454 913 c 0,32,33
 377 913 377 913 323 862 c 1,34,-1
 323 199 l 1,19,20
EndSplineSet
EndChar

StartChar: p
Encoding: 112 112 18
Width: 946
Flags: W
LayerCount: 2
Fore
SplineSet
323 -354 m 1,0,-1
 145 -354 l 1,1,-1
 145 1082 l 1,2,-1
 283 1014 l 1,3,4
 321 1046 321 1046 367 1063.5 c 128,-1,5
 413 1081 413 1081 466 1081 c 0,6,7
 543 1081 543 1081 612.5 1049 c 128,-1,8
 682 1017 682 1017 734 950 c 128,-1,9
 786 883 786 883 816.5 779 c 128,-1,10
 847 675 847 675 847 531 c 256,11,12
 847 387 847 387 816.5 283 c 128,-1,13
 786 179 786 179 734 112 c 128,-1,14
 682 45 682 45 612.5 13 c 128,-1,15
 543 -19 543 -19 466 -19 c 0,16,17
 427 -19 427 -19 391 -9 c 128,-1,18
 355 1 355 1 323 19 c 1,19,-1
 323 -354 l 1,0,-1
323 199 m 1,20,21
 349 175 349 175 382.5 162 c 128,-1,22
 416 149 416 149 454 149 c 0,23,24
 495 149 495 149 533 167 c 128,-1,25
 571 185 571 185 600.5 228.5 c 128,-1,26
 630 272 630 272 648 345.5 c 128,-1,27
 666 419 666 419 666 531 c 256,28,29
 666 643 666 643 648 716.5 c 128,-1,30
 630 790 630 790 600.5 833.5 c 128,-1,31
 571 877 571 877 533 895 c 128,-1,32
 495 913 495 913 454 913 c 0,33,34
 377 913 377 913 323 862 c 1,35,-1
 323 199 l 1,20,21
EndSplineSet
EndChar

StartChar: q
Encoding: 113 113 19
Width: 940
Flags: W
LayerCount: 2
Fore
SplineSet
481 -19 m 0,0,1
 404 -19 404 -19 334.5 13 c 128,-1,2
 265 45 265 45 213 112 c 128,-1,3
 161 179 161 179 130.5 283 c 128,-1,4
 100 387 100 387 100 531 c 256,5,6
 100 675 100 675 130.5 779 c 128,-1,7
 161 883 161 883 213 950 c 128,-1,8
 265 1017 265 1017 334.5 1049 c 128,-1,9
 404 1081 404 1081 481 1081 c 0,10,11
 534 1081 534 1081 581 1063 c 128,-1,12
 628 1045 628 1045 666 1012 c 1,13,-1
 795 1082 l 1,14,-1
 795 -354 l 1,15,-1
 617 -354 l 1,16,-1
 617 15 l 1,17,18
 554 -19 554 -19 481 -19 c 0,0,1
493 149 m 0,19,20
 528 149 528 149 559.5 160.5 c 128,-1,21
 591 172 591 172 617 193 c 1,22,-1
 617 868 l 1,23,24
 563 913 563 913 493 913 c 0,25,26
 452 913 452 913 414 895 c 128,-1,27
 376 877 376 877 346.5 833.5 c 128,-1,28
 317 790 317 790 299 716.5 c 128,-1,29
 281 643 281 643 281 531 c 256,30,31
 281 419 281 419 299 345.5 c 128,-1,32
 317 272 317 272 346.5 228.5 c 128,-1,33
 376 185 376 185 414 167 c 128,-1,34
 452 149 452 149 493 149 c 0,19,20
EndSplineSet
EndChar

StartChar: u
Encoding: 117 117 20
Width: 981
Flags: W
LayerCount: 2
Fore
SplineSet
145 1062 m 1,0,-1
 323 1062 l 1,1,-1
 323 370 l 2,2,3
 323 161 323 161 486 161 c 0,4,5
 541 161 541 161 584.5 183.5 c 128,-1,6
 628 206 628 206 658 245 c 1,7,-1
 658 1062 l 1,8,-1
 836 1062 l 1,9,-1
 836 -20 l 1,10,-1
 704 74 l 1,11,12
 658 38 658 38 590.5 10 c 128,-1,13
 523 -18 523 -18 444 -18 c 0,14,15
 382 -18 382 -18 327.5 4.5 c 128,-1,16
 273 27 273 27 232.5 70.5 c 128,-1,17
 192 114 192 114 168.5 178.5 c 128,-1,18
 145 243 145 243 145 327 c 2,19,-1
 145 1062 l 1,0,-1
EndSplineSet
EndChar

StartChar: m
Encoding: 109 109 21
Width: 1508
Flags: W
LayerCount: 2
Fore
SplineSet
145 1081 m 1,0,-1
 291 977 l 1,1,2
 313 998 313 998 340 1016.5 c 128,-1,3
 367 1035 367 1035 397 1048.5 c 128,-1,4
 427 1062 427 1062 458.5 1070 c 128,-1,5
 490 1078 490 1078 521 1078 c 0,6,7
 613 1078 613 1078 678.5 1044.5 c 128,-1,8
 744 1011 744 1011 784 946 c 1,9,10
 805 973 805 973 834.5 997 c 128,-1,11
 864 1021 864 1021 898 1039 c 128,-1,12
 932 1057 932 1057 969 1067.5 c 128,-1,13
 1006 1078 1006 1078 1042 1078 c 0,14,15
 1202 1078 1202 1078 1283 977.5 c 128,-1,16
 1364 877 1364 877 1364 688 c 2,17,-1
 1364 0 l 1,18,-1
 1186 0 l 1,19,-1
 1186 686 l 2,20,21
 1186 789 1186 789 1144.5 843 c 128,-1,22
 1103 897 1103 897 1022 897 c 0,23,24
 977 897 977 897 929.5 876 c 128,-1,25
 882 855 882 855 843 810 c 1,26,-1
 843 0 l 1,27,-1
 665 0 l 1,28,-1
 665 686 l 2,29,30
 665 789 665 789 623.5 843 c 128,-1,31
 582 897 582 897 501 897 c 0,32,33
 456 897 456 897 409 876 c 128,-1,34
 362 855 362 855 323 811 c 1,35,-1
 323 0 l 1,36,-1
 145 0 l 1,37,-1
 145 1081 l 1,0,-1
EndSplineSet
EndChar

StartChar: l
Encoding: 108 108 22
Width: 469
Flags: W
LayerCount: 2
Fore
SplineSet
145 1593 m 1,0,-1
 323 1593 l 1,1,-1
 323 0 l 1,2,-1
 145 0 l 1,3,-1
 145 1593 l 1,0,-1
EndSplineSet
EndChar

StartChar: j
Encoding: 106 106 23
Width: 569
Flags: W
LayerCount: 2
Fore
SplineSet
297 1244 m 256,0,1
 268 1244 268 1244 244 1254 c 128,-1,2
 220 1264 220 1264 203 1281 c 128,-1,3
 186 1298 186 1298 177 1320.5 c 128,-1,4
 168 1343 168 1343 168 1368 c 256,5,6
 168 1393 168 1393 177 1415.5 c 128,-1,7
 186 1438 186 1438 203 1455 c 128,-1,8
 220 1472 220 1472 244 1482 c 128,-1,9
 268 1492 268 1492 297 1492 c 256,10,11
 326 1492 326 1492 350 1482 c 128,-1,12
 374 1472 374 1472 391 1455 c 128,-1,13
 408 1438 408 1438 417 1415.5 c 128,-1,14
 426 1393 426 1393 426 1368 c 256,15,16
 426 1343 426 1343 417 1320.5 c 128,-1,17
 408 1298 408 1298 391 1281 c 128,-1,18
 374 1264 374 1264 350 1254 c 128,-1,19
 326 1244 326 1244 297 1244 c 256,0,1
39 -210 m 1,20,21
 88 -178 88 -178 120 -142 c 128,-1,22
 152 -106 152 -106 171 -64.5 c 128,-1,23
 190 -23 190 -23 197.5 23.5 c 128,-1,24
 205 70 205 70 205 123 c 2,25,-1
 205 1062 l 1,26,-1
 383 1062 l 1,27,-1
 383 123 l 2,28,29
 383 46 383 46 369.5 -23.5 c 128,-1,30
 356 -93 356 -93 326 -153 c 128,-1,31
 296 -213 296 -213 247 -263.5 c 128,-1,32
 198 -314 198 -314 126 -354 c 1,33,-1
 39 -210 l 1,20,21
EndSplineSet
EndChar

StartChar: k
Encoding: 107 107 24
Width: 918
Flags: W
LayerCount: 2
Fore
SplineSet
145 1593 m 1,0,-1
 323 1593 l 1,1,-1
 323 571 l 1,2,-1
 324 571 l 1,3,-1
 619 1062 l 1,4,-1
 809 1062 l 1,5,-1
 494 545 l 1,6,-1
 862 0 l 1,7,-1
 642 0 l 1,8,-1
 323 482 l 1,9,-1
 323 0 l 1,10,-1
 145 0 l 1,11,-1
 145 1593 l 1,0,-1
EndSplineSet
EndChar

StartChar: r
Encoding: 114 114 25
Width: 631
Flags: W
LayerCount: 2
Fore
SplineSet
145 1081 m 1,0,-1
 296 976 l 1,1,2
 358 1024 358 1024 429 1051.5 c 128,-1,3
 500 1079 500 1079 576 1079 c 1,4,-1
 576 893 l 1,5,6
 496 893 496 893 434.5 876 c 128,-1,7
 373 859 373 859 328 811 c 1,8,-1
 328 0 l 1,9,-1
 145 0 l 1,10,-1
 145 1081 l 1,0,-1
EndSplineSet
EndChar

StartChar: t
Encoding: 116 116 26
Width: 633
Flags: W
LayerCount: 2
Fore
SplineSet
177 894 m 1,0,-1
 98 894 l 1,1,-1
 98 1062 l 1,2,-1
 177 1062 l 1,3,-1
 177 1416 l 1,4,-1
 355 1416 l 1,5,-1
 355 1062 l 1,6,-1
 525 1062 l 1,7,-1
 525 894 l 1,8,-1
 355 894 l 1,9,-1
 355 420 l 2,10,11
 355 360 355 360 364.5 315 c 128,-1,12
 374 270 374 270 396 238.5 c 128,-1,13
 418 207 418 207 453 188 c 128,-1,14
 488 169 488 169 539 160 c 1,15,-1
 539 -18 l 1,16,17
 357 -10 357 -10 267 97.5 c 128,-1,18
 177 205 177 205 177 422 c 2,19,-1
 177 894 l 1,0,-1
EndSplineSet
EndChar

StartChar: f
Encoding: 102 102 27
Width: 565
Flags: W
LayerCount: 2
Fore
SplineSet
155 894 m 1,0,-1
 74 894 l 1,1,-1
 74 1062 l 1,2,-1
 155 1062 l 1,3,-1
 155 1122 l 2,4,5
 155 1225 155 1225 180.5 1313 c 128,-1,6
 206 1401 206 1401 253.5 1466.5 c 128,-1,7
 301 1532 301 1532 367.5 1570.5 c 128,-1,8
 434 1609 434 1609 517 1612 c 1,9,-1
 517 1437 l 1,10,11
 470 1430 470 1430 435 1403.5 c 128,-1,12
 400 1377 400 1377 377.5 1335 c 128,-1,13
 355 1293 355 1293 344 1238 c 128,-1,14
 333 1183 333 1183 333 1120 c 2,15,-1
 333 1062 l 1,16,-1
 511 1062 l 1,17,-1
 511 894 l 1,18,-1
 333 894 l 1,19,-1
 333 0 l 1,20,-1
 155 0 l 1,21,-1
 155 894 l 1,0,-1
EndSplineSet
EndChar

StartChar: c
Encoding: 99 99 28
Width: 762
Flags: W
LayerCount: 2
Fore
SplineSet
479 -19 m 0,0,1
 396 -19 396 -19 325 15 c 128,-1,2
 254 49 254 49 201.5 118 c 128,-1,3
 149 187 149 187 119.5 290 c 128,-1,4
 90 393 90 393 90 531 c 256,5,6
 90 669 90 669 119.5 772 c 128,-1,7
 149 875 149 875 201.5 944 c 128,-1,8
 254 1013 254 1013 325 1047 c 128,-1,9
 396 1081 396 1081 479 1081 c 0,10,11
 540 1081 540 1081 596.5 1062 c 128,-1,12
 653 1043 653 1043 697 1017 c 1,13,-1
 622 862 l 1,14,15
 593 879 593 879 555.5 892.5 c 128,-1,16
 518 906 518 906 479 906 c 256,17,18
 440 906 440 906 403 886 c 128,-1,19
 366 866 366 866 336.5 821 c 128,-1,20
 307 776 307 776 289.5 704.5 c 128,-1,21
 272 633 272 633 272 531 c 256,22,23
 272 429 272 429 289.5 357.5 c 128,-1,24
 307 286 307 286 336.5 241 c 128,-1,25
 366 196 366 196 403 176 c 128,-1,26
 440 156 440 156 479 156 c 256,27,28
 518 156 518 156 555.5 169.5 c 128,-1,29
 593 183 593 183 622 200 c 1,30,-1
 697 45 l 1,31,32
 653 19 653 19 596.5 0 c 128,-1,33
 540 -19 540 -19 479 -19 c 0,0,1
EndSplineSet
EndChar

StartChar: g
Encoding: 103 103 29
Width: 940
Flags: W
LayerCount: 2
Fore
SplineSet
323 -220 m 1,0,1
 389 -193 389 -193 437.5 -163.5 c 128,-1,2
 486 -134 486 -134 520 -101 c 128,-1,3
 554 -68 554 -68 574.5 -31 c 128,-1,4
 595 6 595 6 605 48 c 1,5,6
 548 20 548 20 474 20 c 256,7,8
 400 20 400 20 332.5 51 c 128,-1,9
 265 82 265 82 213.5 147 c 128,-1,10
 162 212 162 212 131 312.5 c 128,-1,11
 100 413 100 413 100 552 c 256,12,13
 100 691 100 691 131 791.5 c 128,-1,14
 162 892 162 892 213.5 957 c 128,-1,15
 265 1022 265 1022 332.5 1053 c 128,-1,16
 400 1084 400 1084 474 1084 c 0,17,18
 585 1084 585 1084 663 1018 c 1,19,-1
 795 1082 l 1,20,-1
 795 163 l 2,21,22
 795 73 795 73 773.5 -4.5 c 128,-1,23
 752 -82 752 -82 705.5 -148 c 128,-1,24
 659 -214 659 -214 586 -268 c 128,-1,25
 513 -322 513 -322 410 -364 c 1,26,-1
 323 -220 l 1,0,1
493 188 m 0,27,28
 528 188 528 188 559.5 199.5 c 128,-1,29
 591 211 591 211 617 232 c 1,30,-1
 617 871 l 1,31,32
 563 916 563 916 493 916 c 0,33,34
 452 916 452 916 414 899 c 128,-1,35
 376 882 376 882 346.5 840 c 128,-1,36
 317 798 317 798 299 728 c 128,-1,37
 281 658 281 658 281 552 c 256,38,39
 281 446 281 446 299 376 c 128,-1,40
 317 306 317 306 346.5 264 c 128,-1,41
 376 222 376 222 414 205 c 128,-1,42
 452 188 452 188 493 188 c 0,27,28
EndSplineSet
EndChar

StartChar: z
Encoding: 122 122 30
Width: 856
Flags: W
LayerCount: 2
Fore
SplineSet
508 894 m 1,0,-1
 163 894 l 1,1,-1
 163 1062 l 1,2,-1
 777 1062 l 1,3,-1
 358 168 l 1,4,-1
 746 168 l 1,5,-1
 746 0 l 1,6,-1
 90 0 l 1,7,-1
 508 894 l 1,0,-1
EndSplineSet
EndChar

StartChar: v
Encoding: 118 118 31
Width: 836
Flags: W
LayerCount: 2
Fore
SplineSet
35 1062 m 1,0,-1
 225 1062 l 1,1,-1
 375 601 l 1,2,-1
 421 441 l 1,3,-1
 466 601 l 1,4,-1
 613 1062 l 1,5,-1
 800 1062 l 1,6,-1
 420 -79 l 1,7,-1
 35 1062 l 1,0,-1
EndSplineSet
EndChar

StartChar: x
Encoding: 120 120 32
Width: 807
Flags: W
LayerCount: 2
Fore
SplineSet
314 539 m 1,0,-1
 55 1062 l 1,1,-1
 245 1062 l 1,2,-1
 414 720 l 1,3,-1
 562 1062 l 1,4,-1
 752 1062 l 1,5,-1
 506 536 l 1,6,-1
 772 0 l 1,7,-1
 582 0 l 1,8,-1
 406 354 l 1,9,-1
 225 0 l 1,10,-1
 35 0 l 1,11,-1
 314 539 l 1,0,-1
EndSplineSet
EndChar

StartChar: w
Encoding: 119 119 33
Width: 1106
Flags: W
LayerCount: 2
Fore
SplineSet
35 1062 m 1,0,-1
 225 1062 l 1,1,-1
 348 600 l 1,2,-1
 390 422 l 1,3,-1
 448 600 l 1,4,-1
 553 882 l 1,5,-1
 664 600 l 1,6,-1
 726 422 l 1,7,-1
 765 598 l 1,8,-1
 881 1062 l 1,9,-1
 1071 1062 l 1,10,-1
 759 -61 l 1,11,-1
 624 276 l 1,12,-1
 553 473 l 1,13,-1
 482 277 l 1,14,-1
 347 -61 l 1,15,-1
 35 1062 l 1,0,-1
EndSplineSet
EndChar

StartChar: y
Encoding: 121 121 34
Width: 836
Flags: W
LayerCount: 2
Fore
SplineSet
180 -210 m 1,0,1
 219 -180 219 -180 248 -151 c 128,-1,2
 277 -122 277 -122 297 -92 c 128,-1,3
 317 -62 317 -62 329 -28.5 c 128,-1,4
 341 5 341 5 345 45 c 1,5,-1
 35 1062 l 1,6,-1
 225 1062 l 1,7,-1
 375 522 l 1,8,-1
 424 297 l 1,9,-1
 473 521 l 1,10,-1
 611 1062 l 1,11,-1
 801 1062 l 1,12,-1
 541 110 l 2,13,14
 522 42 522 42 505 -11.5 c 128,-1,15
 488 -65 488 -65 470 -107.5 c 128,-1,16
 452 -150 452 -150 432.5 -183.5 c 128,-1,17
 413 -217 413 -217 388.5 -245.5 c 128,-1,18
 364 -274 364 -274 334.5 -300.5 c 128,-1,19
 305 -327 305 -327 267 -354 c 1,20,-1
 180 -210 l 1,21,-1
 180 -210 l 1,0,1
EndSplineSet
EndChar

StartChar: M
Encoding: 77 77 35
Width: 1262
Flags: W
LayerCount: 2
Fore
SplineSet
170 1654 m 1,0,-1
 630 810 l 1,1,-1
 1091 1654 l 1,2,-1
 1091 0 l 1,3,-1
 905 0 l 1,4,-1
 905 748 l 1,5,-1
 910 949 l 1,6,-1
 804 746 l 1,7,-1
 631 431 l 1,8,-1
 631 429 l 1,9,-1
 630 430 l 1,10,-1
 630 431 l 1,11,-1
 456 747 l 1,12,-1
 350 949 l 1,13,-1
 356 750 l 1,14,-1
 356 0 l 1,15,-1
 170 0 l 1,16,-1
 170 1654 l 1,0,-1
EndSplineSet
EndChar

StartChar: J
Encoding: 74 74 36
Width: 537
Flags: W
LayerCount: 2
Fore
SplineSet
4 140 m 1,0,1
 51 173 51 173 84.5 208 c 128,-1,2
 118 243 118 243 139 283.5 c 128,-1,3
 160 324 160 324 170 370.5 c 128,-1,4
 180 417 180 417 180 473 c 2,5,-1
 180 1593 l 1,6,-1
 366 1593 l 1,7,-1
 366 453 l 2,8,9
 366 376 366 376 352 306 c 128,-1,10
 338 236 338 236 306.5 175.5 c 128,-1,11
 275 115 275 115 225.5 64 c 128,-1,12
 176 13 176 13 104 -27 c 1,13,-1
 4 140 l 1,0,1
EndSplineSet
EndChar

StartChar: F
Encoding: 70 70 37
Width: 805
Flags: W
LayerCount: 2
Fore
SplineSet
170 1594 m 1,0,-1
 714 1593 l 1,1,-1
 714 1417 l 1,2,-1
 356 1417 l 1,3,-1
 356 743 l 1,4,-1
 664 743 l 1,5,-1
 664 567 l 1,6,-1
 356 567 l 1,7,-1
 356 0 l 1,8,-1
 170 0 l 1,9,-1
 170 1594 l 1,0,-1
EndSplineSet
EndChar

StartChar: L
Encoding: 76 76 38
Width: 797
Flags: W
LayerCount: 2
Fore
SplineSet
170 1593 m 1,0,-1
 356 1593 l 1,1,-1
 356 174 l 1,2,-1
 767 174 l 1,3,-1
 767 0 l 1,4,-1
 170 0 l 1,5,-1
 170 1593 l 1,0,-1
EndSplineSet
EndChar

StartChar: T
Encoding: 84 84 39
Width: 825
Flags: W
LayerCount: 2
Fore
SplineSet
320 1417 m 1,0,-1
 70 1417 l 1,1,-1
 70 1593 l 1,2,-1
 756 1593 l 1,3,-1
 756 1417 l 1,4,-1
 506 1417 l 1,5,-1
 506 0 l 1,6,-1
 320 0 l 1,7,-1
 320 1417 l 1,0,-1
EndSplineSet
EndChar

StartChar: C
Encoding: 67 67 40
Width: 844
Flags: W
LayerCount: 2
Fore
SplineSet
567 -19 m 0,0,1
 471 -19 471 -19 384 24 c 128,-1,2
 297 67 297 67 232 164 c 128,-1,3
 167 261 167 261 128.5 416.5 c 128,-1,4
 90 572 90 572 90 796 c 256,5,6
 90 1020 90 1020 128.5 1175.5 c 128,-1,7
 167 1331 167 1331 232 1427.5 c 128,-1,8
 297 1524 297 1524 384 1567.5 c 128,-1,9
 471 1611 471 1611 567 1611 c 0,10,11
 622 1611 622 1611 668.5 1601 c 128,-1,12
 715 1591 715 1591 764 1570 c 1,13,-1
 681 1409 l 1,14,15
 644 1426 644 1426 592 1426 c 0,16,17
 536 1426 536 1426 481 1392.5 c 128,-1,18
 426 1359 426 1359 382 1284 c 128,-1,19
 338 1209 338 1209 310.5 1089 c 128,-1,20
 283 969 283 969 283 796 c 256,21,22
 283 623 283 623 310.5 503 c 128,-1,23
 338 383 338 383 382 308 c 128,-1,24
 426 233 426 233 481 199.5 c 128,-1,25
 536 166 536 166 592 166 c 0,26,27
 644 166 644 166 681 183 c 1,28,-1
 764 22 l 1,29,30
 715 1 715 1 668.5 -9 c 128,-1,31
 622 -19 622 -19 567 -19 c 0,0,1
EndSplineSet
EndChar

StartChar: K
Encoding: 75 75 41
Width: 1006
Flags: W
LayerCount: 2
Fore
SplineSet
170 1593 m 1,0,-1
 356 1593 l 1,1,-1
 356 810 l 1,2,-1
 740 1593 l 1,3,-1
 940 1593 l 1,4,-1
 527 757 l 1,5,-1
 975 0 l 1,6,-1
 760 0 l 1,7,-1
 356 687 l 1,8,-1
 356 0 l 1,9,-1
 170 0 l 1,10,-1
 170 1593 l 1,0,-1
EndSplineSet
EndChar

StartChar: G
Encoding: 71 71 42
Width: 945
Flags: W
LayerCount: 2
Fore
SplineSet
631 748 m 1,0,-1
 817 748 l 1,1,-1
 817 -18 l 1,2,3
 668 -24 668 -24 535.5 27.5 c 128,-1,4
 403 79 403 79 304 185.5 c 128,-1,5
 205 292 205 292 147 453 c 128,-1,6
 89 614 89 614 89 826 c 0,7,8
 89 1014 89 1014 134 1160 c 128,-1,9
 179 1306 179 1306 254.5 1406.5 c 128,-1,10
 330 1507 330 1507 429 1559 c 128,-1,11
 528 1611 528 1611 636 1611 c 0,12,13
 683 1611 683 1611 728.5 1601 c 128,-1,14
 774 1591 774 1591 825 1570 c 1,15,-1
 741 1409 l 1,16,17
 721 1417 721 1417 691.5 1421.5 c 128,-1,18
 662 1426 662 1426 640 1426 c 0,19,20
 574 1426 574 1426 510 1387 c 128,-1,21
 446 1348 446 1348 395.5 1272 c 128,-1,22
 345 1196 345 1196 313.5 1083.5 c 128,-1,23
 282 971 282 971 282 824 c 0,24,25
 282 693 282 693 308 587.5 c 128,-1,26
 334 482 334 482 380 403.5 c 128,-1,27
 426 325 426 325 490 274 c 128,-1,28
 554 223 554 223 631 201 c 1,29,-1
 631 748 l 1,0,-1
EndSplineSet
EndChar

StartChar: B
Encoding: 66 66 43
Width: 926
Flags: W
LayerCount: 2
Fore
SplineSet
170 1612 m 1,0,1
 318 1612 318 1612 430.5 1572.5 c 128,-1,2
 543 1533 543 1533 618.5 1465.5 c 128,-1,3
 694 1398 694 1398 732 1309 c 128,-1,4
 770 1220 770 1220 770 1122 c 0,5,6
 770 1080 770 1080 759 1035 c 128,-1,7
 748 990 748 990 727 946.5 c 128,-1,8
 706 903 706 903 675 862 c 128,-1,9
 644 821 644 821 605 785 c 1,10,11
 707 725 707 725 761.5 636.5 c 128,-1,12
 816 548 816 548 816 431 c 0,13,14
 816 334 816 334 775 251.5 c 128,-1,15
 734 169 734 169 653 109 c 128,-1,16
 572 49 572 49 451 15.5 c 128,-1,17
 330 -18 330 -18 170 -18 c 1,18,-1
 170 1612 l 1,0,1
356 838 m 1,19,20
 393 838 393 838 432 859.5 c 128,-1,21
 471 881 471 881 503.5 918.5 c 128,-1,22
 536 956 536 956 556.5 1008 c 128,-1,23
 577 1060 577 1060 577 1121 c 0,24,25
 577 1184 577 1184 556.5 1236 c 128,-1,26
 536 1288 536 1288 503.5 1325.5 c 128,-1,27
 471 1363 471 1363 432 1383.5 c 128,-1,28
 393 1404 393 1404 356 1404 c 1,29,-1
 356 838 l 1,19,20
356 190 m 1,30,31
 413 190 413 190 462 207.5 c 128,-1,32
 511 225 511 225 546.5 256.5 c 128,-1,33
 582 288 582 288 602.5 332.5 c 128,-1,34
 623 377 623 377 623 431 c 0,35,36
 623 474 623 474 602.5 517 c 128,-1,37
 582 560 582 560 546.5 594.5 c 128,-1,38
 511 629 511 629 462 650.5 c 128,-1,39
 413 672 413 672 356 672 c 1,40,-1
 356 190 l 1,30,31
EndSplineSet
EndChar

StartChar: P
Encoding: 80 80 44
Width: 934
Flags: W
LayerCount: 2
Fore
SplineSet
170 1613 m 1,0,1
 341 1620 341 1620 468 1581.5 c 128,-1,2
 595 1543 595 1543 678 1467 c 128,-1,3
 761 1391 761 1391 802 1282 c 128,-1,4
 843 1173 843 1173 843 1041 c 0,5,6
 843 928 843 928 813.5 832 c 128,-1,7
 784 736 784 736 723.5 662.5 c 128,-1,8
 663 589 663 589 571.5 541 c 128,-1,9
 480 493 480 493 356 476 c 1,10,-1
 356 0 l 1,11,-1
 170 0 l 1,12,-1
 170 1613 l 1,0,1
356 665 m 1,13,14
 420 671 420 671 474 696.5 c 128,-1,15
 528 722 528 722 567 769 c 128,-1,16
 606 816 606 816 628 883.5 c 128,-1,17
 650 951 650 951 650 1041 c 256,18,19
 650 1131 650 1131 628 1198.5 c 128,-1,20
 606 1266 606 1266 567 1313 c 128,-1,21
 528 1360 528 1360 474 1385.5 c 128,-1,22
 420 1411 420 1411 356 1417 c 1,23,-1
 356 665 l 1,13,14
EndSplineSet
EndChar

StartChar: Q
Encoding: 81 81 45
Width: 1104
Flags: W
LayerCount: 2
Fore
SplineSet
524 -19 m 0,0,1
 476 -19 476 -19 425.5 -4.5 c 128,-1,2
 375 10 375 10 327 45.5 c 128,-1,3
 279 81 279 81 236 140.5 c 128,-1,4
 193 200 193 200 160.5 290.5 c 128,-1,5
 128 381 128 381 109 506 c 128,-1,6
 90 631 90 631 90 796 c 256,7,8
 90 961 90 961 109 1086 c 128,-1,9
 128 1211 128 1211 160.5 1301.5 c 128,-1,10
 193 1392 193 1392 236 1451.5 c 128,-1,11
 279 1511 279 1511 327 1546.5 c 128,-1,12
 375 1582 375 1582 425.5 1596.5 c 128,-1,13
 476 1611 476 1611 524 1611 c 0,14,15
 571 1611 571 1611 622 1596.5 c 128,-1,16
 673 1582 673 1582 721 1546.5 c 128,-1,17
 769 1511 769 1511 812 1451.5 c 128,-1,18
 855 1392 855 1392 887.5 1301.5 c 128,-1,19
 920 1211 920 1211 939 1086 c 128,-1,20
 958 961 958 961 958 796 c 0,21,22
 958 685 958 685 949 592.5 c 128,-1,23
 940 500 940 500 924.5 424.5 c 128,-1,24
 909 349 909 349 887 288.5 c 128,-1,25
 865 228 865 228 838 181 c 1,26,-1
 969 34 l 1,27,-1
 839 -73 l 1,28,-1
 729 51 l 1,29,30
 678 13 678 13 626 -3 c 128,-1,31
 574 -19 574 -19 524 -19 c 0,0,1
524 165 m 0,32,33
 544 165 544 165 564 171.5 c 128,-1,34
 584 178 584 178 604 192 c 1,35,-1
 434 384 l 1,36,-1
 564 491 l 1,37,-1
 702 335 l 1,38,39
 731 409 731 409 748 521.5 c 128,-1,40
 765 634 765 634 765 796 c 0,41,42
 765 978 765 978 743 1099.5 c 128,-1,43
 721 1221 721 1221 686.5 1293.5 c 128,-1,44
 652 1366 652 1366 609 1396.5 c 128,-1,45
 566 1427 566 1427 524 1427 c 256,46,47
 482 1427 482 1427 439 1396.5 c 128,-1,48
 396 1366 396 1366 361.5 1293.5 c 128,-1,49
 327 1221 327 1221 305 1099.5 c 128,-1,50
 283 978 283 978 283 796 c 256,51,52
 283 614 283 614 305 492.5 c 128,-1,53
 327 371 327 371 361.5 298.5 c 128,-1,54
 396 226 396 226 439 195.5 c 128,-1,55
 482 165 482 165 524 165 c 0,32,33
EndSplineSet
EndChar

StartChar: Z
Encoding: 90 90 46
Width: 852
Flags: W
LayerCount: 2
Fore
SplineSet
560 1417 m 1,0,-1
 146 1417 l 1,1,-1
 146 1593 l 1,2,-1
 808 1593 l 1,3,-1
 359 176 l 1,4,-1
 808 176 l 1,5,-1
 808 0 l 1,6,-1
 111 0 l 1,7,-1
 560 1417 l 1,0,-1
EndSplineSet
EndChar

StartChar: R
Encoding: 82 82 47
Width: 940
Flags: W
LayerCount: 2
Fore
SplineSet
170 1613 m 1,0,1
 341 1620 341 1620 468 1583 c 128,-1,2
 595 1546 595 1546 678 1472.5 c 128,-1,3
 761 1399 761 1399 802 1294 c 128,-1,4
 843 1189 843 1189 843 1061 c 0,5,6
 843 912 843 912 789 796 c 128,-1,7
 735 680 735 680 623 607 c 1,8,-1
 900 0 l 1,9,-1
 690 0 l 1,10,-1
 462 537 l 1,11,12
 412 523 412 523 356 516 c 1,13,-1
 356 0 l 1,14,-1
 170 0 l 1,15,-1
 170 1613 l 1,0,1
356 705 m 1,16,17
 420 711 420 711 474 735 c 128,-1,18
 528 759 528 759 567 803.5 c 128,-1,19
 606 848 606 848 628 912 c 128,-1,20
 650 976 650 976 650 1061 c 256,21,22
 650 1146 650 1146 628 1210 c 128,-1,23
 606 1274 606 1274 567 1318.5 c 128,-1,24
 528 1363 528 1363 474 1387 c 128,-1,25
 420 1411 420 1411 356 1417 c 1,26,-1
 356 705 l 1,16,17
EndSplineSet
EndChar

StartChar: V
Encoding: 86 86 48
Width: 985
Flags: W
LayerCount: 2
Fore
SplineSet
31 1593 m 1,0,-1
 231 1593 l 1,1,-1
 451 741 l 1,2,-1
 493 550 l 1,3,-1
 537 741 l 1,4,-1
 757 1593 l 1,5,-1
 957 1593 l 1,6,-1
 494 -49 l 1,7,-1
 31 1593 l 1,0,-1
EndSplineSet
EndChar

StartChar: W
Encoding: 87 87 49
Width: 1247
Flags: W
LayerCount: 2
Fore
SplineSet
31 1593 m 1,0,-1
 231 1593 l 1,1,-1
 384 796 l 1,2,-1
 423 540 l 1,3,-1
 513 796 l 1,4,-1
 625 1102 l 1,5,-1
 737 796 l 1,6,-1
 826 540 l 1,7,-1
 866 796 l 1,8,-1
 1019 1593 l 1,9,-1
 1219 1593 l 1,10,-1
 876 -49 l 1,11,-1
 704 418 l 1,12,-1
 625 641 l 1,13,-1
 546 418 l 1,14,-1
 374 -49 l 1,15,-1
 31 1593 l 1,0,-1
EndSplineSet
EndChar

StartChar: X
Encoding: 88 88 50
Width: 897
Flags: W
LayerCount: 2
Fore
SplineSet
352 815 m 1,0,-1
 64 1593 l 1,1,-1
 264 1593 l 1,2,-1
 465 1051 l 1,3,-1
 634 1593 l 1,4,-1
 834 1593 l 1,5,-1
 561 791 l 1,6,-1
 855 0 l 1,7,-1
 655 0 l 1,8,-1
 445 565 l 1,9,-1
 243 0 l 1,10,-1
 43 0 l 1,11,-1
 352 815 l 1,0,-1
EndSplineSet
EndChar

StartChar: Y
Encoding: 89 89 51
Width: 907
Flags: W
LayerCount: 2
Fore
SplineSet
361 543 m 1,0,-1
 31 1594 l 1,1,-1
 231 1594 l 1,2,-1
 455 808 l 1,3,-1
 679 1594 l 1,4,-1
 879 1594 l 1,5,-1
 547 536 l 1,6,-1
 547 0 l 1,7,-1
 361 0 l 1,8,-1
 361 543 l 1,0,-1
EndSplineSet
EndChar

StartChar: U
Encoding: 85 85 52
Width: 1087
Flags: W
LayerCount: 2
Fore
SplineSet
168 1593 m 1,0,-1
 354 1593 l 1,1,-1
 354 466 l 2,2,3
 354 383 354 383 366.5 325.5 c 128,-1,4
 379 268 379 268 403.5 232.5 c 128,-1,5
 428 197 428 197 463 181 c 128,-1,6
 498 165 498 165 543 165 c 256,7,8
 588 165 588 165 623 181 c 128,-1,9
 658 197 658 197 682.5 232.5 c 128,-1,10
 707 268 707 268 719.5 325.5 c 128,-1,11
 732 383 732 383 732 466 c 2,12,-1
 732 1593 l 1,13,-1
 918 1593 l 1,14,-1
 918 443 l 2,15,16
 918 322 918 322 892.5 235 c 128,-1,17
 867 148 867 148 818.5 91.5 c 128,-1,18
 770 35 770 35 700.5 8 c 128,-1,19
 631 -19 631 -19 543 -19 c 256,20,21
 455 -19 455 -19 385.5 8 c 128,-1,22
 316 35 316 35 267.5 91.5 c 128,-1,23
 219 148 219 148 193.5 235 c 128,-1,24
 168 322 168 322 168 443 c 2,25,-1
 168 1593 l 1,0,-1
EndSplineSet
EndChar

StartChar: ampersand
Encoding: 38 38 53
Width: 1227
Flags: W
LayerCount: 2
Fore
SplineSet
160 395 m 0,0,1
 160 502 160 502 203 615.5 c 128,-1,2
 246 729 246 729 335 846 c 1,3,4
 271 965 271 965 241 1064.5 c 128,-1,5
 211 1164 211 1164 211 1252 c 0,6,7
 211 1330 211 1330 234.5 1396 c 128,-1,8
 258 1462 258 1462 301.5 1510 c 128,-1,9
 345 1558 345 1558 408 1585 c 128,-1,10
 471 1612 471 1612 551 1612 c 0,11,12
 632 1612 632 1612 698 1585 c 128,-1,13
 764 1558 764 1558 820 1510 c 1,14,-1
 718 1378 l 1,15,16
 681 1407 681 1407 641 1422 c 128,-1,17
 601 1437 601 1437 558 1437 c 0,18,19
 483 1437 483 1437 438 1390.5 c 128,-1,20
 393 1344 393 1344 393 1250 c 0,21,22
 393 1212 393 1212 403 1162.5 c 128,-1,23
 413 1113 413 1113 439 1047 c 128,-1,24
 465 981 465 981 511.5 896.5 c 128,-1,25
 558 812 558 812 631 706 c 2,26,-1
 796 465 l 1,27,28
 797 480 797 480 797.5 496 c 128,-1,29
 798 512 798 512 798 529 c 2,30,-1
 798 728 l 1,31,-1
 728 728 l 1,32,-1
 728 885 l 1,33,-1
 1132 885 l 1,34,-1
 1132 728 l 1,35,-1
 971 728 l 1,36,-1
 972 529 l 2,37,38
 972 378 972 378 933 266 c 1,39,-1
 1056 87 l 1,40,-1
 924 -18 l 1,41,-1
 839 103 l 1,42,43
 785 44 785 44 713.5 13 c 128,-1,44
 642 -18 642 -18 554 -18 c 0,45,46
 463 -18 463 -18 390 14 c 128,-1,47
 317 46 317 46 266 102 c 128,-1,48
 215 158 215 158 187.5 233 c 128,-1,49
 160 308 160 308 160 395 c 0,0,1
342 407 m 0,50,51
 342 342 342 342 359 295 c 128,-1,52
 376 248 376 248 405.5 217 c 128,-1,53
 435 186 435 186 475 171.5 c 128,-1,54
 515 157 515 157 561 157 c 0,55,56
 618 157 618 157 662 179 c 128,-1,57
 706 201 706 201 737 249 c 1,58,-1
 479 617 l 2,59,60
 466 634 466 634 454.5 651.5 c 128,-1,61
 443 669 443 669 432 686 c 1,62,63
 377 605 377 605 359.5 533.5 c 128,-1,64
 342 462 342 462 342 407 c 0,50,51
EndSplineSet
EndChar

StartChar: one
Encoding: 49 49 54
Width: 604
Flags: W
LayerCount: 2
Fore
SplineSet
209 1430 m 1,0,-1
 395 1631 l 1,1,-1
 395 0 l 1,2,-1
 209 0 l 1,3,-1
 209 1430 l 1,0,-1
EndSplineSet
EndChar

StartChar: two
Encoding: 50 50 55
Width: 922
Flags: W
LayerCount: 2
Fore
SplineSet
456 830 m 2,0,1
 585 1100 585 1100 585 1231 c 0,2,3
 585 1269 585 1269 573.5 1306 c 128,-1,4
 562 1343 562 1343 539 1372.5 c 128,-1,5
 516 1402 516 1402 480 1420 c 128,-1,6
 444 1438 444 1438 395 1438 c 0,7,8
 350 1438 350 1438 293.5 1420 c 128,-1,9
 237 1402 237 1402 178 1357 c 1,10,-1
 89 1503 l 1,11,12
 156 1562 156 1562 237.5 1587.5 c 128,-1,13
 319 1613 319 1613 399 1613 c 0,14,15
 489 1613 489 1613 559.5 1584 c 128,-1,16
 630 1555 630 1555 678.5 1502.5 c 128,-1,17
 727 1450 727 1450 752.5 1378 c 128,-1,18
 778 1306 778 1306 778 1221 c 0,19,20
 778 1165 778 1165 767 1111 c 128,-1,21
 756 1057 756 1057 733 994.5 c 128,-1,22
 710 932 710 932 675 857 c 128,-1,23
 640 782 640 782 593 684 c 2,24,-1
 347 176 l 1,25,-1
 796 176 l 1,26,-1
 796 1 l 1,27,-1
 59 1 l 1,28,-1
 456 830 l 2,0,1
EndSplineSet
EndChar

StartChar: three
Encoding: 51 51 56
Width: 987
Flags: W
LayerCount: 2
Fore
SplineSet
174 214 m 1,0,1
 224 184 224 184 278.5 170 c 128,-1,2
 333 156 333 156 381 156 c 0,3,4
 443 156 443 156 494.5 178 c 128,-1,5
 546 200 546 200 582.5 240 c 128,-1,6
 619 280 619 280 639.5 337 c 128,-1,7
 660 394 660 394 660 464 c 0,8,9
 660 539 660 539 637.5 596.5 c 128,-1,10
 615 654 615 654 575.5 693.5 c 128,-1,11
 536 733 536 733 483 753.5 c 128,-1,12
 430 774 430 774 370 774 c 0,13,14
 338 774 338 774 305.5 767 c 128,-1,15
 273 760 273 760 231 741 c 1,16,-1
 267 812 l 1,17,-1
 549 1418 l 1,18,-1
 159 1418 l 1,19,-1
 158 1594 l 1,20,-1
 824 1594 l 1,21,-1
 520 932 l 1,22,23
 688 874 688 874 770.5 753 c 128,-1,24
 853 632 853 632 853 469 c 0,25,26
 853 362 853 362 819.5 272.5 c 128,-1,27
 786 183 786 183 724.5 118 c 128,-1,28
 663 53 663 53 577 17 c 128,-1,29
 491 -19 491 -19 386 -19 c 0,30,31
 341 -19 341 -19 297.5 -12.5 c 128,-1,32
 254 -6 254 -6 215 5 c 128,-1,33
 176 16 176 16 143 30.5 c 128,-1,34
 110 45 110 45 86 61 c 1,35,-1
 174 214 l 1,0,1
EndSplineSet
EndChar

StartChar: four
Encoding: 52 52 57
Width: 1051
Flags: W
LayerCount: 2
Fore
SplineSet
414 1593 m 1,0,-1
 602 1593 l 1,1,-1
 327 512 l 1,2,-1
 604 512 l 1,3,-1
 604 880 l 1,4,-1
 790 1081 l 1,5,-1
 790 512 l 1,6,-1
 936 512 l 1,7,-1
 936 336 l 1,8,-1
 790 336 l 1,9,-1
 790 0 l 1,10,-1
 604 0 l 1,11,-1
 604 336 l 1,12,-1
 100 336 l 1,13,-1
 414 1593 l 1,0,-1
EndSplineSet
EndChar

StartChar: five
Encoding: 53 53 58
Width: 952
Flags: W
LayerCount: 2
Fore
SplineSet
170 221 m 1,0,1
 220 188 220 188 272 172 c 128,-1,2
 324 156 324 156 373 156 c 0,3,4
 428 156 428 156 480 176.5 c 128,-1,5
 532 197 532 197 572 238 c 128,-1,6
 612 279 612 279 636 341 c 128,-1,7
 660 403 660 403 660 486 c 0,8,9
 660 558 660 558 641 615.5 c 128,-1,10
 622 673 622 673 587.5 713 c 128,-1,11
 553 753 553 753 504.5 774.5 c 128,-1,12
 456 796 456 796 398 796 c 0,13,14
 354 796 354 796 296.5 780 c 128,-1,15
 239 764 239 764 179 720 c 1,16,-1
 181 728 l 1,17,-1
 179 726 l 1,18,-1
 179 1593 l 1,19,-1
 765 1593 l 1,20,-1
 768 1417 l 1,21,-1
 365 1417 l 1,22,-1
 365 969 l 1,23,24
 375 970 375 970 385.5 970.5 c 128,-1,25
 396 971 396 971 408 971 c 0,26,27
 511 971 511 971 593.5 935.5 c 128,-1,28
 676 900 676 900 733.5 835.5 c 128,-1,29
 791 771 791 771 822 680.5 c 128,-1,30
 853 590 853 590 853 481 c 0,31,32
 853 358 853 358 815.5 264.5 c 128,-1,33
 778 171 778 171 714 108 c 128,-1,34
 650 45 650 45 566.5 13 c 128,-1,35
 483 -19 483 -19 392 -19 c 0,36,37
 330 -19 330 -19 251 -2 c 128,-1,38
 172 15 172 15 86 61 c 1,39,-1
 170 221 l 1,0,1
EndSplineSet
EndChar

StartChar: six
Encoding: 54 54 59
Width: 1057
Flags: W
LayerCount: 2
Fore
SplineSet
548 -18 m 0,0,1
 457 -18 457 -18 381 20 c 128,-1,2
 305 58 305 58 250.5 135 c 128,-1,3
 196 212 196 212 165.5 328.5 c 128,-1,4
 135 445 135 445 135 602 c 256,5,6
 135 759 135 759 167 907 c 128,-1,7
 199 1055 199 1055 262.5 1186.5 c 128,-1,8
 326 1318 326 1318 420 1431 c 128,-1,9
 514 1544 514 1544 637 1632 c 1,10,-1
 729 1479 l 1,11,12
 648 1420 648 1420 581 1345 c 128,-1,13
 514 1270 514 1270 465.5 1189 c 128,-1,14
 417 1108 417 1108 387 1026 c 128,-1,15
 357 944 357 944 350 872 c 1,16,17
 402 934 402 934 453 959.5 c 128,-1,18
 504 985 504 985 568 985 c 0,19,20
 643 985 643 985 713 954 c 128,-1,21
 783 923 783 923 837 860 c 128,-1,22
 891 797 891 797 924 703 c 128,-1,23
 957 609 957 609 957 483 c 256,24,25
 957 357 957 357 924 263 c 128,-1,26
 891 169 891 169 835 106.5 c 128,-1,27
 779 44 779 44 704.5 13 c 128,-1,28
 630 -18 630 -18 548 -18 c 0,0,1
552 159 m 0,29,30
 591 159 591 159 629 175.5 c 128,-1,31
 667 192 667 192 697 230.5 c 128,-1,32
 727 269 727 269 745.5 331 c 128,-1,33
 764 393 764 393 764 484 c 256,34,35
 764 575 764 575 745.5 637.5 c 128,-1,36
 727 700 727 700 697 738 c 128,-1,37
 667 776 667 776 629 793 c 128,-1,38
 591 810 591 810 552 810 c 0,39,40
 512 810 512 810 475 793 c 128,-1,41
 438 776 438 776 409 737 c 128,-1,42
 380 698 380 698 362.5 636 c 128,-1,43
 345 574 345 574 345 484 c 256,44,45
 345 394 345 394 362.5 332 c 128,-1,46
 380 270 380 270 409 231.5 c 128,-1,47
 438 193 438 193 475 176 c 128,-1,48
 512 159 512 159 552 159 c 0,29,30
EndSplineSet
EndChar

StartChar: seven
Encoding: 55 55 60
Width: 877
Flags: W
LayerCount: 2
Fore
SplineSet
574 1418 m 1,0,-1
 87 1418 l 1,1,-1
 86 1593 l 1,2,-1
 813 1593 l 1,3,-1
 354 0 l 1,4,-1
 170 0 l 1,5,-1
 574 1418 l 1,0,-1
EndSplineSet
EndChar

StartChar: nine
Encoding: 57 57 61
Width: 1067
Flags: W
LayerCount: 2
Fore
SplineSet
331 115 m 1,0,1
 413 175 413 175 480.5 251.5 c 128,-1,2
 548 328 548 328 597.5 410 c 128,-1,3
 647 492 647 492 677 574.5 c 128,-1,4
 707 657 707 657 715 730 c 1,5,6
 662 667 662 667 611 641 c 128,-1,7
 560 615 560 615 496 615 c 0,8,9
 421 615 421 615 350.5 646.5 c 128,-1,10
 280 678 280 678 225.5 742 c 128,-1,11
 171 806 171 806 137.5 901 c 128,-1,12
 104 996 104 996 104 1124 c 0,13,14
 104 1251 104 1251 137.5 1346 c 128,-1,15
 171 1441 171 1441 227 1504.5 c 128,-1,16
 283 1568 283 1568 357.5 1599.5 c 128,-1,17
 432 1631 432 1631 515 1631 c 0,18,19
 606 1631 606 1631 682.5 1592.5 c 128,-1,20
 759 1554 759 1554 814 1476 c 128,-1,21
 869 1398 869 1398 900 1280 c 128,-1,22
 931 1162 931 1162 931 1003 c 0,23,24
 931 848 931 848 900 701 c 128,-1,25
 869 554 869 554 806 420.5 c 128,-1,26
 743 287 743 287 648 171 c 128,-1,27
 553 55 553 55 425 -39 c 1,28,-1
 331 115 l 1,0,1
509 790 m 256,29,30
 547 790 547 790 585 807.5 c 128,-1,31
 623 825 623 825 653 864 c 128,-1,32
 683 903 683 903 702 966.5 c 128,-1,33
 721 1030 721 1030 721 1123 c 256,34,35
 721 1216 721 1216 702 1279.5 c 128,-1,36
 683 1343 683 1343 653 1382 c 128,-1,37
 623 1421 623 1421 585 1438.5 c 128,-1,38
 547 1456 547 1456 509 1456 c 256,39,40
 471 1456 471 1456 433 1438.5 c 128,-1,41
 395 1421 395 1421 364.5 1382 c 128,-1,42
 334 1343 334 1343 315 1279.5 c 128,-1,43
 296 1216 296 1216 296 1123 c 256,44,45
 296 1030 296 1030 315 966.5 c 128,-1,46
 334 903 334 903 364.5 864 c 128,-1,47
 395 825 395 825 433 807.5 c 128,-1,48
 471 790 471 790 509 790 c 256,29,30
EndSplineSet
EndChar

StartChar: eight
Encoding: 56 56 62
Width: 1100
Flags: W
LayerCount: 2
Fore
SplineSet
135 455 m 0,0,1
 135 525 135 525 149 588 c 128,-1,2
 163 651 163 651 188.5 705 c 128,-1,3
 214 759 214 759 249 802.5 c 128,-1,4
 284 846 284 846 327 878 c 1,5,6
 264 939 264 939 227.5 1028 c 128,-1,7
 191 1117 191 1117 191 1223 c 0,8,9
 191 1317 191 1317 220.5 1392.5 c 128,-1,10
 250 1468 250 1468 300 1520.5 c 128,-1,11
 350 1573 350 1573 414.5 1601.5 c 128,-1,12
 479 1630 479 1630 550 1630 c 0,13,14
 620 1630 620 1630 685 1602 c 128,-1,15
 750 1574 750 1574 799.5 1521.5 c 128,-1,16
 849 1469 849 1469 878.5 1393.5 c 128,-1,17
 908 1318 908 1318 908 1224 c 0,18,19
 908 1118 908 1118 871 1028.5 c 128,-1,20
 834 939 834 939 772 878 c 1,21,22
 815 846 815 846 850.5 802.5 c 128,-1,23
 886 759 886 759 911.5 705 c 128,-1,24
 937 651 937 651 951 588 c 128,-1,25
 965 525 965 525 965 455 c 0,26,27
 965 349 965 349 933.5 261.5 c 128,-1,28
 902 174 902 174 846 112 c 128,-1,29
 790 50 790 50 714 15.5 c 128,-1,30
 638 -19 638 -19 550 -19 c 0,31,32
 461 -19 461 -19 385.5 15.5 c 128,-1,33
 310 50 310 50 254 112 c 128,-1,34
 198 174 198 174 166.5 261.5 c 128,-1,35
 135 349 135 349 135 455 c 0,0,1
550 956 m 256,36,37
 580 956 580 956 609.5 969.5 c 128,-1,38
 639 983 639 983 662.5 1013 c 128,-1,39
 686 1043 686 1043 700.5 1090 c 128,-1,40
 715 1137 715 1137 715 1205 c 0,41,42
 715 1272 715 1272 700.5 1319.5 c 128,-1,43
 686 1367 686 1367 662.5 1397 c 128,-1,44
 639 1427 639 1427 609.5 1441 c 128,-1,45
 580 1455 580 1455 550 1455 c 256,46,47
 520 1455 520 1455 490.5 1441 c 128,-1,48
 461 1427 461 1427 437.5 1397 c 128,-1,49
 414 1367 414 1367 399 1319.5 c 128,-1,50
 384 1272 384 1272 384 1205 c 0,51,52
 384 1137 384 1137 399 1090 c 128,-1,53
 414 1043 414 1043 437.5 1013 c 128,-1,54
 461 983 461 983 490.5 969.5 c 128,-1,55
 520 956 520 956 550 956 c 256,36,37
550 156 m 0,56,57
 598 156 598 156 638.5 176 c 128,-1,58
 679 196 679 196 708.5 235 c 128,-1,59
 738 274 738 274 755 332.5 c 128,-1,60
 772 391 772 391 772 469 c 256,61,62
 772 547 772 547 755 605 c 128,-1,63
 738 663 738 663 708.5 701.5 c 128,-1,64
 679 740 679 740 638.5 759.5 c 128,-1,65
 598 779 598 779 550 779 c 0,66,67
 503 779 503 779 462.5 759.5 c 128,-1,68
 422 740 422 740 392 701.5 c 128,-1,69
 362 663 362 663 345 605 c 128,-1,70
 328 547 328 547 328 469 c 256,71,72
 328 391 328 391 345 332.5 c 128,-1,73
 362 274 362 274 392 235 c 128,-1,74
 422 196 422 196 462.5 176 c 128,-1,75
 503 156 503 156 550 156 c 0,56,57
EndSplineSet
EndChar

StartChar: zero
Encoding: 48 48 63
Width: 1104
Flags: W
LayerCount: 2
Fore
SplineSet
552 -19 m 256,0,1
 468 -19 468 -19 392.5 21 c 128,-1,2
 317 61 317 61 259.5 155.5 c 128,-1,3
 202 250 202 250 168.5 406.5 c 128,-1,4
 135 563 135 563 135 796 c 256,5,6
 135 1029 135 1029 168.5 1185.5 c 128,-1,7
 202 1342 202 1342 259.5 1436.5 c 128,-1,8
 317 1531 317 1531 392.5 1571 c 128,-1,9
 468 1611 468 1611 552 1611 c 256,10,11
 636 1611 636 1611 711.5 1571 c 128,-1,12
 787 1531 787 1531 844.5 1436.5 c 128,-1,13
 902 1342 902 1342 935.5 1185.5 c 128,-1,14
 969 1029 969 1029 969 796 c 256,15,16
 969 563 969 563 935.5 406.5 c 128,-1,17
 902 250 902 250 844.5 155.5 c 128,-1,18
 787 61 787 61 711.5 21 c 128,-1,19
 636 -19 636 -19 552 -19 c 256,0,1
552 156 m 256,20,21
 594 156 594 156 634 183 c 128,-1,22
 674 210 674 210 705.5 281 c 128,-1,23
 737 352 737 352 756.5 476.5 c 128,-1,24
 776 601 776 601 776 796 c 256,25,26
 776 991 776 991 756.5 1115.5 c 128,-1,27
 737 1240 737 1240 705.5 1311 c 128,-1,28
 674 1382 674 1382 634 1409 c 128,-1,29
 594 1436 594 1436 552 1436 c 256,30,31
 510 1436 510 1436 469.5 1409 c 128,-1,32
 429 1382 429 1382 397.5 1311 c 128,-1,33
 366 1240 366 1240 347 1115.5 c 128,-1,34
 328 991 328 991 328 796 c 256,35,36
 328 601 328 601 347 476.5 c 128,-1,37
 366 352 366 352 397.5 281 c 128,-1,38
 429 210 429 210 469.5 183 c 128,-1,39
 510 156 510 156 552 156 c 256,20,21
EndSplineSet
EndChar

StartChar: period
Encoding: 46 46 64
Width: 578
Flags: W
LayerCount: 2
Fore
SplineSet
150 115 m 256,0,1
 150 142 150 142 160 166 c 128,-1,2
 170 190 170 190 188 208.5 c 128,-1,3
 206 227 206 227 231.5 238 c 128,-1,4
 257 249 257 249 289 249 c 0,5,6
 320 249 320 249 346 238 c 128,-1,7
 372 227 372 227 390 208.5 c 128,-1,8
 408 190 408 190 418 166 c 128,-1,9
 428 142 428 142 428 115 c 256,10,11
 428 88 428 88 418 64 c 128,-1,12
 408 40 408 40 390 22 c 128,-1,13
 372 4 372 4 346 -7 c 128,-1,14
 320 -18 320 -18 289 -18 c 0,15,16
 257 -18 257 -18 231.5 -7 c 128,-1,17
 206 4 206 4 188 22 c 128,-1,18
 170 40 170 40 160 64 c 128,-1,19
 150 88 150 88 150 115 c 256,0,1
EndSplineSet
EndChar

StartChar: comma
Encoding: 44 44 65
Width: 475
Flags: W
LayerCount: 2
Fore
SplineSet
104 115 m 0,0,1
 104 142 104 142 114 166 c 128,-1,2
 124 190 124 190 142 208.5 c 128,-1,3
 160 227 160 227 185.5 238 c 128,-1,4
 211 249 211 249 243 249 c 0,5,6
 272 249 272 249 298.5 238.5 c 128,-1,7
 325 228 325 228 345.5 206.5 c 128,-1,8
 366 185 366 185 378 153.5 c 128,-1,9
 390 122 390 122 390 80 c 0,10,11
 390 -78 390 -78 192 -283 c 1,12,-1
 104 -198 l 1,13,14
 125 -178 125 -178 145.5 -155 c 128,-1,15
 166 -132 166 -132 182.5 -108 c 128,-1,16
 199 -84 199 -84 211 -60.5 c 128,-1,17
 223 -37 223 -37 229 -17 c 1,18,19
 172 -12 172 -12 138 26 c 128,-1,20
 104 64 104 64 104 115 c 0,0,1
EndSplineSet
EndChar

StartChar: colon
Encoding: 58 58 66
Width: 567
Flags: W
LayerCount: 2
Fore
SplineSet
284 614 m 0,0,1
 252 614 252 614 226.5 625 c 128,-1,2
 201 636 201 636 183 654 c 128,-1,3
 165 672 165 672 155 696 c 128,-1,4
 145 720 145 720 145 747 c 256,5,6
 145 774 145 774 155 798 c 128,-1,7
 165 822 165 822 183 840.5 c 128,-1,8
 201 859 201 859 226.5 870 c 128,-1,9
 252 881 252 881 284 881 c 0,10,11
 315 881 315 881 341 870 c 128,-1,12
 367 859 367 859 385 840.5 c 128,-1,13
 403 822 403 822 413 798 c 128,-1,14
 423 774 423 774 423 747 c 256,15,16
 423 720 423 720 413 696 c 128,-1,17
 403 672 403 672 385 654 c 128,-1,18
 367 636 367 636 341 625 c 128,-1,19
 315 614 315 614 284 614 c 0,0,1
145 115 m 256,20,21
 145 142 145 142 155 166 c 128,-1,22
 165 190 165 190 183 208.5 c 128,-1,23
 201 227 201 227 226.5 238 c 128,-1,24
 252 249 252 249 284 249 c 0,25,26
 315 249 315 249 341 238 c 128,-1,27
 367 227 367 227 385 208.5 c 128,-1,28
 403 190 403 190 413 166 c 128,-1,29
 423 142 423 142 423 115 c 256,30,31
 423 88 423 88 413 64 c 128,-1,32
 403 40 403 40 385 22 c 128,-1,33
 367 4 367 4 341 -7 c 128,-1,34
 315 -18 315 -18 284 -18 c 0,35,36
 252 -18 252 -18 226.5 -7 c 128,-1,37
 201 4 201 4 183 22 c 128,-1,38
 165 40 165 40 155 64 c 128,-1,39
 145 88 145 88 145 115 c 256,20,21
EndSplineSet
EndChar

StartChar: semicolon
Encoding: 59 59 67
Width: 571
Flags: W
LayerCount: 2
Fore
SplineSet
284 612 m 0,0,1
 252 612 252 612 226.5 623 c 128,-1,2
 201 634 201 634 183 652 c 128,-1,3
 165 670 165 670 155 694 c 128,-1,4
 145 718 145 718 145 745 c 256,5,6
 145 772 145 772 155 796 c 128,-1,7
 165 820 165 820 183 838.5 c 128,-1,8
 201 857 201 857 226.5 868 c 128,-1,9
 252 879 252 879 284 879 c 0,10,11
 315 879 315 879 341 868 c 128,-1,12
 367 857 367 857 385 838.5 c 128,-1,13
 403 820 403 820 413 796 c 128,-1,14
 423 772 423 772 423 745 c 256,15,16
 423 718 423 718 413 694 c 128,-1,17
 403 670 403 670 385 652 c 128,-1,18
 367 634 367 634 341 623 c 128,-1,19
 315 612 315 612 284 612 c 0,0,1
146 115 m 0,20,21
 146 142 146 142 156 166 c 128,-1,22
 166 190 166 190 184 208.5 c 128,-1,23
 202 227 202 227 227.5 238 c 128,-1,24
 253 249 253 249 285 249 c 0,25,26
 314 249 314 249 340 238.5 c 128,-1,27
 366 228 366 228 385.5 208 c 128,-1,28
 405 188 405 188 416 157.5 c 128,-1,29
 427 127 427 127 427 87 c 0,30,31
 427 9 427 9 383 -80.5 c 128,-1,32
 339 -170 339 -170 233 -277 c 1,33,-1
 145 -192 l 1,34,35
 188 -152 188 -152 222.5 -105 c 128,-1,36
 257 -58 257 -58 271 -17 c 1,37,38
 214 -12 214 -12 180 26 c 128,-1,39
 146 64 146 64 146 115 c 0,20,21
EndSplineSet
EndChar

StartChar: exclam
Encoding: 33 33 68
Width: 567
Flags: W
LayerCount: 2
Fore
SplineSet
194 1593 m 1,0,-1
 380 1593 l 1,1,-1
 380 531 l 1,2,-1
 194 531 l 1,3,-1
 194 1593 l 1,0,-1
145 115 m 256,4,5
 145 142 145 142 155 166 c 128,-1,6
 165 190 165 190 183 208.5 c 128,-1,7
 201 227 201 227 226.5 238 c 128,-1,8
 252 249 252 249 284 249 c 0,9,10
 315 249 315 249 341 238 c 128,-1,11
 367 227 367 227 385 208.5 c 128,-1,12
 403 190 403 190 413 166 c 128,-1,13
 423 142 423 142 423 115 c 256,14,15
 423 88 423 88 413 64 c 128,-1,16
 403 40 403 40 385 22 c 128,-1,17
 367 4 367 4 341 -7 c 128,-1,18
 315 -18 315 -18 284 -18 c 0,19,20
 252 -18 252 -18 226.5 -7 c 128,-1,21
 201 4 201 4 183 22 c 128,-1,22
 165 40 165 40 155 64 c 128,-1,23
 145 88 145 88 145 115 c 256,4,5
EndSplineSet
EndChar

StartChar: exclamdown
Encoding: 161 161 69
Width: 578
Flags: W
LayerCount: 2
Fore
SplineSet
289 990 m 0,0,1
 257 990 257 990 231.5 1001 c 128,-1,2
 206 1012 206 1012 188 1030.5 c 128,-1,3
 170 1049 170 1049 160 1073 c 128,-1,4
 150 1097 150 1097 150 1124 c 256,5,6
 150 1151 150 1151 160 1175 c 128,-1,7
 170 1199 170 1199 188 1217 c 128,-1,8
 206 1235 206 1235 231.5 1246 c 128,-1,9
 257 1257 257 1257 289 1257 c 0,10,11
 320 1257 320 1257 346 1246 c 128,-1,12
 372 1235 372 1235 390 1217 c 128,-1,13
 408 1199 408 1199 418 1175 c 128,-1,14
 428 1151 428 1151 428 1124 c 256,15,16
 428 1097 428 1097 418 1073 c 128,-1,17
 408 1049 408 1049 390 1030.5 c 128,-1,18
 372 1012 372 1012 346 1001 c 128,-1,19
 320 990 320 990 289 990 c 0,0,1
199 708 m 1,20,-1
 385 708 l 1,21,-1
 385 -354 l 1,22,-1
 199 -354 l 1,23,-1
 199 708 l 1,20,-1
EndSplineSet
EndChar

StartChar: question
Encoding: 63 63 70
Width: 913
Flags: W
LayerCount: 2
Fore
SplineSet
279 644 m 2,0,1
 279 740 279 740 301 810.5 c 128,-1,2
 323 881 323 881 356 934.5 c 128,-1,3
 389 988 389 988 427 1029 c 128,-1,4
 465 1070 465 1070 498 1107.5 c 128,-1,5
 531 1145 531 1145 553 1182.5 c 128,-1,6
 575 1220 575 1220 575 1266 c 0,7,8
 575 1302 575 1302 562.5 1333 c 128,-1,9
 550 1364 550 1364 526.5 1386.5 c 128,-1,10
 503 1409 503 1409 469.5 1422 c 128,-1,11
 436 1435 436 1435 394 1435 c 0,12,13
 346 1435 346 1435 305.5 1419.5 c 128,-1,14
 265 1404 265 1404 230 1383 c 1,15,-1
 150 1538 l 1,16,17
 214 1576 214 1576 281 1593.5 c 128,-1,18
 348 1611 348 1611 414 1611 c 0,19,20
 497 1611 497 1611 562 1588 c 128,-1,21
 627 1565 627 1565 671.5 1522.5 c 128,-1,22
 716 1480 716 1480 739.5 1420 c 128,-1,23
 763 1360 763 1360 763 1286 c 0,24,25
 763 1230 763 1230 750.5 1188 c 128,-1,26
 738 1146 738 1146 717.5 1112 c 128,-1,27
 697 1078 697 1078 671 1049 c 128,-1,28
 645 1020 645 1020 617.5 991 c 128,-1,29
 590 962 590 962 563.5 930 c 128,-1,30
 537 898 537 898 515.5 857 c 128,-1,31
 494 816 494 816 480.5 763.5 c 128,-1,32
 467 711 467 711 465 641 c 1,33,-1
 465 531 l 1,34,-1
 279 531 l 1,35,-1
 279 644 l 2,0,1
259 115 m 256,36,37
 259 142 259 142 269 166 c 128,-1,38
 279 190 279 190 297 208.5 c 128,-1,39
 315 227 315 227 340.5 238 c 128,-1,40
 366 249 366 249 398 249 c 0,41,42
 429 249 429 249 455 238 c 128,-1,43
 481 227 481 227 499 208.5 c 128,-1,44
 517 190 517 190 527 166 c 128,-1,45
 537 142 537 142 537 115 c 256,46,47
 537 88 537 88 527 64 c 128,-1,48
 517 40 517 40 499 22 c 128,-1,49
 481 4 481 4 455 -7 c 128,-1,50
 429 -18 429 -18 398 -18 c 0,51,52
 366 -18 366 -18 340.5 -7 c 128,-1,53
 315 4 315 4 297 22 c 128,-1,54
 279 40 279 40 269 64 c 128,-1,55
 259 88 259 88 259 115 c 256,36,37
EndSplineSet
EndChar

StartChar: questiondown
Encoding: 191 191 71
Width: 913
Flags: W
LayerCount: 2
Fore
SplineSet
515 1008 m 0,0,1
 483 1008 483 1008 457.5 1019 c 128,-1,2
 432 1030 432 1030 414 1048.5 c 128,-1,3
 396 1067 396 1067 386 1091 c 128,-1,4
 376 1115 376 1115 376 1142 c 256,5,6
 376 1169 376 1169 386 1193 c 128,-1,7
 396 1217 396 1217 414 1235 c 128,-1,8
 432 1253 432 1253 457.5 1264 c 128,-1,9
 483 1275 483 1275 515 1275 c 0,10,11
 546 1275 546 1275 572 1264 c 128,-1,12
 598 1253 598 1253 616 1235 c 128,-1,13
 634 1217 634 1217 644 1193 c 128,-1,14
 654 1169 654 1169 654 1142 c 256,15,16
 654 1115 654 1115 644 1091 c 128,-1,17
 634 1067 634 1067 616 1048.5 c 128,-1,18
 598 1030 598 1030 572 1019 c 128,-1,19
 546 1008 546 1008 515 1008 c 0,0,1
150 -29 m 0,20,21
 150 27 150 27 162.5 69 c 128,-1,22
 175 111 175 111 195.5 145 c 128,-1,23
 216 179 216 179 242 208 c 128,-1,24
 268 237 268 237 295.5 266 c 128,-1,25
 323 295 323 295 349.5 327 c 128,-1,26
 376 359 376 359 397.5 400 c 128,-1,27
 419 441 419 441 432.5 493.5 c 128,-1,28
 446 546 446 546 448 616 c 1,29,-1
 448 726 l 1,30,-1
 634 726 l 1,31,-1
 634 613 l 2,32,33
 634 517 634 517 612 446.5 c 128,-1,34
 590 376 590 376 557 322.5 c 128,-1,35
 524 269 524 269 486 228 c 128,-1,36
 448 187 448 187 415 149.5 c 128,-1,37
 382 112 382 112 360 74.5 c 128,-1,38
 338 37 338 37 338 -9 c 0,39,40
 338 -45 338 -45 350.5 -76 c 128,-1,41
 363 -107 363 -107 386.5 -129.5 c 128,-1,42
 410 -152 410 -152 443.5 -165 c 128,-1,43
 477 -178 477 -178 519 -178 c 0,44,45
 567 -178 567 -178 607.5 -162.5 c 128,-1,46
 648 -147 648 -147 683 -126 c 1,47,-1
 763 -281 l 1,48,49
 699 -319 699 -319 632 -336.5 c 128,-1,50
 565 -354 565 -354 499 -354 c 0,51,52
 416 -354 416 -354 351 -331 c 128,-1,53
 286 -308 286 -308 241.5 -265.5 c 128,-1,54
 197 -223 197 -223 173.5 -163 c 128,-1,55
 150 -103 150 -103 150 -29 c 0,20,21
EndSplineSet
EndChar

StartChar: quoteleft
Encoding: 8216 8216 72
Width: 571
Flags: W
LayerCount: 2
Fore
SplineSet
303 1062 m 0,0,1
 274 1062 274 1062 247 1072.5 c 128,-1,2
 220 1083 220 1083 200 1104.5 c 128,-1,3
 180 1126 180 1126 168 1157.5 c 128,-1,4
 156 1189 156 1189 156 1231 c 0,5,6
 156 1388 156 1388 354 1593 c 1,7,-1
 442 1508 l 1,8,9
 421 1488 421 1488 400.5 1465 c 128,-1,10
 380 1442 380 1442 363.5 1418.5 c 128,-1,11
 347 1395 347 1395 335 1371.5 c 128,-1,12
 323 1348 323 1348 317 1328 c 1,13,14
 374 1323 374 1323 408 1285 c 128,-1,15
 442 1247 442 1247 442 1196 c 0,16,17
 442 1169 442 1169 432 1145 c 128,-1,18
 422 1121 422 1121 404 1102.5 c 128,-1,19
 386 1084 386 1084 360 1073 c 128,-1,20
 334 1062 334 1062 303 1062 c 0,0,1
EndSplineSet
EndChar

StartChar: quoteright
Encoding: 8217 8217 73
Width: 571
Flags: W
LayerCount: 2
Fore
SplineSet
129 1148 m 1,0,1
 150 1168 150 1168 170.5 1191 c 128,-1,2
 191 1214 191 1214 207.5 1237.5 c 128,-1,3
 224 1261 224 1261 236 1284.5 c 128,-1,4
 248 1308 248 1308 254 1328 c 1,5,6
 197 1333 197 1333 163 1371 c 128,-1,7
 129 1409 129 1409 129 1460 c 0,8,9
 129 1487 129 1487 139 1511 c 128,-1,10
 149 1535 149 1535 167 1553.5 c 128,-1,11
 185 1572 185 1572 210.5 1583 c 128,-1,12
 236 1594 236 1594 268 1594 c 0,13,14
 297 1594 297 1594 323.5 1583.5 c 128,-1,15
 350 1573 350 1573 370.5 1551.5 c 128,-1,16
 391 1530 391 1530 403 1498.5 c 128,-1,17
 415 1467 415 1467 415 1425 c 0,18,19
 415 1268 415 1268 217 1063 c 1,20,-1
 129 1148 l 1,0,1
EndSplineSet
EndChar

StartChar: quotedblleft
Encoding: 8220 8220 74
Width: 1008
Flags: W
LayerCount: 2
Fore
SplineSet
679 1062 m 0,0,1
 650 1062 650 1062 623 1072.5 c 128,-1,2
 596 1083 596 1083 576 1104.5 c 128,-1,3
 556 1126 556 1126 544 1157.5 c 128,-1,4
 532 1189 532 1189 532 1231 c 0,5,6
 532 1388 532 1388 730 1593 c 1,7,-1
 818 1508 l 1,8,9
 797 1488 797 1488 776.5 1465 c 128,-1,10
 756 1442 756 1442 739.5 1418.5 c 128,-1,11
 723 1395 723 1395 711 1371.5 c 128,-1,12
 699 1348 699 1348 693 1328 c 1,13,14
 750 1323 750 1323 784 1285 c 128,-1,15
 818 1247 818 1247 818 1196 c 0,16,17
 818 1169 818 1169 808 1145 c 128,-1,18
 798 1121 798 1121 780 1102.5 c 128,-1,19
 762 1084 762 1084 736 1073 c 128,-1,20
 710 1062 710 1062 679 1062 c 0,0,1
303 1062 m 0,21,22
 274 1062 274 1062 247 1072.5 c 128,-1,23
 220 1083 220 1083 200 1104.5 c 128,-1,24
 180 1126 180 1126 168 1157.5 c 128,-1,25
 156 1189 156 1189 156 1231 c 0,26,27
 156 1388 156 1388 354 1593 c 1,28,-1
 442 1508 l 1,29,30
 421 1488 421 1488 400.5 1465 c 128,-1,31
 380 1442 380 1442 363.5 1418.5 c 128,-1,32
 347 1395 347 1395 335 1371.5 c 128,-1,33
 323 1348 323 1348 317 1328 c 1,34,35
 374 1323 374 1323 408 1285 c 128,-1,36
 442 1247 442 1247 442 1196 c 0,37,38
 442 1169 442 1169 432 1145 c 128,-1,39
 422 1121 422 1121 404 1102.5 c 128,-1,40
 386 1084 386 1084 360 1073 c 128,-1,41
 334 1062 334 1062 303 1062 c 0,21,22
EndSplineSet
EndChar

StartChar: quotedblright
Encoding: 8221 8221 75
Width: 1006
Flags: W
LayerCount: 2
Fore
SplineSet
508 1148 m 1,0,1
 529 1168 529 1168 549.5 1191 c 128,-1,2
 570 1214 570 1214 586.5 1237.5 c 128,-1,3
 603 1261 603 1261 615 1284.5 c 128,-1,4
 627 1308 627 1308 633 1328 c 1,5,6
 576 1333 576 1333 542 1371 c 128,-1,7
 508 1409 508 1409 508 1460 c 0,8,9
 508 1487 508 1487 518 1511 c 128,-1,10
 528 1535 528 1535 546 1553.5 c 128,-1,11
 564 1572 564 1572 589.5 1583 c 128,-1,12
 615 1594 615 1594 647 1594 c 0,13,14
 676 1594 676 1594 702.5 1583.5 c 128,-1,15
 729 1573 729 1573 749.5 1551.5 c 128,-1,16
 770 1530 770 1530 782 1498.5 c 128,-1,17
 794 1467 794 1467 794 1425 c 0,18,19
 794 1268 794 1268 596 1063 c 1,20,-1
 508 1148 l 1,0,1
129 1148 m 1,21,22
 150 1168 150 1168 170.5 1191 c 128,-1,23
 191 1214 191 1214 207.5 1237.5 c 128,-1,24
 224 1261 224 1261 236 1284.5 c 128,-1,25
 248 1308 248 1308 254 1328 c 1,26,27
 197 1333 197 1333 163 1371 c 128,-1,28
 129 1409 129 1409 129 1460 c 0,29,30
 129 1487 129 1487 139 1511 c 128,-1,31
 149 1535 149 1535 167 1553.5 c 128,-1,32
 185 1572 185 1572 210.5 1583 c 128,-1,33
 236 1594 236 1594 268 1594 c 0,34,35
 297 1594 297 1594 323.5 1583.5 c 128,-1,36
 350 1573 350 1573 370.5 1551.5 c 128,-1,37
 391 1530 391 1530 403 1498.5 c 128,-1,38
 415 1467 415 1467 415 1425 c 0,39,40
 415 1268 415 1268 217 1063 c 1,41,-1
 129 1148 l 1,21,22
EndSplineSet
EndChar

StartChar: quotesingle
Encoding: 39 39 76
Width: 530
Flags: W
LayerCount: 2
Fore
SplineSet
180 1594 m 1,0,-1
 350 1594 l 1,1,-1
 350 1062 l 1,2,-1
 180 1062 l 1,3,-1
 180 1594 l 1,0,-1
EndSplineSet
EndChar

StartChar: quotesinglbase
Encoding: 8218 8218 77
Width: 530
Flags: W
LayerCount: 2
Fore
SplineSet
350 250 m 1,0,-1
 350 -282 l 1,1,-1
 180 -282 l 1,2,-1
 180 250 l 1,3,-1
 350 250 l 1,0,-1
EndSplineSet
EndChar

StartChar: quotedbl
Encoding: 34 34 78
Width: 887
Flags: W
LayerCount: 2
Fore
SplineSet
433 1594 m 1,0,-1
 603 1594 l 1,1,-1
 603 1062 l 1,2,-1
 433 1062 l 1,3,-1
 433 1594 l 1,0,-1
182 1594 m 1,4,-1
 352 1594 l 1,5,-1
 352 1062 l 1,6,-1
 182 1062 l 1,7,-1
 182 1594 l 1,4,-1
EndSplineSet
EndChar

StartChar: quotedblbase
Encoding: 8222 8222 79
Width: 887
Flags: W
LayerCount: 2
Fore
SplineSet
508 115 m 0,0,1
 508 142 508 142 518 166 c 128,-1,2
 528 190 528 190 546 208.5 c 128,-1,3
 564 227 564 227 589.5 238 c 128,-1,4
 615 249 615 249 647 249 c 0,5,6
 676 249 676 249 702.5 238.5 c 128,-1,7
 729 228 729 228 749.5 206.5 c 128,-1,8
 770 185 770 185 782 153.5 c 128,-1,9
 794 122 794 122 794 80 c 0,10,11
 794 -77 794 -77 596 -282 c 1,12,-1
 508 -197 l 1,13,14
 529 -177 529 -177 549.5 -154 c 128,-1,15
 570 -131 570 -131 586.5 -107.5 c 128,-1,16
 603 -84 603 -84 615 -60.5 c 128,-1,17
 627 -37 627 -37 633 -17 c 1,18,19
 576 -12 576 -12 542 26 c 128,-1,20
 508 64 508 64 508 115 c 0,0,1
129 115 m 0,21,22
 129 142 129 142 139 166 c 128,-1,23
 149 190 149 190 167 208.5 c 128,-1,24
 185 227 185 227 210.5 238 c 128,-1,25
 236 249 236 249 268 249 c 0,26,27
 297 249 297 249 323.5 238.5 c 128,-1,28
 350 228 350 228 370.5 206.5 c 128,-1,29
 391 185 391 185 403 153.5 c 128,-1,30
 415 122 415 122 415 80 c 0,31,32
 415 -77 415 -77 217 -282 c 1,33,-1
 129 -197 l 1,34,35
 150 -177 150 -177 170.5 -154 c 128,-1,36
 191 -131 191 -131 207.5 -107.5 c 128,-1,37
 224 -84 224 -84 236 -60.5 c 128,-1,38
 248 -37 248 -37 254 -17 c 1,39,40
 197 -12 197 -12 163 26 c 128,-1,41
 129 64 129 64 129 115 c 0,21,22
EndSplineSet
EndChar

StartChar: at
Encoding: 64 64 80
Width: 1468
Flags: W
LayerCount: 2
Fore
SplineSet
153 438 m 2,0,1
 153 598 153 598 201 728.5 c 128,-1,2
 249 859 249 859 333.5 952 c 128,-1,3
 418 1045 418 1045 533 1095.5 c 128,-1,4
 648 1146 648 1146 780 1146 c 0,5,6
 900 1146 900 1146 1008.5 1104 c 128,-1,7
 1117 1062 1117 1062 1198.5 985 c 128,-1,8
 1280 908 1280 908 1328 798 c 128,-1,9
 1376 688 1376 688 1376 553 c 0,10,11
 1376 431 1376 431 1337.5 326.5 c 128,-1,12
 1299 222 1299 222 1233 145 c 128,-1,13
 1167 68 1167 68 1080 24.5 c 128,-1,14
 993 -19 993 -19 896 -19 c 0,15,16
 790 -19 790 -19 708 14 c 128,-1,17
 626 47 626 47 570.5 103.5 c 128,-1,18
 515 160 515 160 486.5 234 c 128,-1,19
 458 308 458 308 458 391 c 0,20,21
 458 482 458 482 493 559.5 c 128,-1,22
 528 637 528 637 597.5 694 c 128,-1,23
 667 751 667 751 769.5 783 c 128,-1,24
 872 815 872 815 1007 815 c 1,25,-1
 1007 157 l 1,26,27
 1053 181 1053 181 1088 221.5 c 128,-1,28
 1123 262 1123 262 1146.5 313 c 128,-1,29
 1170 364 1170 364 1182 422 c 128,-1,30
 1194 480 1194 480 1194 540 c 0,31,32
 1194 637 1194 637 1164 716.5 c 128,-1,33
 1134 796 1134 796 1080.5 852.5 c 128,-1,34
 1027 909 1027 909 953 940 c 128,-1,35
 879 971 879 971 792 971 c 0,36,37
 693 971 693 971 609.5 932 c 128,-1,38
 526 893 526 893 465 822.5 c 128,-1,39
 404 752 404 752 369.5 654 c 128,-1,40
 335 556 335 556 335 438 c 2,41,-1
 334 0 l 1,42,-1
 154 0 l 1,43,-1
 153 438 l 2,0,1
640 397 m 0,44,45
 640 297 640 297 688.5 233.5 c 128,-1,46
 737 170 737 170 833 150 c 1,47,-1
 833 636 l 1,48,49
 742 617 742 617 691 558.5 c 128,-1,50
 640 500 640 500 640 397 c 0,44,45
EndSplineSet
EndChar

StartChar: germandbls
Encoding: 223 223 81
Width: 1032
Flags: W
LayerCount: 2
Fore
SplineSet
145 894 m 1,0,-1
 58 894 l 1,1,-1
 58 1062 l 1,2,-1
 145 1062 l 1,3,-1
 145 1139 l 2,4,5
 145 1255 145 1255 175.5 1343.5 c 128,-1,6
 206 1432 206 1432 258.5 1491.5 c 128,-1,7
 311 1551 311 1551 382 1581.5 c 128,-1,8
 453 1612 453 1612 535 1612 c 0,9,10
 604 1612 604 1612 662.5 1589 c 128,-1,11
 721 1566 721 1566 764 1526 c 128,-1,12
 807 1486 807 1486 831 1431 c 128,-1,13
 855 1376 855 1376 855 1313 c 0,14,15
 855 1260 855 1260 841 1214.5 c 128,-1,16
 827 1169 827 1169 806 1129 c 128,-1,17
 785 1089 785 1089 760.5 1053.5 c 128,-1,18
 736 1018 736 1018 715 984 c 128,-1,19
 694 950 694 950 680 917 c 128,-1,20
 666 884 666 884 666 849 c 0,21,22
 666 804 666 804 689.5 765.5 c 128,-1,23
 713 727 713 727 748 689.5 c 128,-1,24
 783 652 783 652 824 613 c 128,-1,25
 865 574 865 574 900 527.5 c 128,-1,26
 935 481 935 481 958.5 424.5 c 128,-1,27
 982 368 982 368 982 296 c 0,28,29
 982 225 982 225 957.5 167 c 128,-1,30
 933 109 933 109 889 68 c 128,-1,31
 845 27 845 27 783.5 4.5 c 128,-1,32
 722 -18 722 -18 649 -18 c 0,33,34
 577 -18 577 -18 517.5 2 c 128,-1,35
 458 22 458 22 407 53 c 1,36,-1
 482 219 l 1,37,38
 533 190 533 190 576.5 173 c 128,-1,39
 620 156 620 156 658 156 c 0,40,41
 683 156 683 156 707 163.5 c 128,-1,42
 731 171 731 171 750 187 c 128,-1,43
 769 203 769 203 780.5 228 c 128,-1,44
 792 253 792 253 792 287 c 0,45,46
 792 336 792 336 768.5 378 c 128,-1,47
 745 420 745 420 709.5 458.5 c 128,-1,48
 674 497 674 497 633 535.5 c 128,-1,49
 592 574 592 574 556.5 616.5 c 128,-1,50
 521 659 521 659 497.5 708 c 128,-1,51
 474 757 474 757 474 818 c 0,52,53
 474 867 474 867 489 912.5 c 128,-1,54
 504 958 504 958 527 1000 c 128,-1,55
 550 1042 550 1042 576.5 1082 c 128,-1,56
 603 1122 603 1122 626 1160 c 128,-1,57
 649 1198 649 1198 664 1234.5 c 128,-1,58
 679 1271 679 1271 679 1307 c 0,59,60
 679 1337 679 1337 668 1361.5 c 128,-1,61
 657 1386 657 1386 638.5 1404 c 128,-1,62
 620 1422 620 1422 594.5 1433 c 128,-1,63
 569 1444 569 1444 540 1446 c 0,64,65
 496 1449 496 1449 457.5 1433 c 128,-1,66
 419 1417 419 1417 389.5 1380.5 c 128,-1,67
 360 1344 360 1344 343 1287.5 c 128,-1,68
 326 1231 326 1231 326 1155 c 2,69,-1
 326 0 l 1,70,-1
 145 0 l 1,71,-1
 145 894 l 1,0,-1
EndSplineSet
EndChar

StartChar: hyphen
Encoding: 45 45 82
Width: 727
Flags: W
LayerCount: 2
Fore
SplineSet
150 699 m 1,0,-1
 577 699 l 1,1,-1
 577 531 l 1,2,-1
 150 531 l 1,3,-1
 150 699 l 1,0,-1
EndSplineSet
EndChar

StartChar: endash
Encoding: 8211 8211 83
Width: 926
Flags: W
LayerCount: 2
Fore
SplineSet
150 699 m 1,0,-1
 775 699 l 1,1,-1
 775 531 l 1,2,-1
 150 531 l 1,3,-1
 150 699 l 1,0,-1
EndSplineSet
EndChar

StartChar: emdash
Encoding: 8212 8212 84
Width: 1286
Flags: W
LayerCount: 2
Fore
SplineSet
150 699 m 1,0,-1
 1136 699 l 1,1,-1
 1136 531 l 1,2,-1
 150 531 l 1,3,-1
 150 699 l 1,0,-1
EndSplineSet
EndChar

StartChar: periodcentered
Encoding: 183 183 85
Width: 578
Flags: W
LayerCount: 2
Fore
SplineSet
289 394 m 0,0,1
 257 394 257 394 231.5 405 c 128,-1,2
 206 416 206 416 188 434 c 128,-1,3
 170 452 170 452 160 476 c 128,-1,4
 150 500 150 500 150 527 c 256,5,6
 150 554 150 554 160 578 c 128,-1,7
 170 602 170 602 188 620.5 c 128,-1,8
 206 639 206 639 231.5 650 c 128,-1,9
 257 661 257 661 289 661 c 0,10,11
 320 661 320 661 346 650 c 128,-1,12
 372 639 372 639 390 620.5 c 128,-1,13
 408 602 408 602 418 578 c 128,-1,14
 428 554 428 554 428 527 c 256,15,16
 428 500 428 500 418 476 c 128,-1,17
 408 452 408 452 390 434 c 128,-1,18
 372 416 372 416 346 405 c 128,-1,19
 320 394 320 394 289 394 c 0,0,1
EndSplineSet
EndChar

StartChar: bullet
Encoding: 8226 8226 86
Width: 721
Flags: W
LayerCount: 2
Fore
SplineSet
360 394 m 256,0,1
 312 394 312 394 273.5 410 c 128,-1,2
 235 426 235 426 207.5 454 c 128,-1,3
 180 482 180 482 165 518 c 128,-1,4
 150 554 150 554 150 595 c 0,5,6
 150 635 150 635 165 671.5 c 128,-1,7
 180 708 180 708 207.5 736 c 128,-1,8
 235 764 235 764 273.5 780.5 c 128,-1,9
 312 797 312 797 360 797 c 256,10,11
 408 797 408 797 446.5 780.5 c 128,-1,12
 485 764 485 764 512.5 736 c 128,-1,13
 540 708 540 708 555 671.5 c 128,-1,14
 570 635 570 635 570 595 c 0,15,16
 570 554 570 554 555 518 c 128,-1,17
 540 482 540 482 512.5 454 c 128,-1,18
 485 426 485 426 446.5 410 c 128,-1,19
 408 394 408 394 360 394 c 256,0,1
EndSplineSet
EndChar

StartChar: slash
Encoding: 47 47 87
Width: 864
Flags: W
LayerCount: 2
Fore
SplineSet
635 1612 m 1,0,-1
 788 1559 l 1,1,-1
 246 -19 l 1,2,-1
 94 34 l 1,3,-1
 635 1612 l 1,0,-1
EndSplineSet
EndChar

StartChar: backslash
Encoding: 92 92 88
Width: 864
Flags: W
LayerCount: 2
Fore
SplineSet
76 1559 m 1,0,-1
 229 1612 l 1,1,-1
 770 34 l 1,2,-1
 618 -19 l 1,3,-1
 76 1559 l 1,0,-1
EndSplineSet
EndChar

StartChar: bar
Encoding: 124 124 89
Width: 565
Flags: W
LayerCount: 2
Fore
SplineSet
209 1771 m 1,0,-1
 357 1771 l 1,1,-1
 357 -177 l 1,2,-1
 209 -177 l 1,3,-1
 209 1771 l 1,0,-1
EndSplineSet
EndChar

StartChar: brokenbar
Encoding: 166 166 90
Width: 565
Flags: W
LayerCount: 2
Fore
SplineSet
209 1771 m 1,0,-1
 357 1771 l 1,1,-1
 357 1062 l 1,2,-1
 209 1062 l 1,3,-1
 209 1771 l 1,0,-1
209 532 m 1,4,-1
 357 532 l 1,5,-1
 357 -177 l 1,6,-1
 209 -177 l 1,7,-1
 209 532 l 1,4,-1
EndSplineSet
EndChar

StartChar: mu
Encoding: 181 181 91
AltUni2: 0003bc.ffffffff.0
Width: 1061
Flags: W
LayerCount: 2
Fore
SplineSet
354 -354 m 1,0,-1
 176 -354 l 1,1,-1
 176 1062 l 1,2,-1
 354 1062 l 1,3,-1
 354 373 l 2,4,5
 354 264 354 264 401.5 213.5 c 128,-1,6
 449 163 449 163 533 163 c 0,7,8
 560 163 560 163 586 172 c 128,-1,9
 612 181 612 181 634.5 195.5 c 128,-1,10
 657 210 657 210 675 228.5 c 128,-1,11
 693 247 693 247 704 266 c 1,12,-1
 704 1062 l 1,13,-1
 882 1062 l 1,14,-1
 882 -20 l 1,15,-1
 734 85 l 1,16,17
 697 40 697 40 639 11 c 128,-1,18
 581 -18 581 -18 518 -18 c 0,19,20
 460 -18 460 -18 422 -3.5 c 128,-1,21
 384 11 384 11 354 29 c 1,22,-1
 354 -354 l 1,0,-1
EndSplineSet
EndChar

StartChar: paragraph
Encoding: 182 182 92
Width: 1321
Flags: W
LayerCount: 2
Fore
SplineSet
587 450 m 1,0,1
 480 481 480 481 398.5 535.5 c 128,-1,2
 317 590 317 590 262 663.5 c 128,-1,3
 207 737 207 737 178.5 826.5 c 128,-1,4
 150 916 150 916 150 1016 c 0,5,6
 150 1139 150 1139 194.5 1244.5 c 128,-1,7
 239 1350 239 1350 319.5 1427.5 c 128,-1,8
 400 1505 400 1505 512 1549 c 128,-1,9
 624 1593 624 1593 760 1593 c 2,10,-1
 1170 1593 l 1,11,-1
 1170 1445 l 1,12,-1
 1035 1445 l 1,13,-1
 1035 -177 l 1,14,-1
 887 -177 l 1,15,-1
 887 1445 l 1,16,-1
 734 1445 l 1,17,-1
 734 -178 l 1,18,-1
 587 -178 l 1,19,-1
 587 450 l 1,0,1
588 1425 m 1,20,21
 529 1408 529 1408 477.5 1372.5 c 128,-1,22
 426 1337 426 1337 387.5 1285.5 c 128,-1,23
 349 1234 349 1234 327 1166 c 128,-1,24
 305 1098 305 1098 305 1016 c 0,25,26
 305 933 305 933 327.5 865.5 c 128,-1,27
 350 798 350 798 388 746 c 128,-1,28
 426 694 426 694 477.5 659 c 128,-1,29
 529 624 529 624 588 607 c 1,30,-1
 588 1425 l 1,20,21
EndSplineSet
EndChar

StartChar: bracketleft
Encoding: 91 91 93
Width: 678
Flags: W
LayerCount: 2
Fore
SplineSet
184 1751 m 1,0,-1
 527 1751 l 1,1,-1
 527 1593 l 1,2,-1
 352 1593 l 1,3,-1
 352 0 l 1,4,-1
 527 0 l 1,5,-1
 527 -158 l 1,6,-1
 184 -158 l 1,7,-1
 184 1751 l 1,0,-1
EndSplineSet
EndChar

StartChar: bracketright
Encoding: 93 93 94
Width: 678
Flags: W
LayerCount: 2
Fore
SplineSet
325 0 m 1,0,-1
 325 1593 l 1,1,-1
 150 1593 l 1,2,-1
 150 1751 l 1,3,-1
 493 1751 l 1,4,-1
 493 -158 l 1,5,-1
 150 -158 l 1,6,-1
 150 0 l 1,7,-1
 325 0 l 1,0,-1
EndSplineSet
EndChar

StartChar: dollar
Encoding: 36 36 95
Width: 887
Flags: W
LayerCount: 2
Fore
SplineSet
180 239 m 1,0,1
 229 210 229 210 282.5 187 c 128,-1,2
 336 164 336 164 400 164 c 0,3,4
 439 164 439 164 475 175 c 128,-1,5
 511 186 511 186 538 209 c 128,-1,6
 565 232 565 232 581 267.5 c 128,-1,7
 597 303 597 303 597 352 c 0,8,9
 597 385 597 385 588.5 420 c 128,-1,10
 580 455 580 455 560.5 495.5 c 128,-1,11
 541 536 541 536 509.5 584 c 128,-1,12
 478 632 478 632 431 691 c 2,13,-1
 302 854 l 2,14,15
 254 915 254 915 220.5 970 c 128,-1,16
 187 1025 187 1025 166 1075.5 c 128,-1,17
 145 1126 145 1126 135.5 1172.5 c 128,-1,18
 126 1219 126 1219 126 1264 c 0,19,20
 126 1382 126 1382 184 1468.5 c 128,-1,21
 242 1555 242 1555 348 1590 c 1,22,-1
 348 1772 l 1,23,-1
 496 1772 l 1,24,-1
 496 1611 l 1,25,26
 559 1609 559 1609 621.5 1591 c 128,-1,27
 684 1573 684 1573 744 1538 c 1,28,-1
 664 1383 l 1,29,30
 629 1404 629 1404 588.5 1419.5 c 128,-1,31
 548 1435 548 1435 499 1435 c 0,32,33
 417 1435 417 1435 368 1388.5 c 128,-1,34
 319 1342 319 1342 319 1257 c 0,35,36
 319 1234 319 1234 324 1209.5 c 128,-1,37
 329 1185 329 1185 341.5 1156 c 128,-1,38
 354 1127 354 1127 375.5 1092 c 128,-1,39
 397 1057 397 1057 430 1013 c 2,40,-1
 617 767 l 2,41,42
 653 719 653 719 685 673.5 c 128,-1,43
 717 628 717 628 740 580.5 c 128,-1,44
 763 533 763 533 776.5 480.5 c 128,-1,45
 790 428 790 428 790 367 c 0,46,47
 790 290 790 290 768.5 227 c 128,-1,48
 747 164 747 164 708.5 116 c 128,-1,49
 670 68 670 68 616 36 c 128,-1,50
 562 4 562 4 496 -9 c 1,51,-1
 496 -177 l 1,52,-1
 348 -177 l 1,53,-1
 348 -16 l 1,54,55
 274 -9 274 -9 208.5 15 c 128,-1,56
 143 39 143 39 94 73 c 1,57,-1
 180 239 l 1,0,1
EndSplineSet
EndChar

StartChar: cent
Encoding: 162 162 96
Width: 770
Flags: W
LayerCount: 2
Fore
SplineSet
360 2 m 1,0,1
 301 23 301 23 252 67 c 128,-1,2
 203 111 203 111 168 177 c 128,-1,3
 133 243 133 243 113.5 331.5 c 128,-1,4
 94 420 94 420 94 531 c 256,5,6
 94 642 94 642 113.5 730.5 c 128,-1,7
 133 819 133 819 168 885 c 128,-1,8
 203 951 203 951 252 994.5 c 128,-1,9
 301 1038 301 1038 360 1060 c 1,10,-1
 360 1238 l 1,11,-1
 508 1238 l 1,12,-1
 508 1080 l 1,13,14
 562 1076 562 1076 612 1058 c 128,-1,15
 662 1040 662 1040 701 1017 c 1,16,-1
 626 862 l 1,17,18
 597 879 597 879 559.5 892.5 c 128,-1,19
 522 906 522 906 483 906 c 256,20,21
 444 906 444 906 407 886 c 128,-1,22
 370 866 370 866 340.5 821 c 128,-1,23
 311 776 311 776 293.5 704.5 c 128,-1,24
 276 633 276 633 276 531 c 256,25,26
 276 429 276 429 293.5 357.5 c 128,-1,27
 311 286 311 286 340.5 241 c 128,-1,28
 370 196 370 196 407 176 c 128,-1,29
 444 156 444 156 483 156 c 256,30,31
 522 156 522 156 559.5 169.5 c 128,-1,32
 597 183 597 183 626 200 c 1,33,-1
 701 45 l 1,34,35
 662 21 662 21 612 3.5 c 128,-1,36
 562 -14 562 -14 508 -18 c 1,37,-1
 508 -176 l 1,38,-1
 360 -176 l 1,39,-1
 360 2 l 1,40,-1
 360 2 l 1,0,1
EndSplineSet
EndChar

StartChar: sterling
Encoding: 163 163 97
Width: 1016
Flags: W
LayerCount: 2
Fore
SplineSet
135 0 m 1,0,1
 228 202 228 202 265.5 371.5 c 128,-1,2
 303 541 303 541 304 676 c 1,3,-1
 140 676 l 1,4,-1
 140 852 l 1,5,-1
 276 852 l 1,6,7
 264 897 264 897 250 943.5 c 128,-1,8
 236 990 236 990 223.5 1037 c 128,-1,9
 211 1084 211 1084 203 1132 c 128,-1,10
 195 1180 195 1180 195 1229 c 0,11,12
 195 1309 195 1309 221 1379 c 128,-1,13
 247 1449 247 1449 296 1500.5 c 128,-1,14
 345 1552 345 1552 414 1582 c 128,-1,15
 483 1612 483 1612 569 1612 c 0,16,17
 650 1612 650 1612 731 1586 c 128,-1,18
 812 1560 812 1560 879 1502 c 1,19,-1
 801 1355 l 1,20,21
 771 1378 771 1378 740 1393.5 c 128,-1,22
 709 1409 709 1409 680 1419 c 128,-1,23
 651 1429 651 1429 625 1433 c 128,-1,24
 599 1437 599 1437 578 1437 c 0,25,26
 534 1437 534 1437 499 1422 c 128,-1,27
 464 1407 464 1407 439.5 1380 c 128,-1,28
 415 1353 415 1353 401.5 1314.5 c 128,-1,29
 388 1276 388 1276 388 1229 c 0,30,31
 388 1173 388 1173 397 1124 c 128,-1,32
 406 1075 406 1075 418.5 1030 c 128,-1,33
 431 985 431 985 446 941.5 c 128,-1,34
 461 898 461 898 473 852 c 1,35,-1
 784 852 l 1,36,-1
 784 676 l 1,37,-1
 497 676 l 1,38,39
 497 611 497 611 491.5 550.5 c 128,-1,40
 486 490 486 490 474.5 429.5 c 128,-1,41
 463 369 463 369 445.5 306.5 c 128,-1,42
 428 244 428 244 404 176 c 1,43,-1
 866 176 l 1,44,-1
 866 0 l 1,45,-1
 135 0 l 1,46,-1
 135 0 l 1,0,1
EndSplineSet
EndChar

StartChar: Euro
Encoding: 8364 8364 98
Width: 1061
Flags: W
LayerCount: 2
Fore
SplineSet
82 707 m 1,0,-1
 215 707 l 1,1,2
 214 728 214 728 214 750.5 c 128,-1,3
 214 773 214 773 214 796 c 2,4,-1
 214 835 l 1,5,-1
 82 835 l 1,6,-1
 82 1011 l 1,7,-1
 225 1011 l 1,8,9
 243 1174 243 1174 286.5 1288 c 128,-1,10
 330 1402 330 1402 392 1474 c 128,-1,11
 454 1546 454 1546 530.5 1578.5 c 128,-1,12
 607 1611 607 1611 691 1611 c 0,13,14
 746 1611 746 1611 792.5 1601 c 128,-1,15
 839 1591 839 1591 888 1570 c 1,16,-1
 805 1409 l 1,17,18
 768 1426 768 1426 716 1426 c 0,19,20
 670 1426 670 1426 624 1403.5 c 128,-1,21
 578 1381 578 1381 538.5 1331 c 128,-1,22
 499 1281 499 1281 468 1202 c 128,-1,23
 437 1123 437 1123 421 1011 c 1,24,-1
 746 1011 l 1,25,-1
 746 835 l 1,26,-1
 407 835 l 1,27,-1
 407 796 l 2,28,29
 407 773 407 773 407 750.5 c 128,-1,30
 407 728 407 728 409 707 c 1,31,-1
 746 707 l 1,32,-1
 746 531 l 1,33,-1
 429 531 l 1,34,35
 447 432 447 432 478 363 c 128,-1,36
 509 294 509 294 547.5 250 c 128,-1,37
 586 206 586 206 629.5 186 c 128,-1,38
 673 166 673 166 716 166 c 0,39,40
 768 166 768 166 805 183 c 1,41,-1
 888 22 l 1,42,43
 839 1 839 1 792.5 -9 c 128,-1,44
 746 -19 746 -19 691 -19 c 0,45,46
 610 -19 610 -19 536 11 c 128,-1,47
 462 41 462 41 401.5 106.5 c 128,-1,48
 341 172 341 172 296.5 276.5 c 128,-1,49
 252 381 252 381 231 531 c 1,50,-1
 82 531 l 1,51,-1
 82 707 l 1,0,-1
EndSplineSet
EndChar

StartChar: yen
Encoding: 165 165 99
Width: 918
Flags: W
LayerCount: 2
Fore
SplineSet
365 373 m 1,0,-1
 78 373 l 1,1,-1
 78 531 l 1,2,-1
 365 531 l 1,3,-1
 365 543 l 1,4,-1
 329 657 l 1,5,-1
 78 657 l 1,6,-1
 78 815 l 1,7,-1
 279 815 l 1,8,-1
 35 1594 l 1,9,-1
 235 1594 l 1,10,-1
 459 808 l 1,11,-1
 683 1594 l 1,12,-1
 883 1594 l 1,13,-1
 638 815 l 1,14,-1
 810 815 l 1,15,-1
 810 657 l 1,16,-1
 589 657 l 1,17,-1
 551 536 l 1,18,-1
 551 531 l 1,19,-1
 810 531 l 1,20,-1
 810 373 l 1,21,-1
 551 373 l 1,22,-1
 551 0 l 1,23,-1
 365 0 l 1,24,-1
 365 373 l 1,0,-1
EndSplineSet
EndChar

StartChar: copyright
Encoding: 169 169 100
Width: 1368
Flags: W
LayerCount: 2
Fore
SplineSet
685 -19 m 256,0,1
 571 -19 571 -19 468.5 31 c 128,-1,2
 366 81 366 81 288.5 182 c 128,-1,3
 211 283 211 283 166 436 c 128,-1,4
 121 589 121 589 121 796 c 256,5,6
 121 1003 121 1003 166 1156 c 128,-1,7
 211 1309 211 1309 288.5 1410 c 128,-1,8
 366 1511 366 1511 468.5 1561 c 128,-1,9
 571 1611 571 1611 685 1611 c 256,10,11
 799 1611 799 1611 901.5 1561 c 128,-1,12
 1004 1511 1004 1511 1081.5 1410 c 128,-1,13
 1159 1309 1159 1309 1204 1156 c 128,-1,14
 1249 1003 1249 1003 1249 796 c 256,15,16
 1249 589 1249 589 1204 436 c 128,-1,17
 1159 283 1159 283 1081.5 182 c 128,-1,18
 1004 81 1004 81 901.5 31 c 128,-1,19
 799 -19 799 -19 685 -19 c 256,0,1
685 119 m 256,20,21
 765 119 765 119 840.5 157.5 c 128,-1,22
 916 196 916 196 975 277.5 c 128,-1,23
 1034 359 1034 359 1070 487.5 c 128,-1,24
 1106 616 1106 616 1106 796 c 1,25,26
 1104 978 1104 978 1068 1106.5 c 128,-1,27
 1032 1235 1032 1235 973.5 1316.5 c 128,-1,28
 915 1398 915 1398 840 1435.5 c 128,-1,29
 765 1473 765 1473 685 1473 c 256,30,31
 605 1473 605 1473 529.5 1434.5 c 128,-1,32
 454 1396 454 1396 395 1314.5 c 128,-1,33
 336 1233 336 1233 300 1104.5 c 128,-1,34
 264 976 264 976 264 796 c 256,35,36
 264 616 264 616 300 487.5 c 128,-1,37
 336 359 336 359 395 277.5 c 128,-1,38
 454 196 454 196 529.5 157.5 c 128,-1,39
 605 119 605 119 685 119 c 256,20,21
724 364 m 0,40,41
 659 364 659 364 603.5 391 c 128,-1,42
 548 418 548 418 507.5 472 c 128,-1,43
 467 526 467 526 443.5 607 c 128,-1,44
 420 688 420 688 420 796 c 256,45,46
 420 904 420 904 443.5 985 c 128,-1,47
 467 1066 467 1066 507.5 1120 c 128,-1,48
 548 1174 548 1174 603.5 1201 c 128,-1,49
 659 1228 659 1228 724 1228 c 0,50,51
 777 1228 777 1228 820.5 1214.5 c 128,-1,52
 864 1201 864 1201 899 1178 c 1,53,-1
 838 1054 l 1,54,55
 815 1068 815 1068 786.5 1079.5 c 128,-1,56
 758 1091 758 1091 724 1091 c 0,57,58
 694 1091 694 1091 665 1075.5 c 128,-1,59
 636 1060 636 1060 613.5 1025 c 128,-1,60
 591 990 591 990 577.5 933.5 c 128,-1,61
 564 877 564 877 564 796 c 256,62,63
 564 715 564 715 577.5 658.5 c 128,-1,64
 591 602 591 602 613.5 566.5 c 128,-1,65
 636 531 636 531 665 515.5 c 128,-1,66
 694 500 694 500 724 500 c 0,67,68
 758 500 758 500 786.5 512 c 128,-1,69
 815 524 815 524 838 538 c 1,70,-1
 899 414 l 1,71,72
 864 391 864 391 820.5 377.5 c 128,-1,73
 777 364 777 364 724 364 c 0,40,41
EndSplineSet
EndChar

StartChar: braceleft
Encoding: 123 123 101
Width: 817
Flags: W
LayerCount: 2
Fore
SplineSet
316 357 m 2,0,1
 316 427 316 427 305 484 c 128,-1,2
 294 541 294 541 267 592.5 c 128,-1,3
 240 644 240 644 193.5 693 c 128,-1,4
 147 742 147 742 76 796 c 1,5,6
 147 850 147 850 193.5 899 c 128,-1,7
 240 948 240 948 267 999.5 c 128,-1,8
 294 1051 294 1051 305 1108 c 128,-1,9
 316 1165 316 1165 316 1235 c 2,10,-1
 316 1478 l 2,11,12
 316 1617 316 1617 381 1684 c 128,-1,13
 446 1751 446 1751 589 1751 c 2,14,-1
 669 1751 l 1,15,-1
 669 1593 l 1,16,-1
 589 1593 l 2,17,18
 535 1593 535 1593 509.5 1565.5 c 128,-1,19
 484 1538 484 1538 484 1478 c 2,20,-1
 484 1235 l 2,21,22
 484 1174 484 1174 476 1115 c 128,-1,23
 468 1056 468 1056 447.5 1001 c 128,-1,24
 427 946 427 946 392 894.5 c 128,-1,25
 357 843 357 843 304 797 c 1,26,27
 357 750 357 750 392 698.5 c 128,-1,28
 427 647 427 647 447.5 591.5 c 128,-1,29
 468 536 468 536 476 477 c 128,-1,30
 484 418 484 418 484 357 c 2,31,-1
 484 115 l 2,32,33
 484 55 484 55 509.5 27.5 c 128,-1,34
 535 0 535 0 589 0 c 2,35,-1
 669 0 l 1,36,-1
 669 -158 l 1,37,-1
 589 -158 l 2,38,39
 446 -158 446 -158 381 -91.5 c 128,-1,40
 316 -25 316 -25 316 115 c 2,41,-1
 316 357 l 2,0,1
EndSplineSet
EndChar

StartChar: braceright
Encoding: 125 125 102
Width: 817
Flags: W
LayerCount: 2
Fore
SplineSet
230 0 m 2,0,1
 284 0 284 0 309.5 27.5 c 128,-1,2
 335 55 335 55 335 115 c 2,3,-1
 335 357 l 2,4,5
 335 418 335 418 343 476.5 c 128,-1,6
 351 535 351 535 371.5 590.5 c 128,-1,7
 392 646 392 646 427 697.5 c 128,-1,8
 462 749 462 749 515 796 c 1,9,10
 462 842 462 842 427 893.5 c 128,-1,11
 392 945 392 945 371.5 1000.5 c 128,-1,12
 351 1056 351 1056 343 1115 c 128,-1,13
 335 1174 335 1174 335 1235 c 2,14,-1
 335 1478 l 2,15,16
 335 1538 335 1538 309.5 1565.5 c 128,-1,17
 284 1593 284 1593 230 1593 c 2,18,-1
 150 1593 l 1,19,-1
 150 1751 l 1,20,-1
 230 1751 l 2,21,22
 373 1751 373 1751 438 1684 c 128,-1,23
 503 1617 503 1617 503 1478 c 2,24,-1
 503 1235 l 2,25,26
 503 1165 503 1165 514 1108 c 128,-1,27
 525 1051 525 1051 552 999.5 c 128,-1,28
 579 948 579 948 625.5 899 c 128,-1,29
 672 850 672 850 743 796 c 1,30,31
 672 742 672 742 625.5 693 c 128,-1,32
 579 644 579 644 552 592.5 c 128,-1,33
 525 541 525 541 514 484 c 128,-1,34
 503 427 503 427 503 357 c 2,35,-1
 503 115 l 2,36,37
 503 -25 503 -25 438 -91.5 c 128,-1,38
 373 -158 373 -158 230 -158 c 2,39,-1
 150 -158 l 1,40,-1
 150 0 l 1,41,-1
 230 0 l 2,0,1
EndSplineSet
EndChar

StartChar: parenleft
Encoding: 40 40 103
Width: 815
Flags: W
LayerCount: 2
Fore
SplineSet
678 -144 m 1,0,1
 570 -68 570 -68 479.5 29.5 c 128,-1,2
 389 127 389 127 323 245.5 c 128,-1,3
 257 364 257 364 220.5 502 c 128,-1,4
 184 640 184 640 184 796 c 256,5,6
 184 952 184 952 220.5 1090 c 128,-1,7
 257 1228 257 1228 323 1346.5 c 128,-1,8
 389 1465 389 1465 479.5 1562.5 c 128,-1,9
 570 1660 570 1660 678 1736 c 1,10,-1
 678 1528 l 1,11,12
 520 1387 520 1387 436 1204.5 c 128,-1,13
 352 1022 352 1022 352 796 c 256,14,15
 352 570 352 570 436 387.5 c 128,-1,16
 520 205 520 205 678 64 c 1,17,-1
 678 -144 l 1,0,1
EndSplineSet
EndChar

StartChar: parenright
Encoding: 41 41 104
Width: 793
Flags: W
LayerCount: 2
Fore
SplineSet
184 64 m 1,0,1
 342 205 342 205 426 387.5 c 128,-1,2
 510 570 510 570 510 796 c 256,3,4
 510 1022 510 1022 426 1204.5 c 128,-1,5
 342 1387 342 1387 184 1528 c 1,6,-1
 184 1736 l 1,7,8
 292 1660 292 1660 382.5 1562.5 c 128,-1,9
 473 1465 473 1465 539 1346.5 c 128,-1,10
 605 1228 605 1228 641.5 1090 c 128,-1,11
 678 952 678 952 678 796 c 256,12,13
 678 640 678 640 641.5 502 c 128,-1,14
 605 364 605 364 539 245.5 c 128,-1,15
 473 127 473 127 382.5 29.5 c 128,-1,16
 292 -68 292 -68 184 -144 c 1,17,-1
 184 64 l 1,18,-1
 184 64 l 1,0,1
EndSplineSet
EndChar

StartChar: asterisk
Encoding: 42 42 105
Width: 997
Flags: W
LayerCount: 2
Fore
SplineSet
412 1179 m 1,0,-1
 150 1173 l 1,1,-1
 150 1331 l 1,2,-1
 410 1324 l 1,3,-1
 324 1570 l 1,4,-1
 475 1619 l 1,5,-1
 547 1370 l 1,6,-1
 752 1527 l 1,7,-1
 845 1399 l 1,8,-1
 632 1253 l 1,9,-1
 847 1107 l 1,10,-1
 754 979 l 1,11,-1
 550 1134 l 1,12,-1
 475 883 l 1,13,-1
 325 932 l 1,14,-1
 412 1179 l 1,0,-1
EndSplineSet
EndChar

StartChar: percent
Encoding: 37 37 106
Width: 1593
Flags: W
LayerCount: 2
Fore
SplineSet
1001 1612 m 1,0,-1
 1154 1559 l 1,1,-1
 612 -19 l 1,2,-1
 460 34 l 1,3,-1
 1001 1612 l 1,0,-1
429 882 m 256,4,5
 372 882 372 882 325 903 c 128,-1,6
 278 924 278 924 244 968.5 c 128,-1,7
 210 1013 210 1013 191 1082 c 128,-1,8
 172 1151 172 1151 172 1247 c 256,9,10
 172 1343 172 1343 191 1412 c 128,-1,11
 210 1481 210 1481 244 1525.5 c 128,-1,12
 278 1570 278 1570 325 1591 c 128,-1,13
 372 1612 372 1612 429 1612 c 256,14,15
 486 1612 486 1612 533 1591 c 128,-1,16
 580 1570 580 1570 614 1525.5 c 128,-1,17
 648 1481 648 1481 667 1412 c 128,-1,18
 686 1343 686 1343 686 1247 c 256,19,20
 686 1151 686 1151 667 1082 c 128,-1,21
 648 1013 648 1013 614 968.5 c 128,-1,22
 580 924 580 924 533 903 c 128,-1,23
 486 882 486 882 429 882 c 256,4,5
429 1023 m 256,24,25
 450 1023 450 1023 468.5 1034.5 c 128,-1,26
 487 1046 487 1046 501 1072 c 128,-1,27
 515 1098 515 1098 523.5 1141 c 128,-1,28
 532 1184 532 1184 532 1247 c 256,29,30
 532 1310 532 1310 523.5 1353 c 128,-1,31
 515 1396 515 1396 501 1422 c 128,-1,32
 487 1448 487 1448 468.5 1459.5 c 128,-1,33
 450 1471 450 1471 429 1471 c 256,34,35
 408 1471 408 1471 389.5 1459.5 c 128,-1,36
 371 1448 371 1448 357 1422 c 128,-1,37
 343 1396 343 1396 334.5 1353 c 128,-1,38
 326 1310 326 1310 326 1247 c 256,39,40
 326 1184 326 1184 334.5 1141 c 128,-1,41
 343 1098 343 1098 357 1072 c 128,-1,42
 371 1046 371 1046 389.5 1034.5 c 128,-1,43
 408 1023 408 1023 429 1023 c 256,24,25
906 346 m 256,44,45
 906 442 906 442 925 511 c 128,-1,46
 944 580 944 580 978 624.5 c 128,-1,47
 1012 669 1012 669 1059 690 c 128,-1,48
 1106 711 1106 711 1163 711 c 256,49,50
 1220 711 1220 711 1267 690 c 128,-1,51
 1314 669 1314 669 1348 624.5 c 128,-1,52
 1382 580 1382 580 1401 511 c 128,-1,53
 1420 442 1420 442 1420 346 c 256,54,55
 1420 250 1420 250 1401 181 c 128,-1,56
 1382 112 1382 112 1348 67.5 c 128,-1,57
 1314 23 1314 23 1267 2 c 128,-1,58
 1220 -19 1220 -19 1163 -19 c 256,59,60
 1106 -19 1106 -19 1059 2 c 128,-1,61
 1012 23 1012 23 978 67.5 c 128,-1,62
 944 112 944 112 925 181 c 128,-1,63
 906 250 906 250 906 346 c 256,44,45
1060 346 m 256,64,65
 1060 283 1060 283 1068.5 240 c 128,-1,66
 1077 197 1077 197 1091 171 c 128,-1,67
 1105 145 1105 145 1123.5 133.5 c 128,-1,68
 1142 122 1142 122 1163 122 c 256,69,70
 1184 122 1184 122 1202.5 133.5 c 128,-1,71
 1221 145 1221 145 1235 171 c 128,-1,72
 1249 197 1249 197 1257.5 240 c 128,-1,73
 1266 283 1266 283 1266 346 c 256,74,75
 1266 409 1266 409 1257.5 452 c 128,-1,76
 1249 495 1249 495 1235 521 c 128,-1,77
 1221 547 1221 547 1202.5 558.5 c 128,-1,78
 1184 570 1184 570 1163 570 c 256,79,80
 1142 570 1142 570 1123.5 558.5 c 128,-1,81
 1105 547 1105 547 1091 521 c 128,-1,82
 1077 495 1077 495 1068.5 452 c 128,-1,83
 1060 409 1060 409 1060 346 c 256,64,65
EndSplineSet
EndChar

StartChar: numbersign
Encoding: 35 35 107
Width: 1290
Flags: W
LayerCount: 2
Fore
SplineSet
296 383 m 1,0,-1
 90 383 l 1,1,-1
 90 531 l 1,2,-1
 327 531 l 1,3,-1
 406 914 l 1,4,-1
 90 914 l 1,5,-1
 90 1062 l 1,6,-1
 437 1062 l 1,7,-1
 511 1417 l 1,8,-1
 659 1417 l 1,9,-1
 585 1062 l 1,10,-1
 848 1062 l 1,11,-1
 922 1417 l 1,12,-1
 1070 1417 l 1,13,-1
 996 1062 l 1,14,-1
 1205 1062 l 1,15,-1
 1205 914 l 1,16,-1
 965 914 l 1,17,-1
 886 531 l 1,18,-1
 1205 531 l 1,19,-1
 1205 383 l 1,20,-1
 855 383 l 1,21,-1
 776 0 l 1,22,-1
 628 0 l 1,23,-1
 707 383 l 1,24,-1
 444 383 l 1,25,-1
 365 0 l 1,26,-1
 217 0 l 1,27,-1
 296 383 l 1,0,-1
738 531 m 1,28,-1
 817 914 l 1,29,-1
 554 914 l 1,30,-1
 475 531 l 1,31,-1
 738 531 l 1,28,-1
EndSplineSet
EndChar

StartChar: guilsinglleft
Encoding: 8249 8249 108
Width: 688
Flags: W
LayerCount: 2
Fore
SplineSet
86 531 m 1,0,-1
 412 931 l 1,1,-1
 520 839 l 1,2,-1
 271 531 l 1,3,-1
 520 223 l 1,4,-1
 412 131 l 1,5,-1
 86 531 l 1,0,-1
EndSplineSet
EndChar

StartChar: guilsinglright
Encoding: 8250 8250 109
Width: 688
Flags: W
LayerCount: 2
Fore
SplineSet
86 223 m 1,0,-1
 335 531 l 1,1,-1
 86 839 l 1,2,-1
 194 931 l 1,3,-1
 520 531 l 1,4,-1
 194 131 l 1,5,-1
 86 223 l 1,0,-1
EndSplineSet
EndChar

StartChar: guillemotleft
Encoding: 171 171 110
Width: 1237
Flags: W
LayerCount: 2
Fore
SplineSet
883 931 m 1,0,-1
 991 839 l 1,1,-1
 742 531 l 1,2,-1
 991 223 l 1,3,-1
 883 131 l 1,4,-1
 557 531 l 1,5,-1
 883 931 l 1,0,-1
125 531 m 1,6,-1
 451 931 l 1,7,-1
 559 839 l 1,8,-1
 310 531 l 1,9,-1
 559 223 l 1,10,-1
 451 131 l 1,11,-1
 125 531 l 1,6,-1
EndSplineSet
EndChar

StartChar: guillemotright
Encoding: 187 187 111
Width: 1239
Flags: W
LayerCount: 2
Fore
SplineSet
840 531 m 1,0,-1
 591 839 l 1,1,-1
 699 931 l 1,2,-1
 1025 531 l 1,3,-1
 699 131 l 1,4,-1
 591 223 l 1,5,-1
 840 531 l 1,0,-1
407 531 m 1,6,-1
 158 839 l 1,7,-1
 266 931 l 1,8,-1
 592 531 l 1,9,-1
 266 131 l 1,10,-1
 158 223 l 1,11,-1
 407 531 l 1,6,-1
EndSplineSet
EndChar

StartChar: onesuperior
Encoding: 185 185 112
Width: 397
Flags: W
LayerCount: 2
Fore
SplineSet
125 1468 m 1,0,-1
 273 1633 l 1,1,-1
 273 530 l 1,2,-1
 125 530 l 1,3,-1
 125 1468 l 1,0,-1
EndSplineSet
EndChar

StartChar: degree
Encoding: 176 176 113
Width: 725
Flags: W
LayerCount: 2
Fore
SplineSet
362 984 m 256,0,1
 308 984 308 984 262.5 1006 c 128,-1,2
 217 1028 217 1028 184 1069 c 128,-1,3
 151 1110 151 1110 133 1168 c 128,-1,4
 115 1226 115 1226 115 1299 c 256,5,6
 115 1372 115 1372 133 1430 c 128,-1,7
 151 1488 151 1488 184 1529 c 128,-1,8
 217 1570 217 1570 262.5 1592 c 128,-1,9
 308 1614 308 1614 362 1614 c 256,10,11
 416 1614 416 1614 461.5 1592 c 128,-1,12
 507 1570 507 1570 540 1529 c 128,-1,13
 573 1488 573 1488 591 1430 c 128,-1,14
 609 1372 609 1372 609 1299 c 256,15,16
 609 1226 609 1226 591 1168 c 128,-1,17
 573 1110 573 1110 540 1069 c 128,-1,18
 507 1028 507 1028 461.5 1006 c 128,-1,19
 416 984 416 984 362 984 c 256,0,1
362 1119 m 256,20,21
 384 1119 384 1119 403.5 1128.5 c 128,-1,22
 423 1138 423 1138 437 1159.5 c 128,-1,23
 451 1181 451 1181 459.5 1215.5 c 128,-1,24
 468 1250 468 1250 468 1299 c 256,25,26
 468 1348 468 1348 459.5 1382.5 c 128,-1,27
 451 1417 451 1417 437 1438.5 c 128,-1,28
 423 1460 423 1460 403.5 1469.5 c 128,-1,29
 384 1479 384 1479 362 1479 c 256,30,31
 340 1479 340 1479 320.5 1469.5 c 128,-1,32
 301 1460 301 1460 287 1438.5 c 128,-1,33
 273 1417 273 1417 264.5 1382.5 c 128,-1,34
 256 1348 256 1348 256 1299 c 256,35,36
 256 1250 256 1250 264.5 1215.5 c 128,-1,37
 273 1181 273 1181 287 1159.5 c 128,-1,38
 301 1138 301 1138 320.5 1128.5 c 128,-1,39
 340 1119 340 1119 362 1119 c 256,20,21
EndSplineSet
EndChar

StartChar: less
Encoding: 60 60 114
Width: 858
Flags: W
LayerCount: 2
Fore
SplineSet
104 639 m 1,0,-1
 601 1111 l 1,1,-1
 707 993 l 1,2,-1
 327 639 l 1,3,-1
 707 285 l 1,4,-1
 601 167 l 1,5,-1
 104 639 l 1,0,-1
EndSplineSet
EndChar

StartChar: greater
Encoding: 62 62 115
Width: 834
Flags: W
LayerCount: 2
Fore
SplineSet
104 287 m 1,0,-1
 484 641 l 1,1,-1
 104 995 l 1,2,-1
 210 1113 l 1,3,-1
 707 641 l 1,4,-1
 210 169 l 1,5,-1
 104 287 l 1,0,-1
EndSplineSet
EndChar

StartChar: plus
Encoding: 43 43 116
Width: 1061
Flags: W
LayerCount: 2
Fore
SplineSet
451 579 m 1,0,-1
 176 579 l 1,1,-1
 176 730 l 1,2,-1
 451 730 l 1,3,-1
 451 1006 l 1,4,-1
 608 1006 l 1,5,-1
 608 730 l 1,6,-1
 883 730 l 1,7,-1
 883 579 l 1,8,-1
 608 579 l 1,9,-1
 608 304 l 1,10,-1
 451 304 l 1,11,-1
 451 579 l 1,0,-1
EndSplineSet
EndChar

StartChar: plusminus
Encoding: 177 177 117
Width: 1239
Flags: W
LayerCount: 2
Fore
SplineSet
310 730 m 1,0,-1
 585 730 l 1,1,-1
 585 1006 l 1,2,-1
 742 1006 l 1,3,-1
 742 730 l 1,4,-1
 1017 730 l 1,5,-1
 1017 579 l 1,6,-1
 742 579 l 1,7,-1
 742 304 l 1,8,-1
 585 304 l 1,9,-1
 585 579 l 1,10,-1
 310 579 l 1,11,-1
 310 730 l 1,0,-1
264 151 m 1,12,-1
 971 151 l 1,13,-1
 971 0 l 1,14,-1
 264 0 l 1,15,-1
 264 151 l 1,12,-1
EndSplineSet
EndChar

StartChar: equal
Encoding: 61 61 118
Width: 1061
Flags: W
LayerCount: 2
Fore
SplineSet
176 909 m 1,0,-1
 883 909 l 1,1,-1
 883 758 l 1,2,-1
 176 758 l 1,3,-1
 176 909 l 1,0,-1
176 607 m 1,4,-1
 883 607 l 1,5,-1
 883 456 l 1,6,-1
 176 456 l 1,7,-1
 176 607 l 1,4,-1
EndSplineSet
EndChar

StartChar: multiply
Encoding: 215 215 119
Width: 907
Flags: W
LayerCount: 2
Fore
SplineSet
150 460 m 1,0,-1
 345 654 l 1,1,-1
 150 848 l 1,2,-1
 262 960 l 1,3,-1
 456 766 l 1,4,-1
 651 960 l 1,5,-1
 758 853 l 1,6,-1
 563 659 l 1,7,-1
 758 465 l 1,8,-1
 646 353 l 1,9,-1
 452 547 l 1,10,-1
 257 353 l 1,11,-1
 150 460 l 1,0,-1
EndSplineSet
EndChar

StartChar: divide
Encoding: 247 247 120
Width: 567
Flags: W
LayerCount: 2
Fore
SplineSet
284 614 m 0,0,1
 252 614 252 614 226.5 625 c 128,-1,2
 201 636 201 636 183 654 c 128,-1,3
 165 672 165 672 155 696 c 128,-1,4
 145 720 145 720 145 747 c 256,5,6
 145 774 145 774 155 798 c 128,-1,7
 165 822 165 822 183 840.5 c 128,-1,8
 201 859 201 859 226.5 870 c 128,-1,9
 252 881 252 881 284 881 c 0,10,11
 315 881 315 881 341 870 c 128,-1,12
 367 859 367 859 385 840.5 c 128,-1,13
 403 822 403 822 413 798 c 128,-1,14
 423 774 423 774 423 747 c 256,15,16
 423 720 423 720 413 696 c 128,-1,17
 403 672 403 672 385 654 c 128,-1,18
 367 636 367 636 341 625 c 128,-1,19
 315 614 315 614 284 614 c 0,0,1
145 115 m 256,20,21
 145 142 145 142 155 166 c 128,-1,22
 165 190 165 190 183 208.5 c 128,-1,23
 201 227 201 227 226.5 238 c 128,-1,24
 252 249 252 249 284 249 c 0,25,26
 315 249 315 249 341 238 c 128,-1,27
 367 227 367 227 385 208.5 c 128,-1,28
 403 190 403 190 413 166 c 128,-1,29
 423 142 423 142 423 115 c 256,30,31
 423 88 423 88 413 64 c 128,-1,32
 403 40 403 40 385 22 c 128,-1,33
 367 4 367 4 341 -7 c 128,-1,34
 315 -18 315 -18 284 -18 c 0,35,36
 252 -18 252 -18 226.5 -7 c 128,-1,37
 201 4 201 4 183 22 c 128,-1,38
 165 40 165 40 155 64 c 128,-1,39
 145 88 145 88 145 115 c 256,20,21
EndSplineSet
EndChar

StartChar: logicalnot
Encoding: 172 172 121
Width: 1028
Flags: W
LayerCount: 2
Fore
SplineSet
150 699 m 1,0,-1
 878 699 l 1,1,-1
 878 285 l 1,2,-1
 702 285 l 1,3,-1
 702 531 l 1,4,-1
 150 531 l 1,5,-1
 150 699 l 1,0,-1
EndSplineSet
EndChar

StartChar: currency
Encoding: 164 164 122
Width: 1061
Flags: W
LayerCount: 2
Fore
SplineSet
86 388 m 1,0,-1
 228 529 l 1,1,2
 201 571 201 571 186 620 c 128,-1,3
 171 669 171 669 171 723 c 256,4,5
 171 777 171 777 186 826.5 c 128,-1,6
 201 876 201 876 229 918 c 1,7,-1
 87 1060 l 1,8,-1
 195 1167 l 1,9,-1
 336 1025 l 1,10,11
 378 1051 378 1051 426 1066 c 128,-1,12
 474 1081 474 1081 528 1081 c 256,13,14
 582 1081 582 1081 631 1066 c 128,-1,15
 680 1051 680 1051 722 1023 c 1,16,-1
 866 1167 l 1,17,-1
 973 1060 l 1,18,-1
 829 916 l 1,19,20
 856 874 856 874 871 825.5 c 128,-1,21
 886 777 886 777 886 723 c 256,22,23
 886 669 886 669 871 621 c 128,-1,24
 856 573 856 573 830 531 c 1,25,-1
 973 389 l 1,26,-1
 866 282 l 1,27,-1
 723 424 l 1,28,29
 681 396 681 396 631.5 381 c 128,-1,30
 582 366 582 366 528 366 c 256,31,32
 474 366 474 366 425 381 c 128,-1,33
 376 396 376 396 334 423 c 1,34,-1
 193 281 l 1,35,-1
 86 388 l 1,0,-1
528 526 m 0,36,37
 568 526 568 526 604 541.5 c 128,-1,38
 640 557 640 557 667 584 c 128,-1,39
 694 611 694 611 710 646.5 c 128,-1,40
 726 682 726 682 726 723 c 0,41,42
 726 763 726 763 710 799 c 128,-1,43
 694 835 694 835 667 862 c 128,-1,44
 640 889 640 889 604 905 c 128,-1,45
 568 921 568 921 528 921 c 0,46,47
 487 921 487 921 451.5 905 c 128,-1,48
 416 889 416 889 389 862 c 128,-1,49
 362 835 362 835 346.5 799 c 128,-1,50
 331 763 331 763 331 723 c 0,51,52
 331 682 331 682 346.5 646.5 c 128,-1,53
 362 611 362 611 389 584 c 128,-1,54
 416 557 416 557 451.5 541.5 c 128,-1,55
 487 526 487 526 528 526 c 0,36,37
EndSplineSet
EndChar

StartChar: registered
Encoding: 174 174 123
Width: 1368
Flags: W
LayerCount: 2
Fore
SplineSet
685 -19 m 256,0,1
 571 -19 571 -19 468.5 31 c 128,-1,2
 366 81 366 81 288.5 182 c 128,-1,3
 211 283 211 283 166 436 c 128,-1,4
 121 589 121 589 121 796 c 256,5,6
 121 1003 121 1003 166 1156 c 128,-1,7
 211 1309 211 1309 288.5 1410 c 128,-1,8
 366 1511 366 1511 468.5 1561 c 128,-1,9
 571 1611 571 1611 685 1611 c 256,10,11
 799 1611 799 1611 901.5 1561 c 128,-1,12
 1004 1511 1004 1511 1081.5 1410 c 128,-1,13
 1159 1309 1159 1309 1204 1156 c 128,-1,14
 1249 1003 1249 1003 1249 796 c 256,15,16
 1249 589 1249 589 1204 436 c 128,-1,17
 1159 283 1159 283 1081.5 182 c 128,-1,18
 1004 81 1004 81 901.5 31 c 128,-1,19
 799 -19 799 -19 685 -19 c 256,0,1
685 119 m 256,20,21
 765 119 765 119 840.5 157 c 128,-1,22
 916 195 916 195 975 277 c 128,-1,23
 1034 359 1034 359 1070 488 c 128,-1,24
 1106 617 1106 617 1106 798 c 256,25,26
 1106 979 1106 979 1070 1107 c 128,-1,27
 1034 1235 1034 1235 975.5 1316.5 c 128,-1,28
 917 1398 917 1398 841 1435.5 c 128,-1,29
 765 1473 765 1473 686 1473 c 0,30,31
 606 1473 606 1473 530 1434.5 c 128,-1,32
 454 1396 454 1396 395 1314.5 c 128,-1,33
 336 1233 336 1233 300 1104.5 c 128,-1,34
 264 976 264 976 264 796 c 256,35,36
 264 616 264 616 300 487.5 c 128,-1,37
 336 359 336 359 395 277.5 c 128,-1,38
 454 196 454 196 529.5 157.5 c 128,-1,39
 605 119 605 119 685 119 c 256,20,21
495 1259 m 1,40,41
 602 1259 602 1259 678 1235.5 c 128,-1,42
 754 1212 754 1212 802.5 1171.5 c 128,-1,43
 851 1131 851 1131 873.5 1076.5 c 128,-1,44
 896 1022 896 1022 896 960 c 0,45,46
 896 888 896 888 867.5 831 c 128,-1,47
 839 774 839 774 785 732 c 1,48,-1
 943 384 l 1,49,-1
 796 384 l 1,50,-1
 674 673 l 1,51,52
 649 664 649 664 625 658 c 1,53,-1
 625 384 l 1,54,-1
 495 384 l 1,55,-1
 495 1259 l 1,40,41
625 786 m 1,56,57
 695 807 695 807 728.5 849.5 c 128,-1,58
 762 892 762 892 762 955 c 0,59,60
 762 1021 762 1021 726.5 1067.5 c 128,-1,61
 691 1114 691 1114 625 1126 c 1,62,-1
 625 786 l 1,56,57
EndSplineSet
EndChar

StartChar: underscore
Encoding: 95 95 124
Width: 1050
Flags: W
LayerCount: 2
Fore
SplineSet
1100 -205 m 1,0,-1
 1100 -353 l 1,1,-1
 -50 -353 l 1,2,-1
 -50 -205 l 1,3,-1
 1100 -205 l 1,0,-1
EndSplineSet
EndChar

StartChar: ordmasculine
Encoding: 186 186 125
Width: 666
Flags: W
LayerCount: 2
Fore
SplineSet
334 884 m 256,0,1
 285 884 285 884 240 907 c 128,-1,2
 195 930 195 930 161 975.5 c 128,-1,3
 127 1021 127 1021 106.5 1089.5 c 128,-1,4
 86 1158 86 1158 86 1249 c 256,5,6
 86 1340 86 1340 106.5 1408 c 128,-1,7
 127 1476 127 1476 161 1521.5 c 128,-1,8
 195 1567 195 1567 240 1589.5 c 128,-1,9
 285 1612 285 1612 334 1612 c 256,10,11
 383 1612 383 1612 427.5 1589.5 c 128,-1,12
 472 1567 472 1567 506.5 1521.5 c 128,-1,13
 541 1476 541 1476 561.5 1408 c 128,-1,14
 582 1340 582 1340 582 1249 c 256,15,16
 582 1158 582 1158 561.5 1089.5 c 128,-1,17
 541 1021 541 1021 506.5 975.5 c 128,-1,18
 472 930 472 930 427.5 907 c 128,-1,19
 383 884 383 884 334 884 c 256,0,1
334 1022 m 256,20,21
 353 1022 353 1022 372.5 1034 c 128,-1,22
 392 1046 392 1046 407.5 1072.5 c 128,-1,23
 423 1099 423 1099 432.5 1142.5 c 128,-1,24
 442 1186 442 1186 442 1249 c 256,25,26
 442 1312 442 1312 432.5 1355 c 128,-1,27
 423 1398 423 1398 407.5 1424.5 c 128,-1,28
 392 1451 392 1451 372.5 1462.5 c 128,-1,29
 353 1474 353 1474 334 1474 c 256,30,31
 315 1474 315 1474 296 1462.5 c 128,-1,32
 277 1451 277 1451 261.5 1424.5 c 128,-1,33
 246 1398 246 1398 236.5 1355 c 128,-1,34
 227 1312 227 1312 227 1249 c 256,35,36
 227 1186 227 1186 236.5 1142.5 c 128,-1,37
 246 1099 246 1099 261.5 1072.5 c 128,-1,38
 277 1046 277 1046 296 1034 c 128,-1,39
 315 1022 315 1022 334 1022 c 256,20,21
EndSplineSet
EndChar

StartChar: threequarters
Encoding: 190 190 126
Width: 1942
Flags: W
LayerCount: 2
Fore
SplineSet
1272 1612 m 1,0,-1
 1406 1549 l 1,1,-1
 663 -33 l 1,2,-1
 529 30 l 1,3,-1
 1272 1612 l 1,0,-1
232 683 m 1,4,5
 264 666 264 666 300 658.5 c 128,-1,6
 336 651 336 651 368 651 c 0,7,8
 455 651 455 651 501.5 701 c 128,-1,9
 548 751 548 751 548 833 c 0,10,11
 548 877 548 877 534.5 912.5 c 128,-1,12
 521 948 521 948 497 973 c 128,-1,13
 473 998 473 998 439.5 1011.5 c 128,-1,14
 406 1025 406 1025 366 1025 c 0,15,16
 359 1025 359 1025 347.5 1024.5 c 128,-1,17
 336 1024 336 1024 322.5 1022 c 128,-1,18
 309 1020 309 1020 295 1016.5 c 128,-1,19
 281 1013 281 1013 270 1007 c 1,20,-1
 467 1449 l 1,21,-1
 236 1449 l 1,22,-1
 236 1593 l 1,23,-1
 686 1593 l 1,24,-1
 487 1146 l 1,25,26
 543 1125 543 1125 584 1092.5 c 128,-1,27
 625 1060 625 1060 652 1019.5 c 128,-1,28
 679 979 679 979 692.5 932.5 c 128,-1,29
 706 886 706 886 706 836 c 0,30,31
 706 769 706 769 684.5 709.5 c 128,-1,32
 663 650 663 650 621 606 c 128,-1,33
 579 562 579 562 518.5 536 c 128,-1,34
 458 510 458 510 380 510 c 0,35,36
 318 510 318 510 264 525 c 128,-1,37
 210 540 210 540 175 560 c 1,38,-1
 232 683 l 1,4,5
1383 1062 m 1,39,-1
 1533 1062 l 1,40,-1
 1354 394 l 1,41,-1
 1527 394 l 1,42,-1
 1527 616 l 1,43,-1
 1675 781 l 1,44,-1
 1675 394 l 1,45,-1
 1792 394 l 1,46,-1
 1792 250 l 1,47,-1
 1675 250 l 1,48,-1
 1675 0 l 1,49,-1
 1527 0 l 1,50,-1
 1527 250 l 1,51,-1
 1163 250 l 1,52,-1
 1383 1062 l 1,39,-1
EndSplineSet
EndChar

StartChar: onehalf
Encoding: 189 189 127
Width: 1640
Flags: W
LayerCount: 2
Fore
SplineSet
150 1468 m 1,0,-1
 298 1633 l 1,1,-1
 298 530 l 1,2,-1
 150 530 l 1,3,-1
 150 1468 l 1,0,-1
958 1612 m 1,4,-1
 1092 1549 l 1,5,-1
 349 -33 l 1,6,-1
 215 30 l 1,7,-1
 958 1612 l 1,4,-1
1252 618 m 2,8,9
 1288 693 1288 693 1303.5 747 c 128,-1,10
 1319 801 1319 801 1319 831 c 0,11,12
 1319 854 1319 854 1311 875 c 128,-1,13
 1303 896 1303 896 1287 911.5 c 128,-1,14
 1271 927 1271 927 1247 936 c 128,-1,15
 1223 945 1223 945 1192 945 c 0,16,17
 1160 945 1160 945 1127.5 932 c 128,-1,18
 1095 919 1095 919 1056 887 c 1,19,-1
 985 1004 l 1,20,21
 1035 1045 1035 1045 1092 1065 c 128,-1,22
 1149 1085 1149 1085 1207 1085 c 0,23,24
 1270 1085 1270 1085 1320 1065.5 c 128,-1,25
 1370 1046 1370 1046 1405 1012 c 128,-1,26
 1440 978 1440 978 1458.5 932 c 128,-1,27
 1477 886 1477 886 1477 834 c 0,28,29
 1477 806 1477 806 1471.5 776.5 c 128,-1,30
 1466 747 1466 747 1454 711.5 c 128,-1,31
 1442 676 1442 676 1423.5 633.5 c 128,-1,32
 1405 591 1405 591 1379 537 c 2,33,-1
 1190 146 l 1,34,-1
 1490 146 l 1,35,-1
 1490 2 l 1,36,-1
 958 2 l 1,37,-1
 1252 618 l 2,8,9
EndSplineSet
EndChar

StartChar: onequarter
Encoding: 188 188 128
Width: 1642
Flags: W
LayerCount: 2
Fore
SplineSet
150 1469 m 1,0,-1
 298 1634 l 1,1,-1
 298 531 l 1,2,-1
 150 531 l 1,3,-1
 150 1469 l 1,0,-1
948 1612 m 1,4,-1
 1082 1549 l 1,5,-1
 339 -33 l 1,6,-1
 205 30 l 1,7,-1
 948 1612 l 1,4,-1
1059 1062 m 1,8,-1
 1209 1062 l 1,9,-1
 1030 394 l 1,10,-1
 1203 394 l 1,11,-1
 1203 616 l 1,12,-1
 1351 781 l 1,13,-1
 1351 394 l 1,14,-1
 1468 394 l 1,15,-1
 1468 250 l 1,16,-1
 1351 250 l 1,17,-1
 1351 0 l 1,18,-1
 1203 0 l 1,19,-1
 1203 250 l 1,20,-1
 839 250 l 1,21,-1
 1059 1062 l 1,8,-1
EndSplineSet
EndChar

StartChar: twosuperior
Encoding: 178 178 129
Width: 782
Flags: W
LayerCount: 2
Fore
SplineSet
419 1145 m 2,0,1
 455 1220 455 1220 470.5 1274 c 128,-1,2
 486 1328 486 1328 486 1358 c 0,3,4
 486 1381 486 1381 478 1402 c 128,-1,5
 470 1423 470 1423 454 1438.5 c 128,-1,6
 438 1454 438 1454 414 1463 c 128,-1,7
 390 1472 390 1472 359 1472 c 0,8,9
 327 1472 327 1472 294.5 1459 c 128,-1,10
 262 1446 262 1446 223 1414 c 1,11,-1
 152 1531 l 1,12,13
 202 1572 202 1572 259 1592 c 128,-1,14
 316 1612 316 1612 374 1612 c 0,15,16
 437 1612 437 1612 487 1592.5 c 128,-1,17
 537 1573 537 1573 572 1539 c 128,-1,18
 607 1505 607 1505 625.5 1459 c 128,-1,19
 644 1413 644 1413 644 1361 c 0,20,21
 644 1333 644 1333 638.5 1303.5 c 128,-1,22
 633 1274 633 1274 621 1238.5 c 128,-1,23
 609 1203 609 1203 590.5 1160.5 c 128,-1,24
 572 1118 572 1118 546 1064 c 2,25,-1
 357 673 l 1,26,-1
 657 673 l 1,27,-1
 657 529 l 1,28,-1
 125 529 l 1,29,-1
 419 1145 l 2,0,1
EndSplineSet
EndChar

StartChar: threesuperior
Encoding: 179 179 130
Width: 780
Flags: W
LayerCount: 2
Fore
SplineSet
182 683 m 1,0,1
 214 666 214 666 250 658.5 c 128,-1,2
 286 651 286 651 318 651 c 0,3,4
 405 651 405 651 451.5 701 c 128,-1,5
 498 751 498 751 498 833 c 0,6,7
 498 877 498 877 484.5 912.5 c 128,-1,8
 471 948 471 948 447 973 c 128,-1,9
 423 998 423 998 389.5 1011.5 c 128,-1,10
 356 1025 356 1025 316 1025 c 0,11,12
 309 1025 309 1025 297.5 1024.5 c 128,-1,13
 286 1024 286 1024 272.5 1022 c 128,-1,14
 259 1020 259 1020 245 1016.5 c 128,-1,15
 231 1013 231 1013 220 1007 c 1,16,-1
 417 1449 l 1,17,-1
 186 1449 l 1,18,-1
 186 1593 l 1,19,-1
 636 1593 l 1,20,-1
 437 1146 l 1,21,22
 493 1125 493 1125 534 1092.5 c 128,-1,23
 575 1060 575 1060 602 1019.5 c 128,-1,24
 629 979 629 979 642.5 932.5 c 128,-1,25
 656 886 656 886 656 836 c 0,26,27
 656 769 656 769 634.5 709.5 c 128,-1,28
 613 650 613 650 571 606 c 128,-1,29
 529 562 529 562 468.5 536 c 128,-1,30
 408 510 408 510 330 510 c 0,31,32
 268 510 268 510 214 525 c 128,-1,33
 160 540 160 540 125 560 c 1,34,-1
 182 683 l 1,0,1
EndSplineSet
EndChar

StartChar: section
Encoding: 167 167 131
Width: 995
Flags: W
LayerCount: 2
Fore
SplineSet
236 -96 m 1,0,1
 285 -125 285 -125 338.5 -148 c 128,-1,2
 392 -171 392 -171 454 -171 c 0,3,4
 500 -171 500 -171 537 -157 c 128,-1,5
 574 -143 574 -143 599.5 -118 c 128,-1,6
 625 -93 625 -93 639 -57.5 c 128,-1,7
 653 -22 653 -22 653 20 c 0,8,9
 653 58 653 58 640.5 91.5 c 128,-1,10
 628 125 628 125 604 157.5 c 128,-1,11
 580 190 580 190 545.5 223.5 c 128,-1,12
 511 257 511 257 468 296 c 2,13,-1
 338 413 l 2,14,15
 269 476 269 476 225.5 554 c 128,-1,16
 182 632 182 632 182 730 c 0,17,18
 182 802 182 802 212 871.5 c 128,-1,19
 242 941 242 941 299 991 c 1,20,21
 245 1048 245 1048 213.5 1117 c 128,-1,22
 182 1186 182 1186 182 1270 c 0,23,24
 182 1344 182 1344 206 1407.5 c 128,-1,25
 230 1471 230 1471 276 1517.5 c 128,-1,26
 322 1564 322 1564 387.5 1590 c 128,-1,27
 453 1616 453 1616 536 1616 c 0,28,29
 602 1616 602 1616 669 1598.5 c 128,-1,30
 736 1581 736 1581 800 1543 c 1,31,-1
 720 1388 l 1,32,33
 685 1409 685 1409 644.5 1424.5 c 128,-1,34
 604 1440 604 1440 556 1440 c 0,35,36
 514 1440 514 1440 480.5 1427 c 128,-1,37
 447 1414 447 1414 423.5 1391.5 c 128,-1,38
 400 1369 400 1369 387.5 1338 c 128,-1,39
 375 1307 375 1307 375 1271 c 0,40,41
 375 1252 375 1252 379.5 1230.5 c 128,-1,42
 384 1209 384 1209 398 1183 c 128,-1,43
 412 1157 412 1157 438 1126 c 128,-1,44
 464 1095 464 1095 506 1058 c 2,45,-1
 642 939 l 2,46,47
 690 897 690 897 728 854 c 128,-1,48
 766 811 766 811 792.5 764.5 c 128,-1,49
 819 718 819 718 832.5 667.5 c 128,-1,50
 846 617 846 617 846 560 c 0,51,52
 846 494 846 494 817 425 c 128,-1,53
 788 356 788 356 737 302 c 1,54,55
 790 239 790 239 818 171 c 128,-1,56
 846 103 846 103 846 20 c 0,57,58
 846 -66 846 -66 816.5 -135 c 128,-1,59
 787 -204 787 -204 734.5 -253 c 128,-1,60
 682 -302 682 -302 610.5 -328 c 128,-1,61
 539 -354 539 -354 455 -354 c 0,62,63
 368 -354 368 -354 288 -328 c 128,-1,64
 208 -302 208 -302 150 -262 c 1,65,-1
 236 -96 l 1,0,1
610 427 m 1,66,67
 630 453 630 453 641.5 486.5 c 128,-1,68
 653 520 653 520 653 560 c 0,69,70
 653 598 653 598 640.5 631.5 c 128,-1,71
 628 665 628 665 604 697.5 c 128,-1,72
 580 730 580 730 545.5 763.5 c 128,-1,73
 511 797 511 797 468 836 c 2,74,-1
 432 868 l 1,75,76
 404 844 404 844 389.5 808.5 c 128,-1,77
 375 773 375 773 375 731 c 0,78,79
 375 712 375 712 379.5 690.5 c 128,-1,80
 384 669 384 669 398 643 c 128,-1,81
 412 617 412 617 438 586 c 128,-1,82
 464 555 464 555 506 518 c 2,83,-1
 610 427 l 1,66,67
EndSplineSet
EndChar

StartChar: eth
Encoding: 240 240 132
Width: 927
Flags: W
LayerCount: 2
Fore
SplineSet
456 -19 m 0,0,1
 378 -19 378 -19 310.5 13 c 128,-1,2
 243 45 243 45 193 108.5 c 128,-1,3
 143 172 143 172 114.5 267.5 c 128,-1,4
 86 363 86 363 86 491 c 0,5,6
 86 616 86 616 116.5 710 c 128,-1,7
 147 804 147 804 197 866.5 c 128,-1,8
 247 929 247 929 311 960.5 c 128,-1,9
 375 992 375 992 443 992 c 0,10,11
 472 992 472 992 494.5 989 c 128,-1,12
 517 986 517 986 537 978.5 c 128,-1,13
 557 971 557 971 576.5 959 c 128,-1,14
 596 947 596 947 619 930 c 1,15,16
 612 995 612 995 586.5 1068 c 128,-1,17
 561 1141 561 1141 519 1214 c 1,18,-1
 359 1106 l 1,19,-1
 276 1225 l 1,20,-1
 438 1334 l 1,21,22
 375 1414 375 1414 299 1475 c 1,23,-1
 382 1612 l 1,24,25
 489 1532 489 1532 573 1425 c 1,26,-1
 747 1543 l 1,27,-1
 831 1424 l 1,28,-1
 655 1305 l 1,29,30
 749 1147 749 1147 795 964.5 c 128,-1,31
 841 782 841 782 841 590 c 0,32,33
 841 437 841 437 814 323 c 128,-1,34
 787 209 787 209 737 133 c 128,-1,35
 687 57 687 57 616 19 c 128,-1,36
 545 -19 545 -19 456 -19 c 0,0,1
456 153 m 256,37,38
 490 153 490 153 523.5 170 c 128,-1,39
 557 187 557 187 584 227 c 128,-1,40
 611 267 611 267 627.5 331.5 c 128,-1,41
 644 396 644 396 644 491 c 0,42,43
 644 581 644 581 628.5 643.5 c 128,-1,44
 613 706 613 706 587 745 c 128,-1,45
 561 784 561 784 527 801.5 c 128,-1,46
 493 819 493 819 456 819 c 0,47,48
 422 819 422 819 388.5 802 c 128,-1,49
 355 785 355 785 328 746.5 c 128,-1,50
 301 708 301 708 284.5 645.5 c 128,-1,51
 268 583 268 583 268 491 c 0,52,53
 268 396 268 396 284.5 331.5 c 128,-1,54
 301 267 301 267 328 227 c 128,-1,55
 355 187 355 187 388.5 170 c 128,-1,56
 422 153 422 153 456 153 c 256,37,38
EndSplineSet
EndChar

StartChar: Eth
Encoding: 208 208 133
Width: 987
Flags: W
LayerCount: 2
Fore
SplineSet
170 716 m 1,0,-1
 60 716 l 1,1,-1
 60 884 l 1,2,-1
 170 884 l 1,3,-1
 170 1611 l 1,4,5
 335 1602 335 1602 469 1543 c 128,-1,6
 603 1484 603 1484 698.5 1380 c 128,-1,7
 794 1276 794 1276 846 1129 c 128,-1,8
 898 982 898 982 898 796 c 256,9,10
 898 610 898 610 846 463 c 128,-1,11
 794 316 794 316 698.5 212 c 128,-1,12
 603 108 603 108 469 49 c 128,-1,13
 335 -10 335 -10 170 -19 c 1,14,-1
 170 716 l 1,0,-1
356 197 m 1,15,16
 420 217 420 217 482.5 261 c 128,-1,17
 545 305 545 305 594.5 377 c 128,-1,18
 644 449 644 449 674.5 552.5 c 128,-1,19
 705 656 705 656 705 796 c 256,20,21
 705 936 705 936 674.5 1039.5 c 128,-1,22
 644 1143 644 1143 594.5 1215 c 128,-1,23
 545 1287 545 1287 482.5 1331 c 128,-1,24
 420 1375 420 1375 356 1395 c 1,25,-1
 356 884 l 1,26,-1
 507 884 l 1,27,-1
 507 716 l 1,28,-1
 356 716 l 1,29,-1
 356 197 l 1,15,16
EndSplineSet
EndChar

StartChar: Thorn
Encoding: 222 222 134
Width: 973
Flags: W
LayerCount: 2
Fore
SplineSet
166 1593 m 1,0,-1
 352 1593 l 1,1,-1
 352 1369 l 1,2,3
 476 1352 476 1352 567.5 1304 c 128,-1,4
 659 1256 659 1256 719.5 1183 c 128,-1,5
 780 1110 780 1110 809.5 1014 c 128,-1,6
 839 918 839 918 839 805 c 256,7,8
 839 692 839 692 809.5 596 c 128,-1,9
 780 500 780 500 719.5 426.5 c 128,-1,10
 659 353 659 353 567.5 305 c 128,-1,11
 476 257 476 257 352 240 c 1,12,-1
 352 0 l 1,13,-1
 166 0 l 1,14,-1
 166 1593 l 1,0,-1
352 429 m 1,15,16
 416 435 416 435 470 460.5 c 128,-1,17
 524 486 524 486 563 533 c 128,-1,18
 602 580 602 580 624 647.5 c 128,-1,19
 646 715 646 715 646 805 c 256,20,21
 646 895 646 895 624 962.5 c 128,-1,22
 602 1030 602 1030 563 1077 c 128,-1,23
 524 1124 524 1124 470 1149.5 c 128,-1,24
 416 1175 416 1175 352 1181 c 1,25,-1
 352 429 l 1,15,16
EndSplineSet
EndChar

StartChar: thorn
Encoding: 254 254 135
Width: 960
Flags: W
LayerCount: 2
Fore
SplineSet
337 -354 m 1,0,-1
 139 -354 l 1,1,-1
 139 1593 l 1,2,-1
 317 1593 l 1,3,-1
 317 1030 l 1,4,5
 352 1055 352 1055 393 1068 c 128,-1,6
 434 1081 434 1081 480 1081 c 0,7,8
 557 1081 557 1081 626.5 1049 c 128,-1,9
 696 1017 696 1017 748 950 c 128,-1,10
 800 883 800 883 830.5 779 c 128,-1,11
 861 675 861 675 861 531 c 256,12,13
 861 387 861 387 830.5 283 c 128,-1,14
 800 179 800 179 748 112 c 128,-1,15
 696 45 696 45 626.5 13 c 128,-1,16
 557 -19 557 -19 480 -19 c 0,17,18
 441 -19 441 -19 405 -9 c 128,-1,19
 369 1 369 1 337 19 c 1,20,-1
 337 -354 l 1,0,-1
337 199 m 1,21,22
 363 175 363 175 396.5 162 c 128,-1,23
 430 149 430 149 468 149 c 0,24,25
 509 149 509 149 547 167 c 128,-1,26
 585 185 585 185 614.5 228.5 c 128,-1,27
 644 272 644 272 662 345.5 c 128,-1,28
 680 419 680 419 680 531 c 256,29,30
 680 643 680 643 662 716.5 c 128,-1,31
 644 790 644 790 614.5 833.5 c 128,-1,32
 585 877 585 877 547 895 c 128,-1,33
 509 913 509 913 468 913 c 0,34,35
 391 913 391 913 337 862 c 1,36,-1
 337 199 l 1,21,22
EndSplineSet
EndChar

StartChar: IJ
Encoding: 306 306 136
Width: 1011
Flags: W
LayerCount: 2
Fore
SplineSet
171 156 m 1,0,1
 306 204 306 204 398.5 269 c 128,-1,2
 491 334 491 334 548 414.5 c 128,-1,3
 605 495 605 495 630 591 c 128,-1,4
 655 687 655 687 655 797 c 2,5,-1
 655 1593 l 1,6,-1
 841 1593 l 1,7,-1
 841 798 l 2,8,9
 841 619 841 619 793.5 483 c 128,-1,10
 746 347 746 347 659 248 c 128,-1,11
 572 149 572 149 448 84 c 128,-1,12
 324 19 324 19 171 -18 c 1,13,-1
 171 156 l 1,0,1
170 1593 m 1,14,-1
 356 1593 l 1,15,-1
 356 480 l 1,16,-1
 170 480 l 1,17,-1
 170 1593 l 1,14,-1
EndSplineSet
EndChar

StartChar: acute
Encoding: 180 180 137
Width: 668
Flags: W
LayerCount: 2
Fore
SplineSet
94 1329 m 1,0,-1
 473 1631 l 1,1,-1
 572 1508 l 1,2,-1
 193 1206 l 1,3,-1
 94 1329 l 1,0,-1
EndSplineSet
EndChar

StartChar: aacute
Encoding: 225 225 138
Width: 879
Flags: W
LayerCount: 2
Fore
SplineSet
141 1329 m 1,0,-1
 520 1631 l 1,1,-1
 619 1508 l 1,2,-1
 240 1206 l 1,3,-1
 141 1329 l 1,0,-1
104 332 m 0,4,5
 104 494 104 494 218.5 587 c 128,-1,6
 333 680 333 680 556 691 c 1,7,-1
 556 712 l 2,8,9
 556 806 556 806 511.5 859 c 128,-1,10
 467 912 467 912 390 912 c 0,11,12
 350 912 350 912 307.5 897.5 c 128,-1,13
 265 883 265 883 223 859 c 1,14,-1
 155 1019 l 1,15,16
 218 1051 218 1051 287 1066 c 128,-1,17
 356 1081 356 1081 412 1081 c 0,18,19
 484 1081 484 1081 543 1056 c 128,-1,20
 602 1031 602 1031 644 984.5 c 128,-1,21
 686 938 686 938 709 871 c 128,-1,22
 732 804 732 804 732 719 c 2,23,-1
 732 -19 l 1,24,-1
 601 45 l 1,25,26
 563 15 563 15 516.5 -2 c 128,-1,27
 470 -19 470 -19 416 -19 c 0,28,29
 348 -19 348 -19 290.5 8.5 c 128,-1,30
 233 36 233 36 191.5 83 c 128,-1,31
 150 130 150 130 127 194 c 128,-1,32
 104 258 104 258 104 332 c 0,4,5
285 329 m 0,33,34
 285 292 285 292 296 260.5 c 128,-1,35
 307 229 307 229 327 205.5 c 128,-1,36
 347 182 347 182 375 169 c 128,-1,37
 403 156 403 156 437 156 c 0,38,39
 472 156 472 156 504 169 c 128,-1,40
 536 182 536 182 556 202 c 1,41,-1
 556 531 l 1,42,43
 492 532 492 532 442 518.5 c 128,-1,44
 392 505 392 505 357 478.5 c 128,-1,45
 322 452 322 452 303.5 414.5 c 128,-1,46
 285 377 285 377 285 329 c 0,33,34
EndSplineSet
EndChar

StartChar: grave
Encoding: 96 96 139
Width: 668
Flags: W
LayerCount: 2
Fore
SplineSet
94 1508 m 1,0,-1
 193 1631 l 1,1,-1
 572 1329 l 1,2,-1
 473 1206 l 1,3,-1
 94 1508 l 1,0,-1
EndSplineSet
EndChar

StartChar: agrave
Encoding: 224 224 140
Width: 879
Flags: W
LayerCount: 2
Fore
SplineSet
173 1508 m 1,0,-1
 272 1631 l 1,1,-1
 651 1329 l 1,2,-1
 552 1206 l 1,3,-1
 173 1508 l 1,0,-1
104 332 m 0,4,5
 104 494 104 494 218.5 587 c 128,-1,6
 333 680 333 680 556 691 c 1,7,-1
 556 712 l 2,8,9
 556 806 556 806 511.5 859 c 128,-1,10
 467 912 467 912 390 912 c 0,11,12
 350 912 350 912 307.5 897.5 c 128,-1,13
 265 883 265 883 223 859 c 1,14,-1
 155 1019 l 1,15,16
 218 1051 218 1051 287 1066 c 128,-1,17
 356 1081 356 1081 412 1081 c 0,18,19
 484 1081 484 1081 543 1056 c 128,-1,20
 602 1031 602 1031 644 984.5 c 128,-1,21
 686 938 686 938 709 871 c 128,-1,22
 732 804 732 804 732 719 c 2,23,-1
 732 -19 l 1,24,-1
 601 45 l 1,25,26
 563 15 563 15 516.5 -2 c 128,-1,27
 470 -19 470 -19 416 -19 c 0,28,29
 348 -19 348 -19 290.5 8.5 c 128,-1,30
 233 36 233 36 191.5 83 c 128,-1,31
 150 130 150 130 127 194 c 128,-1,32
 104 258 104 258 104 332 c 0,4,5
285 329 m 0,33,34
 285 292 285 292 296 260.5 c 128,-1,35
 307 229 307 229 327 205.5 c 128,-1,36
 347 182 347 182 375 169 c 128,-1,37
 403 156 403 156 437 156 c 0,38,39
 472 156 472 156 504 169 c 128,-1,40
 536 182 536 182 556 202 c 1,41,-1
 556 531 l 1,42,43
 492 532 492 532 442 518.5 c 128,-1,44
 392 505 392 505 357 478.5 c 128,-1,45
 322 452 322 452 303.5 414.5 c 128,-1,46
 285 377 285 377 285 329 c 0,33,34
EndSplineSet
EndChar

StartChar: eacute
Encoding: 233 233 141
Width: 862
Flags: W
LayerCount: 2
Fore
SplineSet
195 1329 m 1,0,-1
 574 1631 l 1,1,-1
 673 1508 l 1,2,-1
 294 1206 l 1,3,-1
 195 1329 l 1,0,-1
488 -19 m 0,4,5
 402 -19 402 -19 329.5 18.5 c 128,-1,6
 257 56 257 56 203.5 127.5 c 128,-1,7
 150 199 150 199 120 302.5 c 128,-1,8
 90 406 90 406 90 538 c 0,9,10
 90 673 90 673 121 775 c 128,-1,11
 152 877 152 877 204.5 945 c 128,-1,12
 257 1013 257 1013 325.5 1047 c 128,-1,13
 394 1081 394 1081 468 1081 c 0,14,15
 554 1081 554 1081 619 1036.5 c 128,-1,16
 684 992 684 992 722 910 c 128,-1,17
 760 828 760 828 769 712.5 c 128,-1,18
 778 597 778 597 753 455 c 1,19,-1
 275 456 l 1,20,21
 283 370 283 370 306.5 311.5 c 128,-1,22
 330 253 330 253 362.5 217 c 128,-1,23
 395 181 395 181 433 165.5 c 128,-1,24
 471 150 471 150 509 150 c 0,25,26
 532 150 532 150 555.5 155 c 128,-1,27
 579 160 579 160 600.5 168 c 128,-1,28
 622 176 622 176 640 186 c 128,-1,29
 658 196 658 196 670 205 c 1,30,-1
 738 53 l 1,31,32
 716 39 716 39 687 26 c 128,-1,33
 658 13 658 13 625.5 3 c 128,-1,34
 593 -7 593 -7 557.5 -13 c 128,-1,35
 522 -19 522 -19 488 -19 c 0,4,5
589 623 m 1,36,37
 594 707 594 707 585.5 761.5 c 128,-1,38
 577 816 577 816 559.5 848.5 c 128,-1,39
 542 881 542 881 517 893.5 c 128,-1,40
 492 906 492 906 464 906 c 0,41,42
 392 906 392 906 340.5 834.5 c 128,-1,43
 289 763 289 763 276 623 c 1,44,-1
 589 623 l 1,36,37
EndSplineSet
EndChar

StartChar: egrave
Encoding: 232 232 142
Width: 862
Flags: W
LayerCount: 2
Fore
SplineSet
237 1508 m 1,0,-1
 336 1631 l 1,1,-1
 715 1329 l 1,2,-1
 616 1206 l 1,3,-1
 237 1508 l 1,0,-1
488 -19 m 0,4,5
 402 -19 402 -19 329.5 18.5 c 128,-1,6
 257 56 257 56 203.5 127.5 c 128,-1,7
 150 199 150 199 120 302.5 c 128,-1,8
 90 406 90 406 90 538 c 0,9,10
 90 673 90 673 121 775 c 128,-1,11
 152 877 152 877 204.5 945 c 128,-1,12
 257 1013 257 1013 325.5 1047 c 128,-1,13
 394 1081 394 1081 468 1081 c 0,14,15
 554 1081 554 1081 619 1036.5 c 128,-1,16
 684 992 684 992 722 910 c 128,-1,17
 760 828 760 828 769 712.5 c 128,-1,18
 778 597 778 597 753 455 c 1,19,-1
 275 456 l 1,20,21
 283 370 283 370 306.5 311.5 c 128,-1,22
 330 253 330 253 362.5 217 c 128,-1,23
 395 181 395 181 433 165.5 c 128,-1,24
 471 150 471 150 509 150 c 0,25,26
 532 150 532 150 555.5 155 c 128,-1,27
 579 160 579 160 600.5 168 c 128,-1,28
 622 176 622 176 640 186 c 128,-1,29
 658 196 658 196 670 205 c 1,30,-1
 738 53 l 1,31,32
 716 39 716 39 687 26 c 128,-1,33
 658 13 658 13 625.5 3 c 128,-1,34
 593 -7 593 -7 557.5 -13 c 128,-1,35
 522 -19 522 -19 488 -19 c 0,4,5
589 623 m 1,36,37
 594 707 594 707 585.5 761.5 c 128,-1,38
 577 816 577 816 559.5 848.5 c 128,-1,39
 542 881 542 881 517 893.5 c 128,-1,40
 492 906 492 906 464 906 c 0,41,42
 392 906 392 906 340.5 834.5 c 128,-1,43
 289 763 289 763 276 623 c 1,44,-1
 589 623 l 1,36,37
EndSplineSet
EndChar

StartChar: igrave
Encoding: 236 236 143
Width: 528
Flags: W
LayerCount: 2
Fore
SplineSet
55 1508 m 1,0,-1
 154 1631 l 1,1,-1
 533 1329 l 1,2,-1
 434 1206 l 1,3,-1
 55 1508 l 1,0,-1
169 1062 m 1,4,-1
 347 1062 l 1,5,-1
 347 0 l 1,6,-1
 169 0 l 1,7,-1
 169 1062 l 1,4,-1
EndSplineSet
EndChar

StartChar: iacute
Encoding: 237 237 144
Width: 528
Flags: W
LayerCount: 2
Fore
SplineSet
4 1329 m 1,0,-1
 383 1631 l 1,1,-1
 482 1508 l 1,2,-1
 103 1206 l 1,3,-1
 4 1329 l 1,0,-1
169 1062 m 1,4,-1
 347 1062 l 1,5,-1
 347 0 l 1,6,-1
 169 0 l 1,7,-1
 169 1062 l 1,4,-1
EndSplineSet
EndChar

StartChar: uacute
Encoding: 250 250 145
Width: 981
Flags: W
LayerCount: 2
Fore
SplineSet
238 1329 m 1,0,-1
 617 1631 l 1,1,-1
 716 1508 l 1,2,-1
 337 1206 l 1,3,-1
 238 1329 l 1,0,-1
145 1062 m 1,4,-1
 323 1062 l 1,5,-1
 323 370 l 2,6,7
 323 161 323 161 486 161 c 0,8,9
 541 161 541 161 584.5 183.5 c 128,-1,10
 628 206 628 206 658 245 c 1,11,-1
 658 1062 l 1,12,-1
 836 1062 l 1,13,-1
 836 -20 l 1,14,-1
 704 74 l 1,15,16
 658 38 658 38 590.5 10 c 128,-1,17
 523 -18 523 -18 444 -18 c 0,18,19
 382 -18 382 -18 327.5 4.5 c 128,-1,20
 273 27 273 27 232.5 70.5 c 128,-1,21
 192 114 192 114 168.5 178.5 c 128,-1,22
 145 243 145 243 145 327 c 2,23,-1
 145 1062 l 1,4,-1
EndSplineSet
EndChar

StartChar: ugrave
Encoding: 249 249 146
Width: 981
Flags: W
LayerCount: 2
Fore
SplineSet
245 1508 m 1,0,-1
 344 1631 l 1,1,-1
 723 1329 l 1,2,-1
 624 1206 l 1,3,-1
 245 1508 l 1,0,-1
145 1062 m 1,4,-1
 323 1062 l 1,5,-1
 323 370 l 2,6,7
 323 161 323 161 486 161 c 0,8,9
 541 161 541 161 584.5 183.5 c 128,-1,10
 628 206 628 206 658 245 c 1,11,-1
 658 1062 l 1,12,-1
 836 1062 l 1,13,-1
 836 -20 l 1,14,-1
 704 74 l 1,15,16
 658 38 658 38 590.5 10 c 128,-1,17
 523 -18 523 -18 444 -18 c 0,18,19
 382 -18 382 -18 327.5 4.5 c 128,-1,20
 273 27 273 27 232.5 70.5 c 128,-1,21
 192 114 192 114 168.5 178.5 c 128,-1,22
 145 243 145 243 145 327 c 2,23,-1
 145 1062 l 1,4,-1
EndSplineSet
EndChar

StartChar: ograve
Encoding: 242 242 147
Width: 940
Flags: W
LayerCount: 2
Fore
SplineSet
225 1508 m 1,0,-1
 324 1631 l 1,1,-1
 703 1329 l 1,2,-1
 604 1206 l 1,3,-1
 225 1508 l 1,0,-1
470 -19 m 256,4,5
 395 -19 395 -19 326 15 c 128,-1,6
 257 49 257 49 203.5 118 c 128,-1,7
 150 187 150 187 118 290 c 128,-1,8
 86 393 86 393 86 531 c 256,9,10
 86 669 86 669 118 772 c 128,-1,11
 150 875 150 875 203.5 944 c 128,-1,12
 257 1013 257 1013 326 1047 c 128,-1,13
 395 1081 395 1081 470 1081 c 256,14,15
 545 1081 545 1081 614 1047 c 128,-1,16
 683 1013 683 1013 736.5 944 c 128,-1,17
 790 875 790 875 822 772 c 128,-1,18
 854 669 854 669 854 531 c 256,19,20
 854 393 854 393 822 290 c 128,-1,21
 790 187 790 187 736.5 118 c 128,-1,22
 683 49 683 49 614 15 c 128,-1,23
 545 -19 545 -19 470 -19 c 256,4,5
470 156 m 256,24,25
 506 156 506 156 541 175.5 c 128,-1,26
 576 195 576 195 604.5 239 c 128,-1,27
 633 283 633 283 650.5 355 c 128,-1,28
 668 427 668 427 668 531 c 256,29,30
 668 635 668 635 650.5 706.5 c 128,-1,31
 633 778 633 778 604.5 822.5 c 128,-1,32
 576 867 576 867 541 886.5 c 128,-1,33
 506 906 506 906 470 906 c 256,34,35
 434 906 434 906 399 886.5 c 128,-1,36
 364 867 364 867 335.5 822.5 c 128,-1,37
 307 778 307 778 289.5 706.5 c 128,-1,38
 272 635 272 635 272 531 c 256,39,40
 272 427 272 427 289.5 355 c 128,-1,41
 307 283 307 283 335.5 239 c 128,-1,42
 364 195 364 195 399 175.5 c 128,-1,43
 434 156 434 156 470 156 c 256,24,25
EndSplineSet
EndChar

StartChar: oacute
Encoding: 243 243 148
Width: 940
Flags: W
LayerCount: 2
Fore
SplineSet
218 1329 m 1,0,-1
 597 1631 l 1,1,-1
 696 1508 l 1,2,-1
 317 1206 l 1,3,-1
 218 1329 l 1,0,-1
470 -19 m 256,4,5
 395 -19 395 -19 326 15 c 128,-1,6
 257 49 257 49 203.5 118 c 128,-1,7
 150 187 150 187 118 290 c 128,-1,8
 86 393 86 393 86 531 c 256,9,10
 86 669 86 669 118 772 c 128,-1,11
 150 875 150 875 203.5 944 c 128,-1,12
 257 1013 257 1013 326 1047 c 128,-1,13
 395 1081 395 1081 470 1081 c 256,14,15
 545 1081 545 1081 614 1047 c 128,-1,16
 683 1013 683 1013 736.5 944 c 128,-1,17
 790 875 790 875 822 772 c 128,-1,18
 854 669 854 669 854 531 c 256,19,20
 854 393 854 393 822 290 c 128,-1,21
 790 187 790 187 736.5 118 c 128,-1,22
 683 49 683 49 614 15 c 128,-1,23
 545 -19 545 -19 470 -19 c 256,4,5
470 156 m 256,24,25
 506 156 506 156 541 175.5 c 128,-1,26
 576 195 576 195 604.5 239 c 128,-1,27
 633 283 633 283 650.5 355 c 128,-1,28
 668 427 668 427 668 531 c 256,29,30
 668 635 668 635 650.5 706.5 c 128,-1,31
 633 778 633 778 604.5 822.5 c 128,-1,32
 576 867 576 867 541 886.5 c 128,-1,33
 506 906 506 906 470 906 c 256,34,35
 434 906 434 906 399 886.5 c 128,-1,36
 364 867 364 867 335.5 822.5 c 128,-1,37
 307 778 307 778 289.5 706.5 c 128,-1,38
 272 635 272 635 272 531 c 256,39,40
 272 427 272 427 289.5 355 c 128,-1,41
 307 283 307 283 335.5 239 c 128,-1,42
 364 195 364 195 399 175.5 c 128,-1,43
 434 156 434 156 470 156 c 256,24,25
EndSplineSet
EndChar

StartChar: yacute
Encoding: 253 253 149
Width: 836
Flags: W
LayerCount: 2
Fore
SplineSet
175 1329 m 1,0,-1
 554 1631 l 1,1,-1
 653 1508 l 1,2,-1
 274 1206 l 1,3,-1
 175 1329 l 1,0,-1
180 -210 m 1,4,5
 219 -180 219 -180 248 -151 c 128,-1,6
 277 -122 277 -122 297 -92 c 128,-1,7
 317 -62 317 -62 329 -28.5 c 128,-1,8
 341 5 341 5 345 45 c 1,9,-1
 35 1062 l 1,10,-1
 225 1062 l 1,11,-1
 375 522 l 1,12,-1
 424 297 l 1,13,-1
 473 521 l 1,14,-1
 611 1062 l 1,15,-1
 801 1062 l 1,16,-1
 541 110 l 2,17,18
 522 42 522 42 505 -11.5 c 128,-1,19
 488 -65 488 -65 470 -107.5 c 128,-1,20
 452 -150 452 -150 432.5 -183.5 c 128,-1,21
 413 -217 413 -217 388.5 -245.5 c 128,-1,22
 364 -274 364 -274 334.5 -300.5 c 128,-1,23
 305 -327 305 -327 267 -354 c 1,24,-1
 180 -210 l 1,4,5
EndSplineSet
EndChar

StartChar: dotlessi
Encoding: 305 305 150
Width: 528
Flags: W
LayerCount: 2
Fore
SplineSet
169 1062 m 1,0,-1
 347 1062 l 1,1,-1
 347 0 l 1,2,-1
 169 0 l 1,3,-1
 169 1062 l 1,0,-1
EndSplineSet
EndChar

StartChar: dieresis
Encoding: 168 168 151
Width: 813
Flags: W
LayerCount: 2
Fore
SplineSet
589 1273 m 256,0,1
 560 1273 560 1273 536 1283 c 128,-1,2
 512 1293 512 1293 495 1310 c 128,-1,3
 478 1327 478 1327 469 1349.5 c 128,-1,4
 460 1372 460 1372 460 1397 c 256,5,6
 460 1422 460 1422 469 1444.5 c 128,-1,7
 478 1467 478 1467 495 1484 c 128,-1,8
 512 1501 512 1501 536 1511 c 128,-1,9
 560 1521 560 1521 589 1521 c 256,10,11
 618 1521 618 1521 642 1511 c 128,-1,12
 666 1501 666 1501 683 1484 c 128,-1,13
 700 1467 700 1467 709 1444.5 c 128,-1,14
 718 1422 718 1422 718 1397 c 256,15,16
 718 1372 718 1372 709 1349.5 c 128,-1,17
 700 1327 700 1327 683 1310 c 128,-1,18
 666 1293 666 1293 642 1283 c 128,-1,19
 618 1273 618 1273 589 1273 c 256,0,1
223 1273 m 256,20,21
 194 1273 194 1273 170 1283 c 128,-1,22
 146 1293 146 1293 129 1310 c 128,-1,23
 112 1327 112 1327 103 1349.5 c 128,-1,24
 94 1372 94 1372 94 1397 c 256,25,26
 94 1422 94 1422 103 1444.5 c 128,-1,27
 112 1467 112 1467 129 1484 c 128,-1,28
 146 1501 146 1501 170 1511 c 128,-1,29
 194 1521 194 1521 223 1521 c 256,30,31
 252 1521 252 1521 276 1511 c 128,-1,32
 300 1501 300 1501 317 1484 c 128,-1,33
 334 1467 334 1467 343 1444.5 c 128,-1,34
 352 1422 352 1422 352 1397 c 256,35,36
 352 1372 352 1372 343 1349.5 c 128,-1,37
 334 1327 334 1327 317 1310 c 128,-1,38
 300 1293 300 1293 276 1283 c 128,-1,39
 252 1273 252 1273 223 1273 c 256,20,21
EndSplineSet
EndChar

StartChar: udieresis
Encoding: 252 252 152
Width: 981
Flags: W
LayerCount: 2
Fore
SplineSet
667 1273 m 256,0,1
 638 1273 638 1273 614 1283 c 128,-1,2
 590 1293 590 1293 573 1310 c 128,-1,3
 556 1327 556 1327 547 1349.5 c 128,-1,4
 538 1372 538 1372 538 1397 c 256,5,6
 538 1422 538 1422 547 1444.5 c 128,-1,7
 556 1467 556 1467 573 1484 c 128,-1,8
 590 1501 590 1501 614 1511 c 128,-1,9
 638 1521 638 1521 667 1521 c 256,10,11
 696 1521 696 1521 720 1511 c 128,-1,12
 744 1501 744 1501 761 1484 c 128,-1,13
 778 1467 778 1467 787 1444.5 c 128,-1,14
 796 1422 796 1422 796 1397 c 256,15,16
 796 1372 796 1372 787 1349.5 c 128,-1,17
 778 1327 778 1327 761 1310 c 128,-1,18
 744 1293 744 1293 720 1283 c 128,-1,19
 696 1273 696 1273 667 1273 c 256,0,1
301 1273 m 256,20,21
 272 1273 272 1273 248 1283 c 128,-1,22
 224 1293 224 1293 207 1310 c 128,-1,23
 190 1327 190 1327 181 1349.5 c 128,-1,24
 172 1372 172 1372 172 1397 c 256,25,26
 172 1422 172 1422 181 1444.5 c 128,-1,27
 190 1467 190 1467 207 1484 c 128,-1,28
 224 1501 224 1501 248 1511 c 128,-1,29
 272 1521 272 1521 301 1521 c 256,30,31
 330 1521 330 1521 354 1511 c 128,-1,32
 378 1501 378 1501 395 1484 c 128,-1,33
 412 1467 412 1467 421 1444.5 c 128,-1,34
 430 1422 430 1422 430 1397 c 256,35,36
 430 1372 430 1372 421 1349.5 c 128,-1,37
 412 1327 412 1327 395 1310 c 128,-1,38
 378 1293 378 1293 354 1283 c 128,-1,39
 330 1273 330 1273 301 1273 c 256,20,21
145 1062 m 1,40,-1
 323 1062 l 1,41,-1
 323 370 l 2,42,43
 323 161 323 161 486 161 c 0,44,45
 541 161 541 161 584.5 183.5 c 128,-1,46
 628 206 628 206 658 245 c 1,47,-1
 658 1062 l 1,48,-1
 836 1062 l 1,49,-1
 836 -20 l 1,50,-1
 704 74 l 1,51,52
 658 38 658 38 590.5 10 c 128,-1,53
 523 -18 523 -18 444 -18 c 0,54,55
 382 -18 382 -18 327.5 4.5 c 128,-1,56
 273 27 273 27 232.5 70.5 c 128,-1,57
 192 114 192 114 168.5 178.5 c 128,-1,58
 145 243 145 243 145 327 c 2,59,-1
 145 1062 l 1,40,-1
EndSplineSet
EndChar

StartChar: adieresis
Encoding: 228 228 153
Width: 879
Flags: W
LayerCount: 2
Fore
SplineSet
594 1273 m 256,0,1
 565 1273 565 1273 541 1283 c 128,-1,2
 517 1293 517 1293 500 1310 c 128,-1,3
 483 1327 483 1327 474 1349.5 c 128,-1,4
 465 1372 465 1372 465 1397 c 256,5,6
 465 1422 465 1422 474 1444.5 c 128,-1,7
 483 1467 483 1467 500 1484 c 128,-1,8
 517 1501 517 1501 541 1511 c 128,-1,9
 565 1521 565 1521 594 1521 c 256,10,11
 623 1521 623 1521 647 1511 c 128,-1,12
 671 1501 671 1501 688 1484 c 128,-1,13
 705 1467 705 1467 714 1444.5 c 128,-1,14
 723 1422 723 1422 723 1397 c 256,15,16
 723 1372 723 1372 714 1349.5 c 128,-1,17
 705 1327 705 1327 688 1310 c 128,-1,18
 671 1293 671 1293 647 1283 c 128,-1,19
 623 1273 623 1273 594 1273 c 256,0,1
228 1273 m 256,20,21
 199 1273 199 1273 175 1283 c 128,-1,22
 151 1293 151 1293 134 1310 c 128,-1,23
 117 1327 117 1327 108 1349.5 c 128,-1,24
 99 1372 99 1372 99 1397 c 256,25,26
 99 1422 99 1422 108 1444.5 c 128,-1,27
 117 1467 117 1467 134 1484 c 128,-1,28
 151 1501 151 1501 175 1511 c 128,-1,29
 199 1521 199 1521 228 1521 c 256,30,31
 257 1521 257 1521 281 1511 c 128,-1,32
 305 1501 305 1501 322 1484 c 128,-1,33
 339 1467 339 1467 348 1444.5 c 128,-1,34
 357 1422 357 1422 357 1397 c 256,35,36
 357 1372 357 1372 348 1349.5 c 128,-1,37
 339 1327 339 1327 322 1310 c 128,-1,38
 305 1293 305 1293 281 1283 c 128,-1,39
 257 1273 257 1273 228 1273 c 256,20,21
104 332 m 0,40,41
 104 494 104 494 218.5 587 c 128,-1,42
 333 680 333 680 556 691 c 1,43,-1
 556 712 l 2,44,45
 556 806 556 806 511.5 859 c 128,-1,46
 467 912 467 912 390 912 c 0,47,48
 350 912 350 912 307.5 897.5 c 128,-1,49
 265 883 265 883 223 859 c 1,50,-1
 155 1019 l 1,51,52
 218 1051 218 1051 287 1066 c 128,-1,53
 356 1081 356 1081 412 1081 c 0,54,55
 484 1081 484 1081 543 1056 c 128,-1,56
 602 1031 602 1031 644 984.5 c 128,-1,57
 686 938 686 938 709 871 c 128,-1,58
 732 804 732 804 732 719 c 2,59,-1
 732 -19 l 1,60,-1
 601 45 l 1,61,62
 563 15 563 15 516.5 -2 c 128,-1,63
 470 -19 470 -19 416 -19 c 0,64,65
 348 -19 348 -19 290.5 8.5 c 128,-1,66
 233 36 233 36 191.5 83 c 128,-1,67
 150 130 150 130 127 194 c 128,-1,68
 104 258 104 258 104 332 c 0,40,41
285 329 m 0,69,70
 285 292 285 292 296 260.5 c 128,-1,71
 307 229 307 229 327 205.5 c 128,-1,72
 347 182 347 182 375 169 c 128,-1,73
 403 156 403 156 437 156 c 0,74,75
 472 156 472 156 504 169 c 128,-1,76
 536 182 536 182 556 202 c 1,77,-1
 556 531 l 1,78,79
 492 532 492 532 442 518.5 c 128,-1,80
 392 505 392 505 357 478.5 c 128,-1,81
 322 452 322 452 303.5 414.5 c 128,-1,82
 285 377 285 377 285 329 c 0,69,70
EndSplineSet
EndChar

StartChar: edieresis
Encoding: 235 235 154
Width: 862
Flags: W
LayerCount: 2
Fore
SplineSet
649 1273 m 256,0,1
 620 1273 620 1273 596 1283 c 128,-1,2
 572 1293 572 1293 555 1310 c 128,-1,3
 538 1327 538 1327 529 1349.5 c 128,-1,4
 520 1372 520 1372 520 1397 c 256,5,6
 520 1422 520 1422 529 1444.5 c 128,-1,7
 538 1467 538 1467 555 1484 c 128,-1,8
 572 1501 572 1501 596 1511 c 128,-1,9
 620 1521 620 1521 649 1521 c 256,10,11
 678 1521 678 1521 702 1511 c 128,-1,12
 726 1501 726 1501 743 1484 c 128,-1,13
 760 1467 760 1467 769 1444.5 c 128,-1,14
 778 1422 778 1422 778 1397 c 256,15,16
 778 1372 778 1372 769 1349.5 c 128,-1,17
 760 1327 760 1327 743 1310 c 128,-1,18
 726 1293 726 1293 702 1283 c 128,-1,19
 678 1273 678 1273 649 1273 c 256,0,1
283 1273 m 256,20,21
 254 1273 254 1273 230 1283 c 128,-1,22
 206 1293 206 1293 189 1310 c 128,-1,23
 172 1327 172 1327 163 1349.5 c 128,-1,24
 154 1372 154 1372 154 1397 c 256,25,26
 154 1422 154 1422 163 1444.5 c 128,-1,27
 172 1467 172 1467 189 1484 c 128,-1,28
 206 1501 206 1501 230 1511 c 128,-1,29
 254 1521 254 1521 283 1521 c 256,30,31
 312 1521 312 1521 336 1511 c 128,-1,32
 360 1501 360 1501 377 1484 c 128,-1,33
 394 1467 394 1467 403 1444.5 c 128,-1,34
 412 1422 412 1422 412 1397 c 256,35,36
 412 1372 412 1372 403 1349.5 c 128,-1,37
 394 1327 394 1327 377 1310 c 128,-1,38
 360 1293 360 1293 336 1283 c 128,-1,39
 312 1273 312 1273 283 1273 c 256,20,21
488 -19 m 0,40,41
 402 -19 402 -19 329.5 18.5 c 128,-1,42
 257 56 257 56 203.5 127.5 c 128,-1,43
 150 199 150 199 120 302.5 c 128,-1,44
 90 406 90 406 90 538 c 0,45,46
 90 673 90 673 121 775 c 128,-1,47
 152 877 152 877 204.5 945 c 128,-1,48
 257 1013 257 1013 325.5 1047 c 128,-1,49
 394 1081 394 1081 468 1081 c 0,50,51
 554 1081 554 1081 619 1036.5 c 128,-1,52
 684 992 684 992 722 910 c 128,-1,53
 760 828 760 828 769 712.5 c 128,-1,54
 778 597 778 597 753 455 c 1,55,-1
 275 456 l 1,56,57
 283 370 283 370 306.5 311.5 c 128,-1,58
 330 253 330 253 362.5 217 c 128,-1,59
 395 181 395 181 433 165.5 c 128,-1,60
 471 150 471 150 509 150 c 0,61,62
 532 150 532 150 555.5 155 c 128,-1,63
 579 160 579 160 600.5 168 c 128,-1,64
 622 176 622 176 640 186 c 128,-1,65
 658 196 658 196 670 205 c 1,66,-1
 738 53 l 1,67,68
 716 39 716 39 687 26 c 128,-1,69
 658 13 658 13 625.5 3 c 128,-1,70
 593 -7 593 -7 557.5 -13 c 128,-1,71
 522 -19 522 -19 488 -19 c 0,40,41
589 623 m 1,72,73
 594 707 594 707 585.5 761.5 c 128,-1,74
 577 816 577 816 559.5 848.5 c 128,-1,75
 542 881 542 881 517 893.5 c 128,-1,76
 492 906 492 906 464 906 c 0,77,78
 392 906 392 906 340.5 834.5 c 128,-1,79
 289 763 289 763 276 623 c 1,80,-1
 589 623 l 1,72,73
EndSplineSet
EndChar

StartChar: nacute
Encoding: 324 324 155
Width: 997
Flags: W
LayerCount: 2
Fore
SplineSet
254 1329 m 1,0,-1
 633 1631 l 1,1,-1
 732 1508 l 1,2,-1
 353 1206 l 1,3,-1
 254 1329 l 1,0,-1
145 1081 m 1,4,-1
 295 974 l 1,5,6
 317 996 317 996 345 1015 c 128,-1,7
 373 1034 373 1034 404 1048 c 128,-1,8
 435 1062 435 1062 467 1070 c 128,-1,9
 499 1078 499 1078 531 1078 c 0,10,11
 691 1078 691 1078 772 977.5 c 128,-1,12
 853 877 853 877 853 688 c 2,13,-1
 853 0 l 1,14,-1
 675 0 l 1,15,-1
 675 686 l 2,16,17
 675 789 675 789 633.5 843 c 128,-1,18
 592 897 592 897 511 897 c 0,19,20
 463 897 463 897 413.5 873.5 c 128,-1,21
 364 850 364 850 323 800 c 1,22,-1
 323 0 l 1,23,-1
 145 0 l 1,24,-1
 145 1081 l 1,4,-1
EndSplineSet
EndChar

StartChar: ydieresis
Encoding: 255 255 156
Width: 836
Flags: W
LayerCount: 2
Fore
SplineSet
588 1273 m 256,0,1
 559 1273 559 1273 535 1283 c 128,-1,2
 511 1293 511 1293 494 1310 c 128,-1,3
 477 1327 477 1327 468 1349.5 c 128,-1,4
 459 1372 459 1372 459 1397 c 256,5,6
 459 1422 459 1422 468 1444.5 c 128,-1,7
 477 1467 477 1467 494 1484 c 128,-1,8
 511 1501 511 1501 535 1511 c 128,-1,9
 559 1521 559 1521 588 1521 c 256,10,11
 617 1521 617 1521 641 1511 c 128,-1,12
 665 1501 665 1501 682 1484 c 128,-1,13
 699 1467 699 1467 708 1444.5 c 128,-1,14
 717 1422 717 1422 717 1397 c 256,15,16
 717 1372 717 1372 708 1349.5 c 128,-1,17
 699 1327 699 1327 682 1310 c 128,-1,18
 665 1293 665 1293 641 1283 c 128,-1,19
 617 1273 617 1273 588 1273 c 256,0,1
222 1273 m 256,20,21
 193 1273 193 1273 169 1283 c 128,-1,22
 145 1293 145 1293 128 1310 c 128,-1,23
 111 1327 111 1327 102 1349.5 c 128,-1,24
 93 1372 93 1372 93 1397 c 256,25,26
 93 1422 93 1422 102 1444.5 c 128,-1,27
 111 1467 111 1467 128 1484 c 128,-1,28
 145 1501 145 1501 169 1511 c 128,-1,29
 193 1521 193 1521 222 1521 c 256,30,31
 251 1521 251 1521 275 1511 c 128,-1,32
 299 1501 299 1501 316 1484 c 128,-1,33
 333 1467 333 1467 342 1444.5 c 128,-1,34
 351 1422 351 1422 351 1397 c 256,35,36
 351 1372 351 1372 342 1349.5 c 128,-1,37
 333 1327 333 1327 316 1310 c 128,-1,38
 299 1293 299 1293 275 1283 c 128,-1,39
 251 1273 251 1273 222 1273 c 256,20,21
180 -210 m 1,40,41
 219 -180 219 -180 248 -151 c 128,-1,42
 277 -122 277 -122 297 -92 c 128,-1,43
 317 -62 317 -62 329 -28.5 c 128,-1,44
 341 5 341 5 345 45 c 1,45,-1
 35 1062 l 1,46,-1
 225 1062 l 1,47,-1
 375 522 l 1,48,-1
 424 297 l 1,49,-1
 473 521 l 1,50,-1
 611 1062 l 1,51,-1
 801 1062 l 1,52,-1
 541 110 l 2,53,54
 522 42 522 42 505 -11.5 c 128,-1,55
 488 -65 488 -65 470 -107.5 c 128,-1,56
 452 -150 452 -150 432.5 -183.5 c 128,-1,57
 413 -217 413 -217 388.5 -245.5 c 128,-1,58
 364 -274 364 -274 334.5 -300.5 c 128,-1,59
 305 -327 305 -327 267 -354 c 1,60,-1
 180 -210 l 1,40,41
EndSplineSet
EndChar

StartChar: idieresis
Encoding: 239 239 157
Width: 528
Flags: W
LayerCount: 2
Fore
SplineSet
447 1273 m 256,0,1
 418 1273 418 1273 394 1283 c 128,-1,2
 370 1293 370 1293 353 1310 c 128,-1,3
 336 1327 336 1327 327 1349.5 c 128,-1,4
 318 1372 318 1372 318 1397 c 256,5,6
 318 1422 318 1422 327 1444.5 c 128,-1,7
 336 1467 336 1467 353 1484 c 128,-1,8
 370 1501 370 1501 394 1511 c 128,-1,9
 418 1521 418 1521 447 1521 c 256,10,11
 476 1521 476 1521 500 1511 c 128,-1,12
 524 1501 524 1501 541 1484 c 128,-1,13
 558 1467 558 1467 567 1444.5 c 128,-1,14
 576 1422 576 1422 576 1397 c 256,15,16
 576 1372 576 1372 567 1349.5 c 128,-1,17
 558 1327 558 1327 541 1310 c 128,-1,18
 524 1293 524 1293 500 1283 c 128,-1,19
 476 1273 476 1273 447 1273 c 256,0,1
81 1273 m 256,20,21
 52 1273 52 1273 28 1283 c 128,-1,22
 4 1293 4 1293 -13 1310 c 128,-1,23
 -30 1327 -30 1327 -39 1349.5 c 128,-1,24
 -48 1372 -48 1372 -48 1397 c 256,25,26
 -48 1422 -48 1422 -39 1444.5 c 128,-1,27
 -30 1467 -30 1467 -13 1484 c 128,-1,28
 4 1501 4 1501 28 1511 c 128,-1,29
 52 1521 52 1521 81 1521 c 256,30,31
 110 1521 110 1521 134 1511 c 128,-1,32
 158 1501 158 1501 175 1484 c 128,-1,33
 192 1467 192 1467 201 1444.5 c 128,-1,34
 210 1422 210 1422 210 1397 c 256,35,36
 210 1372 210 1372 201 1349.5 c 128,-1,37
 192 1327 192 1327 175 1310 c 128,-1,38
 158 1293 158 1293 134 1283 c 128,-1,39
 110 1273 110 1273 81 1273 c 256,20,21
169 1062 m 1,40,-1
 347 1062 l 1,41,-1
 347 0 l 1,42,-1
 169 0 l 1,43,-1
 169 1062 l 1,40,-1
EndSplineSet
EndChar

StartChar: odieresis
Encoding: 246 246 158
Width: 940
Flags: W
LayerCount: 2
Fore
SplineSet
647 1273 m 256,0,1
 618 1273 618 1273 594 1283 c 128,-1,2
 570 1293 570 1293 553 1310 c 128,-1,3
 536 1327 536 1327 527 1349.5 c 128,-1,4
 518 1372 518 1372 518 1397 c 256,5,6
 518 1422 518 1422 527 1444.5 c 128,-1,7
 536 1467 536 1467 553 1484 c 128,-1,8
 570 1501 570 1501 594 1511 c 128,-1,9
 618 1521 618 1521 647 1521 c 256,10,11
 676 1521 676 1521 700 1511 c 128,-1,12
 724 1501 724 1501 741 1484 c 128,-1,13
 758 1467 758 1467 767 1444.5 c 128,-1,14
 776 1422 776 1422 776 1397 c 256,15,16
 776 1372 776 1372 767 1349.5 c 128,-1,17
 758 1327 758 1327 741 1310 c 128,-1,18
 724 1293 724 1293 700 1283 c 128,-1,19
 676 1273 676 1273 647 1273 c 256,0,1
281 1273 m 256,20,21
 252 1273 252 1273 228 1283 c 128,-1,22
 204 1293 204 1293 187 1310 c 128,-1,23
 170 1327 170 1327 161 1349.5 c 128,-1,24
 152 1372 152 1372 152 1397 c 256,25,26
 152 1422 152 1422 161 1444.5 c 128,-1,27
 170 1467 170 1467 187 1484 c 128,-1,28
 204 1501 204 1501 228 1511 c 128,-1,29
 252 1521 252 1521 281 1521 c 256,30,31
 310 1521 310 1521 334 1511 c 128,-1,32
 358 1501 358 1501 375 1484 c 128,-1,33
 392 1467 392 1467 401 1444.5 c 128,-1,34
 410 1422 410 1422 410 1397 c 256,35,36
 410 1372 410 1372 401 1349.5 c 128,-1,37
 392 1327 392 1327 375 1310 c 128,-1,38
 358 1293 358 1293 334 1283 c 128,-1,39
 310 1273 310 1273 281 1273 c 256,20,21
470 -19 m 256,40,41
 395 -19 395 -19 326 15 c 128,-1,42
 257 49 257 49 203.5 118 c 128,-1,43
 150 187 150 187 118 290 c 128,-1,44
 86 393 86 393 86 531 c 256,45,46
 86 669 86 669 118 772 c 128,-1,47
 150 875 150 875 203.5 944 c 128,-1,48
 257 1013 257 1013 326 1047 c 128,-1,49
 395 1081 395 1081 470 1081 c 256,50,51
 545 1081 545 1081 614 1047 c 128,-1,52
 683 1013 683 1013 736.5 944 c 128,-1,53
 790 875 790 875 822 772 c 128,-1,54
 854 669 854 669 854 531 c 256,55,56
 854 393 854 393 822 290 c 128,-1,57
 790 187 790 187 736.5 118 c 128,-1,58
 683 49 683 49 614 15 c 128,-1,59
 545 -19 545 -19 470 -19 c 256,40,41
470 156 m 256,60,61
 506 156 506 156 541 175.5 c 128,-1,62
 576 195 576 195 604.5 239 c 128,-1,63
 633 283 633 283 650.5 355 c 128,-1,64
 668 427 668 427 668 531 c 256,65,66
 668 635 668 635 650.5 706.5 c 128,-1,67
 633 778 633 778 604.5 822.5 c 128,-1,68
 576 867 576 867 541 886.5 c 128,-1,69
 506 906 506 906 470 906 c 256,70,71
 434 906 434 906 399 886.5 c 128,-1,72
 364 867 364 867 335.5 822.5 c 128,-1,73
 307 778 307 778 289.5 706.5 c 128,-1,74
 272 635 272 635 272 531 c 256,75,76
 272 427 272 427 289.5 355 c 128,-1,77
 307 283 307 283 335.5 239 c 128,-1,78
 364 195 364 195 399 175.5 c 128,-1,79
 434 156 434 156 470 156 c 256,60,61
EndSplineSet
EndChar

StartChar: circumflex
Encoding: 710 710 159
Width: 776
Flags: W
LayerCount: 2
Fore
SplineSet
94 1374 m 1,0,-1
 387 1612 l 1,1,-1
 680 1374 l 1,2,-1
 588 1266 l 1,3,-1
 387 1427 l 1,4,-1
 186 1266 l 1,5,-1
 94 1374 l 1,0,-1
EndSplineSet
EndChar

StartChar: icircumflex
Encoding: 238 238 160
Width: 528
Flags: W
LayerCount: 2
Fore
SplineSet
-29 1374 m 1,0,-1
 264 1612 l 1,1,-1
 557 1374 l 1,2,-1
 465 1266 l 1,3,-1
 264 1427 l 1,4,-1
 63 1266 l 1,5,-1
 -29 1374 l 1,0,-1
169 1062 m 1,6,-1
 347 1062 l 1,7,-1
 347 0 l 1,8,-1
 169 0 l 1,9,-1
 169 1062 l 1,6,-1
EndSplineSet
EndChar

StartChar: ucircumflex
Encoding: 251 251 161
Width: 981
Flags: W
LayerCount: 2
Fore
SplineSet
202 1374 m 1,0,-1
 495 1612 l 1,1,-1
 788 1374 l 1,2,-1
 696 1266 l 1,3,-1
 495 1427 l 1,4,-1
 294 1266 l 1,5,-1
 202 1374 l 1,0,-1
145 1062 m 1,6,-1
 323 1062 l 1,7,-1
 323 370 l 2,8,9
 323 161 323 161 486 161 c 0,10,11
 541 161 541 161 584.5 183.5 c 128,-1,12
 628 206 628 206 658 245 c 1,13,-1
 658 1062 l 1,14,-1
 836 1062 l 1,15,-1
 836 -20 l 1,16,-1
 704 74 l 1,17,18
 658 38 658 38 590.5 10 c 128,-1,19
 523 -18 523 -18 444 -18 c 0,20,21
 382 -18 382 -18 327.5 4.5 c 128,-1,22
 273 27 273 27 232.5 70.5 c 128,-1,23
 192 114 192 114 168.5 178.5 c 128,-1,24
 145 243 145 243 145 327 c 2,25,-1
 145 1062 l 1,6,-1
EndSplineSet
EndChar

StartChar: ocircumflex
Encoding: 244 244 162
Width: 940
Flags: W
LayerCount: 2
Fore
SplineSet
171 1374 m 1,0,-1
 464 1612 l 1,1,-1
 757 1374 l 1,2,-1
 665 1266 l 1,3,-1
 464 1427 l 1,4,-1
 263 1266 l 1,5,-1
 171 1374 l 1,0,-1
470 -19 m 256,6,7
 395 -19 395 -19 326 15 c 128,-1,8
 257 49 257 49 203.5 118 c 128,-1,9
 150 187 150 187 118 290 c 128,-1,10
 86 393 86 393 86 531 c 256,11,12
 86 669 86 669 118 772 c 128,-1,13
 150 875 150 875 203.5 944 c 128,-1,14
 257 1013 257 1013 326 1047 c 128,-1,15
 395 1081 395 1081 470 1081 c 256,16,17
 545 1081 545 1081 614 1047 c 128,-1,18
 683 1013 683 1013 736.5 944 c 128,-1,19
 790 875 790 875 822 772 c 128,-1,20
 854 669 854 669 854 531 c 256,21,22
 854 393 854 393 822 290 c 128,-1,23
 790 187 790 187 736.5 118 c 128,-1,24
 683 49 683 49 614 15 c 128,-1,25
 545 -19 545 -19 470 -19 c 256,6,7
470 156 m 256,26,27
 506 156 506 156 541 175.5 c 128,-1,28
 576 195 576 195 604.5 239 c 128,-1,29
 633 283 633 283 650.5 355 c 128,-1,30
 668 427 668 427 668 531 c 256,31,32
 668 635 668 635 650.5 706.5 c 128,-1,33
 633 778 633 778 604.5 822.5 c 128,-1,34
 576 867 576 867 541 886.5 c 128,-1,35
 506 906 506 906 470 906 c 256,36,37
 434 906 434 906 399 886.5 c 128,-1,38
 364 867 364 867 335.5 822.5 c 128,-1,39
 307 778 307 778 289.5 706.5 c 128,-1,40
 272 635 272 635 272 531 c 256,41,42
 272 427 272 427 289.5 355 c 128,-1,43
 307 283 307 283 335.5 239 c 128,-1,44
 364 195 364 195 399 175.5 c 128,-1,45
 434 156 434 156 470 156 c 256,26,27
EndSplineSet
EndChar

StartChar: jcircumflex
Encoding: 309 309 163
Width: 569
Flags: W
LayerCount: 2
Fore
SplineSet
-2 1374 m 1,0,-1
 291 1612 l 1,1,-1
 584 1374 l 1,2,-1
 492 1266 l 1,3,-1
 291 1427 l 1,4,-1
 90 1266 l 1,5,-1
 -2 1374 l 1,0,-1
39 -210 m 1,6,7
 88 -178 88 -178 120 -142 c 128,-1,8
 152 -106 152 -106 171 -64.5 c 128,-1,9
 190 -23 190 -23 197.5 23.5 c 128,-1,10
 205 70 205 70 205 123 c 2,11,-1
 205 1062 l 1,12,-1
 383 1062 l 1,13,-1
 383 123 l 2,14,15
 383 46 383 46 369.5 -23.5 c 128,-1,16
 356 -93 356 -93 326 -153 c 128,-1,17
 296 -213 296 -213 247 -263.5 c 128,-1,18
 198 -314 198 -314 126 -354 c 1,19,-1
 39 -210 l 1,6,7
EndSplineSet
EndChar

StartChar: acircumflex
Encoding: 226 226 164
Width: 879
Flags: W
LayerCount: 2
Fore
SplineSet
117 1374 m 1,0,-1
 410 1612 l 1,1,-1
 703 1374 l 1,2,-1
 611 1266 l 1,3,-1
 410 1427 l 1,4,-1
 209 1266 l 1,5,-1
 117 1374 l 1,0,-1
104 332 m 0,6,7
 104 494 104 494 218.5 587 c 128,-1,8
 333 680 333 680 556 691 c 1,9,-1
 556 712 l 2,10,11
 556 806 556 806 511.5 859 c 128,-1,12
 467 912 467 912 390 912 c 0,13,14
 350 912 350 912 307.5 897.5 c 128,-1,15
 265 883 265 883 223 859 c 1,16,-1
 155 1019 l 1,17,18
 218 1051 218 1051 287 1066 c 128,-1,19
 356 1081 356 1081 412 1081 c 0,20,21
 484 1081 484 1081 543 1056 c 128,-1,22
 602 1031 602 1031 644 984.5 c 128,-1,23
 686 938 686 938 709 871 c 128,-1,24
 732 804 732 804 732 719 c 2,25,-1
 732 -19 l 1,26,-1
 601 45 l 1,27,28
 563 15 563 15 516.5 -2 c 128,-1,29
 470 -19 470 -19 416 -19 c 0,30,31
 348 -19 348 -19 290.5 8.5 c 128,-1,32
 233 36 233 36 191.5 83 c 128,-1,33
 150 130 150 130 127 194 c 128,-1,34
 104 258 104 258 104 332 c 0,6,7
285 329 m 0,35,36
 285 292 285 292 296 260.5 c 128,-1,37
 307 229 307 229 327 205.5 c 128,-1,38
 347 182 347 182 375 169 c 128,-1,39
 403 156 403 156 437 156 c 0,40,41
 472 156 472 156 504 169 c 128,-1,42
 536 182 536 182 556 202 c 1,43,-1
 556 531 l 1,44,45
 492 532 492 532 442 518.5 c 128,-1,46
 392 505 392 505 357 478.5 c 128,-1,47
 322 452 322 452 303.5 414.5 c 128,-1,48
 285 377 285 377 285 329 c 0,35,36
EndSplineSet
EndChar

StartChar: ecircumflex
Encoding: 234 234 165
Width: 862
Flags: W
LayerCount: 2
Fore
SplineSet
163 1374 m 1,0,-1
 456 1612 l 1,1,-1
 749 1374 l 1,2,-1
 657 1266 l 1,3,-1
 456 1427 l 1,4,-1
 255 1266 l 1,5,-1
 163 1374 l 1,0,-1
488 -19 m 0,6,7
 402 -19 402 -19 329.5 18.5 c 128,-1,8
 257 56 257 56 203.5 127.5 c 128,-1,9
 150 199 150 199 120 302.5 c 128,-1,10
 90 406 90 406 90 538 c 0,11,12
 90 673 90 673 121 775 c 128,-1,13
 152 877 152 877 204.5 945 c 128,-1,14
 257 1013 257 1013 325.5 1047 c 128,-1,15
 394 1081 394 1081 468 1081 c 0,16,17
 554 1081 554 1081 619 1036.5 c 128,-1,18
 684 992 684 992 722 910 c 128,-1,19
 760 828 760 828 769 712.5 c 128,-1,20
 778 597 778 597 753 455 c 1,21,-1
 275 456 l 1,22,23
 283 370 283 370 306.5 311.5 c 128,-1,24
 330 253 330 253 362.5 217 c 128,-1,25
 395 181 395 181 433 165.5 c 128,-1,26
 471 150 471 150 509 150 c 0,27,28
 532 150 532 150 555.5 155 c 128,-1,29
 579 160 579 160 600.5 168 c 128,-1,30
 622 176 622 176 640 186 c 128,-1,31
 658 196 658 196 670 205 c 1,32,-1
 738 53 l 1,33,34
 716 39 716 39 687 26 c 128,-1,35
 658 13 658 13 625.5 3 c 128,-1,36
 593 -7 593 -7 557.5 -13 c 128,-1,37
 522 -19 522 -19 488 -19 c 0,6,7
589 623 m 1,38,39
 594 707 594 707 585.5 761.5 c 128,-1,40
 577 816 577 816 559.5 848.5 c 128,-1,41
 542 881 542 881 517 893.5 c 128,-1,42
 492 906 492 906 464 906 c 0,43,44
 392 906 392 906 340.5 834.5 c 128,-1,45
 289 763 289 763 276 623 c 1,46,-1
 589 623 l 1,38,39
EndSplineSet
EndChar

StartChar: tilde
Encoding: 732 732 166
Width: 854
Flags: W
LayerCount: 2
Fore
SplineSet
100 1359 m 1,0,1
 115 1385 115 1385 137.5 1411 c 128,-1,2
 160 1437 160 1437 187 1457.5 c 128,-1,3
 214 1478 214 1478 243.5 1491 c 128,-1,4
 273 1504 273 1504 302 1504 c 0,5,6
 341 1504 341 1504 372.5 1492 c 128,-1,7
 404 1480 404 1480 432.5 1466 c 128,-1,8
 461 1452 461 1452 487 1440 c 128,-1,9
 513 1428 513 1428 541 1428 c 0,10,11
 570 1428 570 1428 607.5 1445 c 128,-1,12
 645 1462 645 1462 680 1504 c 1,13,-1
 756 1407 l 1,14,15
 741 1381 741 1381 718 1355 c 128,-1,16
 695 1329 695 1329 668 1308.5 c 128,-1,17
 641 1288 641 1288 611.5 1275 c 128,-1,18
 582 1262 582 1262 554 1262 c 0,19,20
 515 1262 515 1262 483.5 1274 c 128,-1,21
 452 1286 452 1286 423.5 1300 c 128,-1,22
 395 1314 395 1314 369 1326 c 128,-1,23
 343 1338 343 1338 315 1338 c 0,24,25
 286 1338 286 1338 248.5 1321 c 128,-1,26
 211 1304 211 1304 176 1262 c 1,27,-1
 100 1359 l 1,0,1
EndSplineSet
EndChar

StartChar: otilde
Encoding: 245 245 167
Width: 940
Flags: W
LayerCount: 2
Fore
SplineSet
147 1359 m 1,0,1
 162 1385 162 1385 184.5 1411 c 128,-1,2
 207 1437 207 1437 234 1457.5 c 128,-1,3
 261 1478 261 1478 290.5 1491 c 128,-1,4
 320 1504 320 1504 349 1504 c 0,5,6
 388 1504 388 1504 419.5 1492 c 128,-1,7
 451 1480 451 1480 479.5 1466 c 128,-1,8
 508 1452 508 1452 534 1440 c 128,-1,9
 560 1428 560 1428 588 1428 c 0,10,11
 617 1428 617 1428 654.5 1445 c 128,-1,12
 692 1462 692 1462 727 1504 c 1,13,-1
 803 1407 l 1,14,15
 788 1381 788 1381 765 1355 c 128,-1,16
 742 1329 742 1329 715 1308.5 c 128,-1,17
 688 1288 688 1288 658.5 1275 c 128,-1,18
 629 1262 629 1262 601 1262 c 0,19,20
 562 1262 562 1262 530.5 1274 c 128,-1,21
 499 1286 499 1286 470.5 1300 c 128,-1,22
 442 1314 442 1314 416 1326 c 128,-1,23
 390 1338 390 1338 362 1338 c 0,24,25
 333 1338 333 1338 295.5 1321 c 128,-1,26
 258 1304 258 1304 223 1262 c 1,27,-1
 147 1359 l 1,0,1
470 -19 m 256,28,29
 395 -19 395 -19 326 15 c 128,-1,30
 257 49 257 49 203.5 118 c 128,-1,31
 150 187 150 187 118 290 c 128,-1,32
 86 393 86 393 86 531 c 256,33,34
 86 669 86 669 118 772 c 128,-1,35
 150 875 150 875 203.5 944 c 128,-1,36
 257 1013 257 1013 326 1047 c 128,-1,37
 395 1081 395 1081 470 1081 c 256,38,39
 545 1081 545 1081 614 1047 c 128,-1,40
 683 1013 683 1013 736.5 944 c 128,-1,41
 790 875 790 875 822 772 c 128,-1,42
 854 669 854 669 854 531 c 256,43,44
 854 393 854 393 822 290 c 128,-1,45
 790 187 790 187 736.5 118 c 128,-1,46
 683 49 683 49 614 15 c 128,-1,47
 545 -19 545 -19 470 -19 c 256,28,29
470 156 m 256,48,49
 506 156 506 156 541 175.5 c 128,-1,50
 576 195 576 195 604.5 239 c 128,-1,51
 633 283 633 283 650.5 355 c 128,-1,52
 668 427 668 427 668 531 c 256,53,54
 668 635 668 635 650.5 706.5 c 128,-1,55
 633 778 633 778 604.5 822.5 c 128,-1,56
 576 867 576 867 541 886.5 c 128,-1,57
 506 906 506 906 470 906 c 256,58,59
 434 906 434 906 399 886.5 c 128,-1,60
 364 867 364 867 335.5 822.5 c 128,-1,61
 307 778 307 778 289.5 706.5 c 128,-1,62
 272 635 272 635 272 531 c 256,63,64
 272 427 272 427 289.5 355 c 128,-1,65
 307 283 307 283 335.5 239 c 128,-1,66
 364 195 364 195 399 175.5 c 128,-1,67
 434 156 434 156 470 156 c 256,48,49
EndSplineSet
EndChar

StartChar: atilde
Encoding: 227 227 168
Width: 879
Flags: W
LayerCount: 2
Fore
SplineSet
95 1359 m 1,0,1
 110 1385 110 1385 132.5 1411 c 128,-1,2
 155 1437 155 1437 182 1457.5 c 128,-1,3
 209 1478 209 1478 238.5 1491 c 128,-1,4
 268 1504 268 1504 297 1504 c 0,5,6
 336 1504 336 1504 367.5 1492 c 128,-1,7
 399 1480 399 1480 427.5 1466 c 128,-1,8
 456 1452 456 1452 482 1440 c 128,-1,9
 508 1428 508 1428 536 1428 c 0,10,11
 565 1428 565 1428 602.5 1445 c 128,-1,12
 640 1462 640 1462 675 1504 c 1,13,-1
 751 1407 l 1,14,15
 736 1381 736 1381 713 1355 c 128,-1,16
 690 1329 690 1329 663 1308.5 c 128,-1,17
 636 1288 636 1288 606.5 1275 c 128,-1,18
 577 1262 577 1262 549 1262 c 0,19,20
 510 1262 510 1262 478.5 1274 c 128,-1,21
 447 1286 447 1286 418.5 1300 c 128,-1,22
 390 1314 390 1314 364 1326 c 128,-1,23
 338 1338 338 1338 310 1338 c 0,24,25
 281 1338 281 1338 243.5 1321 c 128,-1,26
 206 1304 206 1304 171 1262 c 1,27,-1
 95 1359 l 1,0,1
104 332 m 0,28,29
 104 494 104 494 218.5 587 c 128,-1,30
 333 680 333 680 556 691 c 1,31,-1
 556 712 l 2,32,33
 556 806 556 806 511.5 859 c 128,-1,34
 467 912 467 912 390 912 c 0,35,36
 350 912 350 912 307.5 897.5 c 128,-1,37
 265 883 265 883 223 859 c 1,38,-1
 155 1019 l 1,39,40
 218 1051 218 1051 287 1066 c 128,-1,41
 356 1081 356 1081 412 1081 c 0,42,43
 484 1081 484 1081 543 1056 c 128,-1,44
 602 1031 602 1031 644 984.5 c 128,-1,45
 686 938 686 938 709 871 c 128,-1,46
 732 804 732 804 732 719 c 2,47,-1
 732 -19 l 1,48,-1
 601 45 l 1,49,50
 563 15 563 15 516.5 -2 c 128,-1,51
 470 -19 470 -19 416 -19 c 0,52,53
 348 -19 348 -19 290.5 8.5 c 128,-1,54
 233 36 233 36 191.5 83 c 128,-1,55
 150 130 150 130 127 194 c 128,-1,56
 104 258 104 258 104 332 c 0,28,29
285 329 m 0,57,58
 285 292 285 292 296 260.5 c 128,-1,59
 307 229 307 229 327 205.5 c 128,-1,60
 347 182 347 182 375 169 c 128,-1,61
 403 156 403 156 437 156 c 0,62,63
 472 156 472 156 504 169 c 128,-1,64
 536 182 536 182 556 202 c 1,65,-1
 556 531 l 1,66,67
 492 532 492 532 442 518.5 c 128,-1,68
 392 505 392 505 357 478.5 c 128,-1,69
 322 452 322 452 303.5 414.5 c 128,-1,70
 285 377 285 377 285 329 c 0,57,58
EndSplineSet
EndChar

StartChar: ntilde
Encoding: 241 241 169
Width: 997
Flags: W
LayerCount: 2
Fore
SplineSet
157 1359 m 1,0,1
 172 1385 172 1385 194.5 1411 c 128,-1,2
 217 1437 217 1437 244 1457.5 c 128,-1,3
 271 1478 271 1478 300.5 1491 c 128,-1,4
 330 1504 330 1504 359 1504 c 0,5,6
 398 1504 398 1504 429.5 1492 c 128,-1,7
 461 1480 461 1480 489.5 1466 c 128,-1,8
 518 1452 518 1452 544 1440 c 128,-1,9
 570 1428 570 1428 598 1428 c 0,10,11
 627 1428 627 1428 664.5 1445 c 128,-1,12
 702 1462 702 1462 737 1504 c 1,13,-1
 813 1407 l 1,14,15
 798 1381 798 1381 775 1355 c 128,-1,16
 752 1329 752 1329 725 1308.5 c 128,-1,17
 698 1288 698 1288 668.5 1275 c 128,-1,18
 639 1262 639 1262 611 1262 c 0,19,20
 572 1262 572 1262 540.5 1274 c 128,-1,21
 509 1286 509 1286 480.5 1300 c 128,-1,22
 452 1314 452 1314 426 1326 c 128,-1,23
 400 1338 400 1338 372 1338 c 0,24,25
 343 1338 343 1338 305.5 1321 c 128,-1,26
 268 1304 268 1304 233 1262 c 1,27,-1
 157 1359 l 1,0,1
145 1081 m 1,28,-1
 295 974 l 1,29,30
 317 996 317 996 345 1015 c 128,-1,31
 373 1034 373 1034 404 1048 c 128,-1,32
 435 1062 435 1062 467 1070 c 128,-1,33
 499 1078 499 1078 531 1078 c 0,34,35
 691 1078 691 1078 772 977.5 c 128,-1,36
 853 877 853 877 853 688 c 2,37,-1
 853 0 l 1,38,-1
 675 0 l 1,39,-1
 675 686 l 2,40,41
 675 789 675 789 633.5 843 c 128,-1,42
 592 897 592 897 511 897 c 0,43,44
 463 897 463 897 413.5 873.5 c 128,-1,45
 364 850 364 850 323 800 c 1,46,-1
 323 0 l 1,47,-1
 145 0 l 1,48,-1
 145 1081 l 1,28,-1
EndSplineSet
EndChar

StartChar: itilde
Encoding: 297 297 170
Width: 528
Flags: W
LayerCount: 2
Fore
SplineSet
-64 1359 m 1,0,1
 -49 1385 -49 1385 -26.5 1411 c 128,-1,2
 -4 1437 -4 1437 23 1457.5 c 128,-1,3
 50 1478 50 1478 79.5 1491 c 128,-1,4
 109 1504 109 1504 138 1504 c 0,5,6
 177 1504 177 1504 208.5 1492 c 128,-1,7
 240 1480 240 1480 268.5 1466 c 128,-1,8
 297 1452 297 1452 323 1440 c 128,-1,9
 349 1428 349 1428 377 1428 c 0,10,11
 406 1428 406 1428 443.5 1445 c 128,-1,12
 481 1462 481 1462 516 1504 c 1,13,-1
 592 1407 l 1,14,15
 577 1381 577 1381 554 1355 c 128,-1,16
 531 1329 531 1329 504 1308.5 c 128,-1,17
 477 1288 477 1288 447.5 1275 c 128,-1,18
 418 1262 418 1262 390 1262 c 0,19,20
 351 1262 351 1262 319.5 1274 c 128,-1,21
 288 1286 288 1286 259.5 1300 c 128,-1,22
 231 1314 231 1314 205 1326 c 128,-1,23
 179 1338 179 1338 151 1338 c 0,24,25
 122 1338 122 1338 84.5 1321 c 128,-1,26
 47 1304 47 1304 12 1262 c 1,27,-1
 -64 1359 l 1,0,1
169 1062 m 1,28,-1
 347 1062 l 1,29,-1
 347 0 l 1,30,-1
 169 0 l 1,31,-1
 169 1062 l 1,28,-1
EndSplineSet
EndChar

StartChar: hbar
Encoding: 295 295 171
Width: 1008
Flags: W
LayerCount: 2
Fore
SplineSet
145 1230 m 1,0,-1
 37 1230 l 1,1,-1
 37 1388 l 1,2,-1
 145 1388 l 1,3,-1
 145 1593 l 1,4,-1
 323 1593 l 1,5,-1
 323 1388 l 1,6,-1
 464 1388 l 1,7,-1
 464 1230 l 1,8,-1
 323 1230 l 1,9,-1
 323 998 l 1,10,11
 367 1033 367 1033 422 1055.5 c 128,-1,12
 477 1078 477 1078 531 1078 c 0,13,14
 691 1078 691 1078 772 977.5 c 128,-1,15
 853 877 853 877 853 688 c 2,16,-1
 853 0 l 1,17,-1
 675 0 l 1,18,-1
 675 686 l 2,19,20
 675 789 675 789 633.5 843 c 128,-1,21
 592 897 592 897 511 897 c 0,22,23
 463 897 463 897 413.5 873.5 c 128,-1,24
 364 850 364 850 323 800 c 1,25,-1
 323 0 l 1,26,-1
 145 0 l 1,27,-1
 145 1230 l 1,0,-1
EndSplineSet
EndChar

StartChar: kgreenlandic
Encoding: 312 312 172
Width: 930
Flags: W
LayerCount: 2
Fore
SplineSet
145 1062 m 1,0,-1
 323 1062 l 1,1,-1
 323 522 l 1,2,-1
 619 1063 l 1,3,-1
 809 1063 l 1,4,-1
 493 502 l 1,5,-1
 862 0 l 1,6,-1
 642 0 l 1,7,-1
 323 439 l 1,8,-1
 323 0 l 1,9,-1
 145 0 l 1,10,-1
 145 1062 l 1,0,-1
EndSplineSet
EndChar

StartChar: oslash
Encoding: 248 248 173
Width: 940
Flags: W
LayerCount: 2
Fore
SplineSet
218 100 m 1,0,1
 158 169 158 169 122 275.5 c 128,-1,2
 86 382 86 382 86 531 c 0,3,4
 86 669 86 669 118 772 c 128,-1,5
 150 875 150 875 203.5 944 c 128,-1,6
 257 1013 257 1013 326 1047 c 128,-1,7
 395 1081 395 1081 470 1081 c 0,8,9
 512 1081 512 1081 554 1069 c 1,10,-1
 612 1236 l 1,11,-1
 759 1181 l 1,12,-1
 693 991 l 1,13,14
 764 925 764 925 809 810 c 128,-1,15
 854 695 854 695 854 531 c 0,16,17
 854 393 854 393 822 290 c 128,-1,18
 790 187 790 187 736.5 118 c 128,-1,19
 683 49 683 49 614 15 c 128,-1,20
 545 -19 545 -19 470 -19 c 0,21,22
 408 -19 408 -19 350 4 c 1,23,-1
 288 -176 l 1,24,-1
 141 -121 l 1,25,-1
 218 100 l 1,0,1
496 903 m 1,26,27
 482 906 482 906 470 906 c 0,28,29
 434 906 434 906 399 886.5 c 128,-1,30
 364 867 364 867 335.5 822.5 c 128,-1,31
 307 778 307 778 289.5 706.5 c 128,-1,32
 272 635 272 635 272 531 c 0,33,34
 272 468 272 468 278.5 418 c 128,-1,35
 285 368 285 368 297 328 c 1,36,-1
 496 903 l 1,26,27
408 170 m 1,37,38
 436 156 436 156 470 156 c 0,39,40
 506 156 506 156 541 175.5 c 128,-1,41
 576 195 576 195 604.5 239 c 128,-1,42
 633 283 633 283 650.5 355 c 128,-1,43
 668 427 668 427 668 531 c 0,44,45
 668 617 668 617 655.5 680 c 128,-1,46
 643 743 643 743 623 788 c 1,47,-1
 408 170 l 1,37,38
EndSplineSet
EndChar

StartChar: ldot
Encoding: 320 320 174
Width: 852
Flags: W
LayerCount: 2
Fore
SplineSet
145 1593 m 1,0,-1
 323 1593 l 1,1,-1
 323 0 l 1,2,-1
 145 0 l 1,3,-1
 145 1593 l 1,0,-1
647 616 m 0,4,5
 615 616 615 616 589.5 627 c 128,-1,6
 564 638 564 638 546 656 c 128,-1,7
 528 674 528 674 518 698 c 128,-1,8
 508 722 508 722 508 749 c 256,9,10
 508 776 508 776 518 800 c 128,-1,11
 528 824 528 824 546 842.5 c 128,-1,12
 564 861 564 861 589.5 872 c 128,-1,13
 615 883 615 883 647 883 c 0,14,15
 678 883 678 883 704 872 c 128,-1,16
 730 861 730 861 748 842.5 c 128,-1,17
 766 824 766 824 776 800 c 128,-1,18
 786 776 786 776 786 749 c 256,19,20
 786 722 786 722 776 698 c 128,-1,21
 766 674 766 674 748 656 c 128,-1,22
 730 638 730 638 704 627 c 128,-1,23
 678 616 678 616 647 616 c 0,4,5
EndSplineSet
EndChar

StartChar: lslash
Encoding: 322 322 175
Width: 469
Flags: W
LayerCount: 2
Fore
SplineSet
145 694 m 1,0,-1
 1 600 l 1,1,-1
 -92 740 l 1,2,-1
 145 895 l 1,3,-1
 145 1593 l 1,4,-1
 323 1593 l 1,5,-1
 323 1012 l 1,6,-1
 428 1081 l 1,7,-1
 521 941 l 1,8,-1
 323 811 l 1,9,-1
 323 0 l 1,10,-1
 145 0 l 1,11,-1
 145 694 l 1,0,-1
EndSplineSet
EndChar

StartChar: asciitilde
Encoding: 126 126 176
Width: 1110
Flags: W
LayerCount: 2
Fore
SplineSet
139 810 m 1,0,1
 160 840 160 840 191 869.5 c 128,-1,2
 222 899 222 899 258.5 922.5 c 128,-1,3
 295 946 295 946 335.5 960.5 c 128,-1,4
 376 975 376 975 415 975 c 0,5,6
 453 975 453 975 489.5 958.5 c 128,-1,7
 526 942 526 942 561 922 c 128,-1,8
 596 902 596 902 630 885.5 c 128,-1,9
 664 869 664 869 697 869 c 0,10,11
 733 869 733 869 780.5 893 c 128,-1,12
 828 917 828 917 873 965 c 1,13,-1
 969 845 l 1,14,15
 949 815 949 815 919 785.5 c 128,-1,16
 889 756 889 756 853.5 732.5 c 128,-1,17
 818 709 818 709 779.5 694.5 c 128,-1,18
 741 680 741 680 704 680 c 0,19,20
 663 680 663 680 625 696.5 c 128,-1,21
 587 713 587 713 551 733 c 128,-1,22
 515 753 515 753 480 769.5 c 128,-1,23
 445 786 445 786 411 786 c 0,24,25
 375 786 375 786 327.5 762 c 128,-1,26
 280 738 280 738 235 690 c 1,27,-1
 139 810 l 1,0,1
EndSplineSet
EndChar

StartChar: cedilla
Encoding: 184 184 177
Width: 676
Flags: W
LayerCount: 2
Fore
SplineSet
250 63 m 1,0,-1
 387 63 l 1,1,-1
 315 -83 l 1,2,3
 350 -89 350 -89 383 -104 c 128,-1,4
 416 -119 416 -119 441 -142 c 128,-1,5
 466 -165 466 -165 481 -197 c 128,-1,6
 496 -229 496 -229 496 -269 c 0,7,8
 496 -318 496 -318 473 -362 c 128,-1,9
 450 -406 450 -406 407 -441 c 128,-1,10
 364 -476 364 -476 302.5 -499.5 c 128,-1,11
 241 -523 241 -523 164 -531 c 1,12,-1
 128 -395 l 1,13,14
 221 -387 221 -387 274.5 -354.5 c 128,-1,15
 328 -322 328 -322 328 -274 c 0,16,17
 328 -242 328 -242 300.5 -220.5 c 128,-1,18
 273 -199 273 -199 220 -199 c 0,19,20
 197 -199 197 -199 172.5 -203.5 c 128,-1,21
 148 -208 148 -208 125 -216 c 1,22,-1
 250 63 l 1,0,-1
EndSplineSet
EndChar

StartChar: ccedilla
Encoding: 231 231 178
Width: 762
Flags: W
LayerCount: 2
Fore
SplineSet
379 -5 m 1,0,1
 315 13 315 13 262 55 c 128,-1,2
 209 97 209 97 170.5 164 c 128,-1,3
 132 231 132 231 111 322.5 c 128,-1,4
 90 414 90 414 90 531 c 0,5,6
 90 669 90 669 119.5 772 c 128,-1,7
 149 875 149 875 201.5 944 c 128,-1,8
 254 1013 254 1013 325 1047 c 128,-1,9
 396 1081 396 1081 479 1081 c 0,10,11
 540 1081 540 1081 596.5 1062 c 128,-1,12
 653 1043 653 1043 697 1017 c 1,13,-1
 622 862 l 1,14,15
 593 879 593 879 555.5 892.5 c 128,-1,16
 518 906 518 906 479 906 c 256,17,18
 440 906 440 906 403 886 c 128,-1,19
 366 866 366 866 336.5 821 c 128,-1,20
 307 776 307 776 289.5 704.5 c 128,-1,21
 272 633 272 633 272 531 c 256,22,23
 272 429 272 429 289.5 357.5 c 128,-1,24
 307 286 307 286 336.5 241 c 128,-1,25
 366 196 366 196 403 176 c 128,-1,26
 440 156 440 156 479 156 c 256,27,28
 518 156 518 156 555.5 169.5 c 128,-1,29
 593 183 593 183 622 200 c 1,30,-1
 697 45 l 1,31,32
 658 22 658 22 609.5 4.5 c 128,-1,33
 561 -13 561 -13 507 -17 c 1,34,-1
 475 -83 l 1,35,36
 510 -89 510 -89 543 -104 c 128,-1,37
 576 -119 576 -119 601 -142 c 128,-1,38
 626 -165 626 -165 641 -197 c 128,-1,39
 656 -229 656 -229 656 -269 c 0,40,41
 656 -318 656 -318 633 -362 c 128,-1,42
 610 -406 610 -406 567 -441 c 128,-1,43
 524 -476 524 -476 462.5 -499.5 c 128,-1,44
 401 -523 401 -523 324 -531 c 1,45,-1
 288 -395 l 1,46,47
 381 -387 381 -387 434.5 -354.5 c 128,-1,48
 488 -322 488 -322 488 -274 c 0,49,50
 488 -242 488 -242 460.5 -220.5 c 128,-1,51
 433 -199 433 -199 380 -199 c 0,52,53
 357 -199 357 -199 332.5 -203.5 c 128,-1,54
 308 -208 308 -208 285 -216 c 1,55,-1
 379 -5 l 1,0,1
EndSplineSet
EndChar

StartChar: dotlessj
Encoding: 567 567 179
Width: 569
Flags: W
LayerCount: 2
Fore
SplineSet
39 -210 m 1,0,1
 88 -178 88 -178 120 -142 c 128,-1,2
 152 -106 152 -106 171 -64.5 c 128,-1,3
 190 -23 190 -23 197.5 23.5 c 128,-1,4
 205 70 205 70 205 123 c 2,5,-1
 205 1062 l 1,6,-1
 383 1062 l 1,7,-1
 383 123 l 2,8,9
 383 46 383 46 369.5 -23.5 c 128,-1,10
 356 -93 356 -93 326 -153 c 128,-1,11
 296 -213 296 -213 247 -263.5 c 128,-1,12
 198 -314 198 -314 126 -354 c 1,13,-1
 39 -210 l 1,14,-1
 39 -210 l 1,0,1
EndSplineSet
EndChar

StartChar: ring
Encoding: 730 730 180
Width: 686
Flags: W
LayerCount: 2
Fore
SplineSet
345 1253 m 256,0,1
 300 1253 300 1253 258.5 1270 c 128,-1,2
 217 1287 217 1287 185.5 1317.5 c 128,-1,3
 154 1348 154 1348 135.5 1390.5 c 128,-1,4
 117 1433 117 1433 117 1485 c 256,5,6
 117 1537 117 1537 135.5 1579.5 c 128,-1,7
 154 1622 154 1622 185.5 1652.5 c 128,-1,8
 217 1683 217 1683 258.5 1700 c 128,-1,9
 300 1717 300 1717 345 1717 c 256,10,11
 390 1717 390 1717 431 1700 c 128,-1,12
 472 1683 472 1683 503.5 1652.5 c 128,-1,13
 535 1622 535 1622 554 1579.5 c 128,-1,14
 573 1537 573 1537 573 1485 c 256,15,16
 573 1433 573 1433 554 1390.5 c 128,-1,17
 535 1348 535 1348 503.5 1317.5 c 128,-1,18
 472 1287 472 1287 431 1270 c 128,-1,19
 390 1253 390 1253 345 1253 c 256,0,1
345 1380 m 256,20,21
 390 1380 390 1380 417 1406.5 c 128,-1,22
 444 1433 444 1433 444 1485 c 256,23,24
 444 1537 444 1537 417 1563.5 c 128,-1,25
 390 1590 390 1590 345 1590 c 256,26,27
 300 1590 300 1590 273 1563.5 c 128,-1,28
 246 1537 246 1537 246 1485 c 256,29,30
 246 1433 246 1433 273 1406.5 c 128,-1,31
 300 1380 300 1380 345 1380 c 256,20,21
EndSplineSet
EndChar

StartChar: aring
Encoding: 229 229 181
Width: 879
Flags: W
LayerCount: 2
Fore
SplineSet
422 1253 m 256,0,1
 377 1253 377 1253 335.5 1270 c 128,-1,2
 294 1287 294 1287 262.5 1317.5 c 128,-1,3
 231 1348 231 1348 212.5 1390.5 c 128,-1,4
 194 1433 194 1433 194 1485 c 256,5,6
 194 1537 194 1537 212.5 1579.5 c 128,-1,7
 231 1622 231 1622 262.5 1652.5 c 128,-1,8
 294 1683 294 1683 335.5 1700 c 128,-1,9
 377 1717 377 1717 422 1717 c 256,10,11
 467 1717 467 1717 508 1700 c 128,-1,12
 549 1683 549 1683 580.5 1652.5 c 128,-1,13
 612 1622 612 1622 631 1579.5 c 128,-1,14
 650 1537 650 1537 650 1485 c 256,15,16
 650 1433 650 1433 631 1390.5 c 128,-1,17
 612 1348 612 1348 580.5 1317.5 c 128,-1,18
 549 1287 549 1287 508 1270 c 128,-1,19
 467 1253 467 1253 422 1253 c 256,0,1
422 1380 m 256,20,21
 467 1380 467 1380 494 1406.5 c 128,-1,22
 521 1433 521 1433 521 1485 c 256,23,24
 521 1537 521 1537 494 1563.5 c 128,-1,25
 467 1590 467 1590 422 1590 c 256,26,27
 377 1590 377 1590 350 1563.5 c 128,-1,28
 323 1537 323 1537 323 1485 c 256,29,30
 323 1433 323 1433 350 1406.5 c 128,-1,31
 377 1380 377 1380 422 1380 c 256,20,21
104 332 m 0,32,33
 104 494 104 494 218.5 587 c 128,-1,34
 333 680 333 680 556 691 c 1,35,-1
 556 712 l 2,36,37
 556 806 556 806 511.5 859 c 128,-1,38
 467 912 467 912 390 912 c 0,39,40
 350 912 350 912 307.5 897.5 c 128,-1,41
 265 883 265 883 223 859 c 1,42,-1
 155 1019 l 1,43,44
 218 1051 218 1051 287 1066 c 128,-1,45
 356 1081 356 1081 412 1081 c 0,46,47
 484 1081 484 1081 543 1056 c 128,-1,48
 602 1031 602 1031 644 984.5 c 128,-1,49
 686 938 686 938 709 871 c 128,-1,50
 732 804 732 804 732 719 c 2,51,-1
 732 -19 l 1,52,-1
 601 45 l 1,53,54
 563 15 563 15 516.5 -2 c 128,-1,55
 470 -19 470 -19 416 -19 c 0,56,57
 348 -19 348 -19 290.5 8.5 c 128,-1,58
 233 36 233 36 191.5 83 c 128,-1,59
 150 130 150 130 127 194 c 128,-1,60
 104 258 104 258 104 332 c 0,32,33
285 329 m 0,61,62
 285 292 285 292 296 260.5 c 128,-1,63
 307 229 307 229 327 205.5 c 128,-1,64
 347 182 347 182 375 169 c 128,-1,65
 403 156 403 156 437 156 c 0,66,67
 472 156 472 156 504 169 c 128,-1,68
 536 182 536 182 556 202 c 1,69,-1
 556 531 l 1,70,71
 492 532 492 532 442 518.5 c 128,-1,72
 392 505 392 505 357 478.5 c 128,-1,73
 322 452 322 452 303.5 414.5 c 128,-1,74
 285 377 285 377 285 329 c 0,61,62
EndSplineSet
EndChar

StartChar: commaaccent
Encoding: 65539 -1 182
Width: 449
Flags: W
LayerCount: 2
Fore
SplineSet
94 -188 m 0,0,1
 94 -167 94 -167 103 -147.5 c 128,-1,2
 112 -128 112 -128 128 -113 c 128,-1,3
 144 -98 144 -98 167 -89.5 c 128,-1,4
 190 -81 190 -81 219 -81 c 0,5,6
 246 -81 246 -81 270 -89.5 c 128,-1,7
 294 -98 294 -98 312 -114.5 c 128,-1,8
 330 -131 330 -131 341 -156.5 c 128,-1,9
 352 -182 352 -182 352 -215 c 0,10,11
 352 -339 352 -339 173 -503 c 1,12,-1
 94 -436 l 1,13,14
 113 -420 113 -420 131.5 -401.5 c 128,-1,15
 150 -383 150 -383 165 -364 c 128,-1,16
 180 -345 180 -345 190.5 -327 c 128,-1,17
 201 -309 201 -309 206 -293 c 1,18,19
 155 -288 155 -288 124.5 -257.5 c 128,-1,20
 94 -227 94 -227 94 -188 c 0,0,1
EndSplineSet
EndChar

StartChar: kcommaaccent
Encoding: 311 311 183
Width: 918
Flags: W
LayerCount: 2
Fore
SplineSet
145 1593 m 1,0,-1
 323 1593 l 1,1,-1
 323 571 l 1,2,-1
 324 571 l 1,3,-1
 619 1062 l 1,4,-1
 809 1062 l 1,5,-1
 494 545 l 1,6,-1
 862 0 l 1,7,-1
 642 0 l 1,8,-1
 323 482 l 1,9,-1
 323 0 l 1,10,-1
 145 0 l 1,11,-1
 145 1593 l 1,0,-1
309 -188 m 0,12,13
 309 -167 309 -167 318 -147.5 c 128,-1,14
 327 -128 327 -128 343 -113 c 128,-1,15
 359 -98 359 -98 382 -89.5 c 128,-1,16
 405 -81 405 -81 434 -81 c 0,17,18
 461 -81 461 -81 485 -89.5 c 128,-1,19
 509 -98 509 -98 527 -114.5 c 128,-1,20
 545 -131 545 -131 556 -156.5 c 128,-1,21
 567 -182 567 -182 567 -215 c 0,22,23
 567 -339 567 -339 388 -503 c 1,24,-1
 309 -436 l 1,25,26
 328 -420 328 -420 346.5 -401.5 c 128,-1,27
 365 -383 365 -383 380 -364 c 128,-1,28
 395 -345 395 -345 405.5 -327 c 128,-1,29
 416 -309 416 -309 421 -293 c 1,30,31
 370 -288 370 -288 339.5 -257.5 c 128,-1,32
 309 -227 309 -227 309 -188 c 0,12,13
EndSplineSet
EndChar

StartChar: rcommaaccent
Encoding: 343 343 184
Width: 631
Flags: W
LayerCount: 2
Fore
SplineSet
145 1081 m 1,0,-1
 296 976 l 1,1,2
 358 1024 358 1024 429 1051.5 c 128,-1,3
 500 1079 500 1079 576 1079 c 1,4,-1
 576 893 l 1,5,6
 496 893 496 893 434.5 876 c 128,-1,7
 373 859 373 859 328 811 c 1,8,-1
 328 0 l 1,9,-1
 145 0 l 1,10,-1
 145 1081 l 1,0,-1
166 -188 m 0,11,12
 166 -167 166 -167 175 -147.5 c 128,-1,13
 184 -128 184 -128 200 -113 c 128,-1,14
 216 -98 216 -98 239 -89.5 c 128,-1,15
 262 -81 262 -81 291 -81 c 0,16,17
 318 -81 318 -81 342 -89.5 c 128,-1,18
 366 -98 366 -98 384 -114.5 c 128,-1,19
 402 -131 402 -131 413 -156.5 c 128,-1,20
 424 -182 424 -182 424 -215 c 0,21,22
 424 -339 424 -339 245 -503 c 1,23,-1
 166 -436 l 1,24,25
 185 -420 185 -420 203.5 -401.5 c 128,-1,26
 222 -383 222 -383 237 -364 c 128,-1,27
 252 -345 252 -345 262.5 -327 c 128,-1,28
 273 -309 273 -309 278 -293 c 1,29,30
 227 -288 227 -288 196.5 -257.5 c 128,-1,31
 166 -227 166 -227 166 -188 c 0,11,12
EndSplineSet
EndChar

StartChar: ordfeminine
Encoding: 170 170 185
Width: 651
Flags: W
LayerCount: 2
Fore
SplineSet
331 885 m 0,0,1
 286 885 286 885 246.5 903 c 128,-1,2
 207 921 207 921 178.5 952.5 c 128,-1,3
 150 984 150 984 133.5 1026.5 c 128,-1,4
 117 1069 117 1069 117 1118 c 0,5,6
 117 1222 117 1222 194.5 1284.5 c 128,-1,7
 272 1347 272 1347 428 1355 c 1,8,9
 426 1414 426 1414 400.5 1447.5 c 128,-1,10
 375 1481 375 1481 326 1481 c 0,11,12
 300 1481 300 1481 271 1471.5 c 128,-1,13
 242 1462 242 1462 214 1446 c 1,14,-1
 159 1571 l 1,15,16
 202 1592 202 1592 247.5 1602 c 128,-1,17
 293 1612 293 1612 333 1612 c 0,18,19
 385 1612 385 1612 427.5 1595.5 c 128,-1,20
 470 1579 470 1579 500.5 1548.5 c 128,-1,21
 531 1518 531 1518 547.5 1473.5 c 128,-1,22
 564 1429 564 1429 564 1373 c 2,23,-1
 564 885 l 1,24,-1
 462 936 l 1,25,26
 436 912 436 912 403 898.5 c 128,-1,27
 370 885 370 885 331 885 c 0,0,1
353 1021 m 0,28,29
 376 1021 376 1021 395.5 1029 c 128,-1,30
 415 1037 415 1037 428 1050 c 1,31,-1
 428 1229 l 1,32,33
 347 1231 347 1231 303.5 1202.5 c 128,-1,34
 260 1174 260 1174 260 1121 c 0,35,36
 260 1079 260 1079 285 1050 c 128,-1,37
 310 1021 310 1021 353 1021 c 0,28,29
EndSplineSet
EndChar

StartChar: AE
Encoding: 198 198 186
Width: 1278
Flags: W
LayerCount: 2
Fore
SplineSet
603 1593 m 1,0,-1
 1159 1593 l 1,1,-1
 1159 1417 l 1,2,-1
 809 1417 l 1,3,-1
 809 805 l 1,4,-1
 1109 805 l 1,5,-1
 1109 629 l 1,6,-1
 809 629 l 1,7,-1
 809 176 l 1,8,-1
 1159 176 l 1,9,-1
 1159 0 l 1,10,-1
 602 0 l 1,11,-1
 602 265 l 1,12,-1
 307 265 l 1,13,-1
 307 269 l 1,14,-1
 216 0 l 1,15,-1
 16 0 l 1,16,-1
 603 1593 l 1,0,-1
602 441 m 1,17,-1
 602 1144 l 1,18,-1
 365 441 l 1,19,-1
 602 441 l 1,17,-1
EndSplineSet
EndChar

StartChar: grave.cap
Encoding: 65540 -1 187
Width: 696
Flags: W
LayerCount: 2
Fore
SplineSet
92 1867 m 1,0,-1
 159 2020 l 1,1,-1
 602 1825 l 1,2,-1
 534 1671 l 1,3,-1
 92 1867 l 1,0,-1
EndSplineSet
EndChar

StartChar: Agrave
Encoding: 192 192 188
Width: 981
Flags: W
LayerCount: 2
Fore
SplineSet
242 1850 m 1,0,-1
 309 2003 l 1,1,-1
 752 1808 l 1,2,-1
 684 1654 l 1,3,-1
 242 1850 l 1,0,-1
490 1642 m 1,4,-1
 953 0 l 1,5,-1
 753 0 l 1,6,-1
 683 265 l 1,7,-1
 296 265 l 1,8,-1
 227 0 l 1,9,-1
 27 0 l 1,10,-1
 490 1642 l 1,4,-1
637 441 m 1,11,-1
 530 852 l 1,12,-1
 489 1042 l 1,13,-1
 450 852 l 1,14,-1
 342 441 l 1,15,-1
 637 441 l 1,11,-1
EndSplineSet
EndChar

StartChar: Aacute
Encoding: 193 193 189
Width: 981
Flags: W
LayerCount: 2
Fore
SplineSet
202 1825 m 1,0,-1
 645 2020 l 1,1,-1
 712 1867 l 1,2,-1
 270 1671 l 1,3,-1
 202 1825 l 1,0,-1
490 1642 m 1,4,-1
 953 0 l 1,5,-1
 753 0 l 1,6,-1
 683 265 l 1,7,-1
 296 265 l 1,8,-1
 227 0 l 1,9,-1
 27 0 l 1,10,-1
 490 1642 l 1,4,-1
637 441 m 1,11,-1
 530 852 l 1,12,-1
 489 1042 l 1,13,-1
 450 852 l 1,14,-1
 342 441 l 1,15,-1
 637 441 l 1,11,-1
EndSplineSet
EndChar

StartChar: acute.cap
Encoding: 65541 -1 190
Width: 696
Flags: W
LayerCount: 2
Fore
SplineSet
96 1825 m 1,0,-1
 539 2020 l 1,1,-1
 606 1867 l 1,2,-1
 164 1671 l 1,3,-1
 96 1825 l 1,0,-1
EndSplineSet
EndChar

StartChar: circumflex.cap
Encoding: 65542 -1 191
Width: 776
Flags: W
LayerCount: 2
Fore
SplineSet
72 1857 m 1,0,-1
 388 2020 l 1,1,-1
 704 1857 l 1,2,-1
 628 1719 l 1,3,-1
 388 1840 l 1,4,-1
 148 1719 l 1,5,-1
 72 1857 l 1,0,-1
EndSplineSet
EndChar

StartChar: dieresis.cap
Encoding: 65543 -1 192
Width: 823
Flags: W
LayerCount: 2
Fore
SplineSet
599 1699 m 256,0,1
 570 1699 570 1699 546 1709 c 128,-1,2
 522 1719 522 1719 505 1736 c 128,-1,3
 488 1753 488 1753 479 1775.5 c 128,-1,4
 470 1798 470 1798 470 1823 c 256,5,6
 470 1848 470 1848 479 1870.5 c 128,-1,7
 488 1893 488 1893 505 1910 c 128,-1,8
 522 1927 522 1927 546 1937 c 128,-1,9
 570 1947 570 1947 599 1947 c 256,10,11
 628 1947 628 1947 652 1937 c 128,-1,12
 676 1927 676 1927 693 1910 c 128,-1,13
 710 1893 710 1893 719 1870.5 c 128,-1,14
 728 1848 728 1848 728 1823 c 256,15,16
 728 1798 728 1798 719 1775.5 c 128,-1,17
 710 1753 710 1753 693 1736 c 128,-1,18
 676 1719 676 1719 652 1709 c 128,-1,19
 628 1699 628 1699 599 1699 c 256,0,1
223 1699 m 256,20,21
 194 1699 194 1699 170 1709 c 128,-1,22
 146 1719 146 1719 129 1736 c 128,-1,23
 112 1753 112 1753 103 1775.5 c 128,-1,24
 94 1798 94 1798 94 1823 c 256,25,26
 94 1848 94 1848 103 1870.5 c 128,-1,27
 112 1893 112 1893 129 1910 c 128,-1,28
 146 1927 146 1927 170 1937 c 128,-1,29
 194 1947 194 1947 223 1947 c 256,30,31
 252 1947 252 1947 276 1937 c 128,-1,32
 300 1927 300 1927 317 1910 c 128,-1,33
 334 1893 334 1893 343 1870.5 c 128,-1,34
 352 1848 352 1848 352 1823 c 256,35,36
 352 1798 352 1798 343 1775.5 c 128,-1,37
 334 1753 334 1753 317 1736 c 128,-1,38
 300 1719 300 1719 276 1709 c 128,-1,39
 252 1699 252 1699 223 1699 c 256,20,21
EndSplineSet
EndChar

StartChar: Acircumflex
Encoding: 194 194 193
Width: 981
Flags: W
LayerCount: 2
Fore
SplineSet
169 1838 m 1,0,-1
 485 2001 l 1,1,-1
 801 1838 l 1,2,-1
 725 1700 l 1,3,-1
 485 1821 l 1,4,-1
 245 1700 l 1,5,-1
 169 1838 l 1,0,-1
490 1642 m 1,6,-1
 953 0 l 1,7,-1
 753 0 l 1,8,-1
 683 265 l 1,9,-1
 296 265 l 1,10,-1
 227 0 l 1,11,-1
 27 0 l 1,12,-1
 490 1642 l 1,6,-1
637 441 m 1,13,-1
 530 852 l 1,14,-1
 489 1042 l 1,15,-1
 450 852 l 1,16,-1
 342 441 l 1,17,-1
 637 441 l 1,13,-1
EndSplineSet
EndChar

StartChar: Adieresis
Encoding: 196 196 194
Width: 981
Flags: W
LayerCount: 2
Fore
SplineSet
670 1699 m 256,0,1
 641 1699 641 1699 617 1709 c 128,-1,2
 593 1719 593 1719 576 1736 c 128,-1,3
 559 1753 559 1753 550 1775.5 c 128,-1,4
 541 1798 541 1798 541 1823 c 256,5,6
 541 1848 541 1848 550 1870.5 c 128,-1,7
 559 1893 559 1893 576 1910 c 128,-1,8
 593 1927 593 1927 617 1937 c 128,-1,9
 641 1947 641 1947 670 1947 c 256,10,11
 699 1947 699 1947 723 1937 c 128,-1,12
 747 1927 747 1927 764 1910 c 128,-1,13
 781 1893 781 1893 790 1870.5 c 128,-1,14
 799 1848 799 1848 799 1823 c 256,15,16
 799 1798 799 1798 790 1775.5 c 128,-1,17
 781 1753 781 1753 764 1736 c 128,-1,18
 747 1719 747 1719 723 1709 c 128,-1,19
 699 1699 699 1699 670 1699 c 256,0,1
294 1699 m 256,20,21
 265 1699 265 1699 241 1709 c 128,-1,22
 217 1719 217 1719 200 1736 c 128,-1,23
 183 1753 183 1753 174 1775.5 c 128,-1,24
 165 1798 165 1798 165 1823 c 256,25,26
 165 1848 165 1848 174 1870.5 c 128,-1,27
 183 1893 183 1893 200 1910 c 128,-1,28
 217 1927 217 1927 241 1937 c 128,-1,29
 265 1947 265 1947 294 1947 c 256,30,31
 323 1947 323 1947 347 1937 c 128,-1,32
 371 1927 371 1927 388 1910 c 128,-1,33
 405 1893 405 1893 414 1870.5 c 128,-1,34
 423 1848 423 1848 423 1823 c 256,35,36
 423 1798 423 1798 414 1775.5 c 128,-1,37
 405 1753 405 1753 388 1736 c 128,-1,38
 371 1719 371 1719 347 1709 c 128,-1,39
 323 1699 323 1699 294 1699 c 256,20,21
490 1642 m 1,40,-1
 953 0 l 1,41,-1
 753 0 l 1,42,-1
 683 265 l 1,43,-1
 296 265 l 1,44,-1
 227 0 l 1,45,-1
 27 0 l 1,46,-1
 490 1642 l 1,40,-1
637 441 m 1,47,-1
 530 852 l 1,48,-1
 489 1042 l 1,49,-1
 450 852 l 1,50,-1
 342 441 l 1,51,-1
 637 441 l 1,47,-1
EndSplineSet
EndChar

StartChar: Egrave
Encoding: 200 200 195
Width: 825
Flags: W
LayerCount: 2
Fore
SplineSet
184 1867 m 1,0,-1
 251 2020 l 1,1,-1
 694 1825 l 1,2,-1
 626 1671 l 1,3,-1
 184 1867 l 1,0,-1
170 1593 m 1,4,-1
 706 1593 l 1,5,-1
 706 1417 l 1,6,-1
 356 1417 l 1,7,-1
 356 805 l 1,8,-1
 656 805 l 1,9,-1
 656 629 l 1,10,-1
 356 629 l 1,11,-1
 356 176 l 1,12,-1
 706 176 l 1,13,-1
 706 0 l 1,14,-1
 170 0 l 1,15,-1
 170 1593 l 1,4,-1
EndSplineSet
EndChar

StartChar: Eacute
Encoding: 201 201 196
Width: 825
Flags: W
LayerCount: 2
Fore
SplineSet
178 1825 m 1,0,-1
 621 2020 l 1,1,-1
 688 1867 l 1,2,-1
 246 1671 l 1,3,-1
 178 1825 l 1,0,-1
170 1593 m 1,4,-1
 706 1593 l 1,5,-1
 706 1417 l 1,6,-1
 356 1417 l 1,7,-1
 356 805 l 1,8,-1
 656 805 l 1,9,-1
 656 629 l 1,10,-1
 356 629 l 1,11,-1
 356 176 l 1,12,-1
 706 176 l 1,13,-1
 706 0 l 1,14,-1
 170 0 l 1,15,-1
 170 1593 l 1,4,-1
EndSplineSet
EndChar

StartChar: Ecircumflex
Encoding: 202 202 197
Width: 825
Flags: W
LayerCount: 2
Fore
SplineSet
102 1857 m 1,0,-1
 418 2020 l 1,1,-1
 734 1857 l 1,2,-1
 658 1719 l 1,3,-1
 418 1840 l 1,4,-1
 178 1719 l 1,5,-1
 102 1857 l 1,0,-1
170 1593 m 1,6,-1
 706 1593 l 1,7,-1
 706 1417 l 1,8,-1
 356 1417 l 1,9,-1
 356 805 l 1,10,-1
 656 805 l 1,11,-1
 656 629 l 1,12,-1
 356 629 l 1,13,-1
 356 176 l 1,14,-1
 706 176 l 1,15,-1
 706 0 l 1,16,-1
 170 0 l 1,17,-1
 170 1593 l 1,6,-1
EndSplineSet
EndChar

StartChar: Edieresis
Encoding: 203 203 198
Width: 825
Flags: W
LayerCount: 2
Fore
SplineSet
618 1699 m 256,0,1
 589 1699 589 1699 565 1709 c 128,-1,2
 541 1719 541 1719 524 1736 c 128,-1,3
 507 1753 507 1753 498 1775.5 c 128,-1,4
 489 1798 489 1798 489 1823 c 256,5,6
 489 1848 489 1848 498 1870.5 c 128,-1,7
 507 1893 507 1893 524 1910 c 128,-1,8
 541 1927 541 1927 565 1937 c 128,-1,9
 589 1947 589 1947 618 1947 c 256,10,11
 647 1947 647 1947 671 1937 c 128,-1,12
 695 1927 695 1927 712 1910 c 128,-1,13
 729 1893 729 1893 738 1870.5 c 128,-1,14
 747 1848 747 1848 747 1823 c 256,15,16
 747 1798 747 1798 738 1775.5 c 128,-1,17
 729 1753 729 1753 712 1736 c 128,-1,18
 695 1719 695 1719 671 1709 c 128,-1,19
 647 1699 647 1699 618 1699 c 256,0,1
242 1699 m 256,20,21
 213 1699 213 1699 189 1709 c 128,-1,22
 165 1719 165 1719 148 1736 c 128,-1,23
 131 1753 131 1753 122 1775.5 c 128,-1,24
 113 1798 113 1798 113 1823 c 256,25,26
 113 1848 113 1848 122 1870.5 c 128,-1,27
 131 1893 131 1893 148 1910 c 128,-1,28
 165 1927 165 1927 189 1937 c 128,-1,29
 213 1947 213 1947 242 1947 c 256,30,31
 271 1947 271 1947 295 1937 c 128,-1,32
 319 1927 319 1927 336 1910 c 128,-1,33
 353 1893 353 1893 362 1870.5 c 128,-1,34
 371 1848 371 1848 371 1823 c 256,35,36
 371 1798 371 1798 362 1775.5 c 128,-1,37
 353 1753 353 1753 336 1736 c 128,-1,38
 319 1719 319 1719 295 1709 c 128,-1,39
 271 1699 271 1699 242 1699 c 256,20,21
170 1593 m 1,40,-1
 706 1593 l 1,41,-1
 706 1417 l 1,42,-1
 356 1417 l 1,43,-1
 356 805 l 1,44,-1
 656 805 l 1,45,-1
 656 629 l 1,46,-1
 356 629 l 1,47,-1
 356 176 l 1,48,-1
 706 176 l 1,49,-1
 706 0 l 1,50,-1
 170 0 l 1,51,-1
 170 1593 l 1,40,-1
EndSplineSet
EndChar

StartChar: Igrave
Encoding: 204 204 199
Width: 526
Flags: W
LayerCount: 2
Fore
SplineSet
31 1867 m 1,0,-1
 98 2020 l 1,1,-1
 541 1825 l 1,2,-1
 473 1671 l 1,3,-1
 31 1867 l 1,0,-1
170 1593 m 1,4,-1
 356 1593 l 1,5,-1
 356 0 l 1,6,-1
 170 0 l 1,7,-1
 170 1593 l 1,4,-1
EndSplineSet
EndChar

StartChar: Iacute
Encoding: 205 205 200
Width: 526
Flags: W
LayerCount: 2
Fore
SplineSet
-7 1825 m 1,0,-1
 436 2020 l 1,1,-1
 503 1867 l 1,2,-1
 61 1671 l 1,3,-1
 -7 1825 l 1,0,-1
170 1593 m 1,4,-1
 356 1593 l 1,5,-1
 356 0 l 1,6,-1
 170 0 l 1,7,-1
 170 1593 l 1,4,-1
EndSplineSet
EndChar

StartChar: Icircumflex
Encoding: 206 206 201
Width: 526
Flags: W
LayerCount: 2
Fore
SplineSet
-53 1857 m 1,0,-1
 263 2020 l 1,1,-1
 579 1857 l 1,2,-1
 503 1719 l 1,3,-1
 263 1840 l 1,4,-1
 23 1719 l 1,5,-1
 -53 1857 l 1,0,-1
170 1593 m 1,6,-1
 356 1593 l 1,7,-1
 356 0 l 1,8,-1
 170 0 l 1,9,-1
 170 1593 l 1,6,-1
EndSplineSet
EndChar

StartChar: Idieresis
Encoding: 207 207 202
Width: 526
Flags: W
LayerCount: 2
Fore
SplineSet
451 1699 m 256,0,1
 422 1699 422 1699 398 1709 c 128,-1,2
 374 1719 374 1719 357 1736 c 128,-1,3
 340 1753 340 1753 331 1775.5 c 128,-1,4
 322 1798 322 1798 322 1823 c 256,5,6
 322 1848 322 1848 331 1870.5 c 128,-1,7
 340 1893 340 1893 357 1910 c 128,-1,8
 374 1927 374 1927 398 1937 c 128,-1,9
 422 1947 422 1947 451 1947 c 256,10,11
 480 1947 480 1947 504 1937 c 128,-1,12
 528 1927 528 1927 545 1910 c 128,-1,13
 562 1893 562 1893 571 1870.5 c 128,-1,14
 580 1848 580 1848 580 1823 c 256,15,16
 580 1798 580 1798 571 1775.5 c 128,-1,17
 562 1753 562 1753 545 1736 c 128,-1,18
 528 1719 528 1719 504 1709 c 128,-1,19
 480 1699 480 1699 451 1699 c 256,0,1
75 1699 m 256,20,21
 46 1699 46 1699 22 1709 c 128,-1,22
 -2 1719 -2 1719 -19 1736 c 128,-1,23
 -36 1753 -36 1753 -45 1775.5 c 128,-1,24
 -54 1798 -54 1798 -54 1823 c 256,25,26
 -54 1848 -54 1848 -45 1870.5 c 128,-1,27
 -36 1893 -36 1893 -19 1910 c 128,-1,28
 -2 1927 -2 1927 22 1937 c 128,-1,29
 46 1947 46 1947 75 1947 c 256,30,31
 104 1947 104 1947 128 1937 c 128,-1,32
 152 1927 152 1927 169 1910 c 128,-1,33
 186 1893 186 1893 195 1870.5 c 128,-1,34
 204 1848 204 1848 204 1823 c 256,35,36
 204 1798 204 1798 195 1775.5 c 128,-1,37
 186 1753 186 1753 169 1736 c 128,-1,38
 152 1719 152 1719 128 1709 c 128,-1,39
 104 1699 104 1699 75 1699 c 256,20,21
170 1593 m 1,40,-1
 356 1593 l 1,41,-1
 356 0 l 1,42,-1
 170 0 l 1,43,-1
 170 1593 l 1,40,-1
EndSplineSet
EndChar

StartChar: Jcircumflex
Encoding: 308 308 203
Width: 588
Flags: W
LayerCount: 2
Fore
SplineSet
69 1857 m 1,0,-1
 385 2020 l 1,1,-1
 701 1857 l 1,2,-1
 625 1719 l 1,3,-1
 385 1840 l 1,4,-1
 145 1719 l 1,5,-1
 69 1857 l 1,0,-1
55 140 m 1,6,7
 102 173 102 173 135.5 208 c 128,-1,8
 169 243 169 243 190 283.5 c 128,-1,9
 211 324 211 324 221 370.5 c 128,-1,10
 231 417 231 417 231 473 c 2,11,-1
 231 1593 l 1,12,-1
 417 1593 l 1,13,-1
 417 453 l 2,14,15
 417 376 417 376 403 306 c 128,-1,16
 389 236 389 236 357.5 175.5 c 128,-1,17
 326 115 326 115 276.5 64 c 128,-1,18
 227 13 227 13 155 -27 c 1,19,-1
 55 140 l 1,6,7
EndSplineSet
EndChar

StartChar: Nacute
Encoding: 323 323 204
Width: 1126
Flags: W
LayerCount: 2
Fore
SplineSet
284 1825 m 1,0,-1
 727 2020 l 1,1,-1
 794 1867 l 1,2,-1
 352 1671 l 1,3,-1
 284 1825 l 1,0,-1
166 1654 m 1,4,-1
 667 819 l 1,5,-1
 777 625 l 1,6,-1
 772 816 l 1,7,-1
 772 1593 l 1,8,-1
 957 1593 l 1,9,-1
 957 -34 l 1,10,-1
 455 796 l 1,11,-1
 346 970 l 1,12,-1
 352 796 l 1,13,-1
 352 0 l 1,14,-1
 166 0 l 1,15,-1
 166 1654 l 1,4,-1
EndSplineSet
EndChar

StartChar: Ograve
Encoding: 210 210 205
Width: 1049
Flags: W
LayerCount: 2
Fore
SplineSet
298 1867 m 1,0,-1
 365 2020 l 1,1,-1
 808 1825 l 1,2,-1
 740 1671 l 1,3,-1
 298 1867 l 1,0,-1
524 -19 m 0,4,5
 476 -19 476 -19 425.5 -4.5 c 128,-1,6
 375 10 375 10 327 45.5 c 128,-1,7
 279 81 279 81 236 140.5 c 128,-1,8
 193 200 193 200 160.5 290.5 c 128,-1,9
 128 381 128 381 109 506 c 128,-1,10
 90 631 90 631 90 796 c 256,11,12
 90 961 90 961 109 1086 c 128,-1,13
 128 1211 128 1211 160.5 1301.5 c 128,-1,14
 193 1392 193 1392 236 1451.5 c 128,-1,15
 279 1511 279 1511 327 1546.5 c 128,-1,16
 375 1582 375 1582 425.5 1596.5 c 128,-1,17
 476 1611 476 1611 524 1611 c 0,18,19
 571 1611 571 1611 622 1596.5 c 128,-1,20
 673 1582 673 1582 721 1546.5 c 128,-1,21
 769 1511 769 1511 812 1451.5 c 128,-1,22
 855 1392 855 1392 887.5 1301.5 c 128,-1,23
 920 1211 920 1211 939 1086 c 128,-1,24
 958 961 958 961 958 796 c 256,25,26
 958 631 958 631 939 506 c 128,-1,27
 920 381 920 381 887.5 290.5 c 128,-1,28
 855 200 855 200 812 140.5 c 128,-1,29
 769 81 769 81 721 45.5 c 128,-1,30
 673 10 673 10 622 -4.5 c 128,-1,31
 571 -19 571 -19 524 -19 c 0,4,5
524 165 m 256,32,33
 566 165 566 165 609 195.5 c 128,-1,34
 652 226 652 226 686.5 298.5 c 128,-1,35
 721 371 721 371 743 492.5 c 128,-1,36
 765 614 765 614 765 796 c 256,37,38
 765 978 765 978 743 1099.5 c 128,-1,39
 721 1221 721 1221 686.5 1293.5 c 128,-1,40
 652 1366 652 1366 609 1396.5 c 128,-1,41
 566 1427 566 1427 524 1427 c 256,42,43
 482 1427 482 1427 439 1396.5 c 128,-1,44
 396 1366 396 1366 361.5 1293.5 c 128,-1,45
 327 1221 327 1221 305 1099.5 c 128,-1,46
 283 978 283 978 283 796 c 256,47,48
 283 614 283 614 305 492.5 c 128,-1,49
 327 371 327 371 361.5 298.5 c 128,-1,50
 396 226 396 226 439 195.5 c 128,-1,51
 482 165 482 165 524 165 c 256,32,33
EndSplineSet
EndChar

StartChar: Oacute
Encoding: 211 211 206
Width: 1049
Flags: W
LayerCount: 2
Fore
SplineSet
251 1825 m 1,0,-1
 694 2020 l 1,1,-1
 761 1867 l 1,2,-1
 319 1671 l 1,3,-1
 251 1825 l 1,0,-1
524 -19 m 0,4,5
 476 -19 476 -19 425.5 -4.5 c 128,-1,6
 375 10 375 10 327 45.5 c 128,-1,7
 279 81 279 81 236 140.5 c 128,-1,8
 193 200 193 200 160.5 290.5 c 128,-1,9
 128 381 128 381 109 506 c 128,-1,10
 90 631 90 631 90 796 c 256,11,12
 90 961 90 961 109 1086 c 128,-1,13
 128 1211 128 1211 160.5 1301.5 c 128,-1,14
 193 1392 193 1392 236 1451.5 c 128,-1,15
 279 1511 279 1511 327 1546.5 c 128,-1,16
 375 1582 375 1582 425.5 1596.5 c 128,-1,17
 476 1611 476 1611 524 1611 c 0,18,19
 571 1611 571 1611 622 1596.5 c 128,-1,20
 673 1582 673 1582 721 1546.5 c 128,-1,21
 769 1511 769 1511 812 1451.5 c 128,-1,22
 855 1392 855 1392 887.5 1301.5 c 128,-1,23
 920 1211 920 1211 939 1086 c 128,-1,24
 958 961 958 961 958 796 c 256,25,26
 958 631 958 631 939 506 c 128,-1,27
 920 381 920 381 887.5 290.5 c 128,-1,28
 855 200 855 200 812 140.5 c 128,-1,29
 769 81 769 81 721 45.5 c 128,-1,30
 673 10 673 10 622 -4.5 c 128,-1,31
 571 -19 571 -19 524 -19 c 0,4,5
524 165 m 256,32,33
 566 165 566 165 609 195.5 c 128,-1,34
 652 226 652 226 686.5 298.5 c 128,-1,35
 721 371 721 371 743 492.5 c 128,-1,36
 765 614 765 614 765 796 c 256,37,38
 765 978 765 978 743 1099.5 c 128,-1,39
 721 1221 721 1221 686.5 1293.5 c 128,-1,40
 652 1366 652 1366 609 1396.5 c 128,-1,41
 566 1427 566 1427 524 1427 c 256,42,43
 482 1427 482 1427 439 1396.5 c 128,-1,44
 396 1366 396 1366 361.5 1293.5 c 128,-1,45
 327 1221 327 1221 305 1099.5 c 128,-1,46
 283 978 283 978 283 796 c 256,47,48
 283 614 283 614 305 492.5 c 128,-1,49
 327 371 327 371 361.5 298.5 c 128,-1,50
 396 226 396 226 439 195.5 c 128,-1,51
 482 165 482 165 524 165 c 256,32,33
EndSplineSet
EndChar

StartChar: Ocircumflex
Encoding: 212 212 207
Width: 1049
Flags: W
LayerCount: 2
Fore
SplineSet
210 1857 m 1,0,-1
 526 2020 l 1,1,-1
 842 1857 l 1,2,-1
 766 1719 l 1,3,-1
 526 1840 l 1,4,-1
 286 1719 l 1,5,-1
 210 1857 l 1,0,-1
524 -19 m 0,6,7
 476 -19 476 -19 425.5 -4.5 c 128,-1,8
 375 10 375 10 327 45.5 c 128,-1,9
 279 81 279 81 236 140.5 c 128,-1,10
 193 200 193 200 160.5 290.5 c 128,-1,11
 128 381 128 381 109 506 c 128,-1,12
 90 631 90 631 90 796 c 256,13,14
 90 961 90 961 109 1086 c 128,-1,15
 128 1211 128 1211 160.5 1301.5 c 128,-1,16
 193 1392 193 1392 236 1451.5 c 128,-1,17
 279 1511 279 1511 327 1546.5 c 128,-1,18
 375 1582 375 1582 425.5 1596.5 c 128,-1,19
 476 1611 476 1611 524 1611 c 0,20,21
 571 1611 571 1611 622 1596.5 c 128,-1,22
 673 1582 673 1582 721 1546.5 c 128,-1,23
 769 1511 769 1511 812 1451.5 c 128,-1,24
 855 1392 855 1392 887.5 1301.5 c 128,-1,25
 920 1211 920 1211 939 1086 c 128,-1,26
 958 961 958 961 958 796 c 256,27,28
 958 631 958 631 939 506 c 128,-1,29
 920 381 920 381 887.5 290.5 c 128,-1,30
 855 200 855 200 812 140.5 c 128,-1,31
 769 81 769 81 721 45.5 c 128,-1,32
 673 10 673 10 622 -4.5 c 128,-1,33
 571 -19 571 -19 524 -19 c 0,6,7
524 165 m 256,34,35
 566 165 566 165 609 195.5 c 128,-1,36
 652 226 652 226 686.5 298.5 c 128,-1,37
 721 371 721 371 743 492.5 c 128,-1,38
 765 614 765 614 765 796 c 256,39,40
 765 978 765 978 743 1099.5 c 128,-1,41
 721 1221 721 1221 686.5 1293.5 c 128,-1,42
 652 1366 652 1366 609 1396.5 c 128,-1,43
 566 1427 566 1427 524 1427 c 256,44,45
 482 1427 482 1427 439 1396.5 c 128,-1,46
 396 1366 396 1366 361.5 1293.5 c 128,-1,47
 327 1221 327 1221 305 1099.5 c 128,-1,48
 283 978 283 978 283 796 c 256,49,50
 283 614 283 614 305 492.5 c 128,-1,51
 327 371 327 371 361.5 298.5 c 128,-1,52
 396 226 396 226 439 195.5 c 128,-1,53
 482 165 482 165 524 165 c 256,34,35
EndSplineSet
EndChar

StartChar: Odieresis
Encoding: 214 214 208
Width: 1049
Flags: W
LayerCount: 2
Fore
SplineSet
709 1699 m 256,0,1
 680 1699 680 1699 656 1709 c 128,-1,2
 632 1719 632 1719 615 1736 c 128,-1,3
 598 1753 598 1753 589 1775.5 c 128,-1,4
 580 1798 580 1798 580 1823 c 256,5,6
 580 1848 580 1848 589 1870.5 c 128,-1,7
 598 1893 598 1893 615 1910 c 128,-1,8
 632 1927 632 1927 656 1937 c 128,-1,9
 680 1947 680 1947 709 1947 c 256,10,11
 738 1947 738 1947 762 1937 c 128,-1,12
 786 1927 786 1927 803 1910 c 128,-1,13
 820 1893 820 1893 829 1870.5 c 128,-1,14
 838 1848 838 1848 838 1823 c 256,15,16
 838 1798 838 1798 829 1775.5 c 128,-1,17
 820 1753 820 1753 803 1736 c 128,-1,18
 786 1719 786 1719 762 1709 c 128,-1,19
 738 1699 738 1699 709 1699 c 256,0,1
333 1699 m 256,20,21
 304 1699 304 1699 280 1709 c 128,-1,22
 256 1719 256 1719 239 1736 c 128,-1,23
 222 1753 222 1753 213 1775.5 c 128,-1,24
 204 1798 204 1798 204 1823 c 256,25,26
 204 1848 204 1848 213 1870.5 c 128,-1,27
 222 1893 222 1893 239 1910 c 128,-1,28
 256 1927 256 1927 280 1937 c 128,-1,29
 304 1947 304 1947 333 1947 c 256,30,31
 362 1947 362 1947 386 1937 c 128,-1,32
 410 1927 410 1927 427 1910 c 128,-1,33
 444 1893 444 1893 453 1870.5 c 128,-1,34
 462 1848 462 1848 462 1823 c 256,35,36
 462 1798 462 1798 453 1775.5 c 128,-1,37
 444 1753 444 1753 427 1736 c 128,-1,38
 410 1719 410 1719 386 1709 c 128,-1,39
 362 1699 362 1699 333 1699 c 256,20,21
524 -19 m 0,40,41
 476 -19 476 -19 425.5 -4.5 c 128,-1,42
 375 10 375 10 327 45.5 c 128,-1,43
 279 81 279 81 236 140.5 c 128,-1,44
 193 200 193 200 160.5 290.5 c 128,-1,45
 128 381 128 381 109 506 c 128,-1,46
 90 631 90 631 90 796 c 256,47,48
 90 961 90 961 109 1086 c 128,-1,49
 128 1211 128 1211 160.5 1301.5 c 128,-1,50
 193 1392 193 1392 236 1451.5 c 128,-1,51
 279 1511 279 1511 327 1546.5 c 128,-1,52
 375 1582 375 1582 425.5 1596.5 c 128,-1,53
 476 1611 476 1611 524 1611 c 0,54,55
 571 1611 571 1611 622 1596.5 c 128,-1,56
 673 1582 673 1582 721 1546.5 c 128,-1,57
 769 1511 769 1511 812 1451.5 c 128,-1,58
 855 1392 855 1392 887.5 1301.5 c 128,-1,59
 920 1211 920 1211 939 1086 c 128,-1,60
 958 961 958 961 958 796 c 256,61,62
 958 631 958 631 939 506 c 128,-1,63
 920 381 920 381 887.5 290.5 c 128,-1,64
 855 200 855 200 812 140.5 c 128,-1,65
 769 81 769 81 721 45.5 c 128,-1,66
 673 10 673 10 622 -4.5 c 128,-1,67
 571 -19 571 -19 524 -19 c 0,40,41
524 165 m 256,68,69
 566 165 566 165 609 195.5 c 128,-1,70
 652 226 652 226 686.5 298.5 c 128,-1,71
 721 371 721 371 743 492.5 c 128,-1,72
 765 614 765 614 765 796 c 256,73,74
 765 978 765 978 743 1099.5 c 128,-1,75
 721 1221 721 1221 686.5 1293.5 c 128,-1,76
 652 1366 652 1366 609 1396.5 c 128,-1,77
 566 1427 566 1427 524 1427 c 256,78,79
 482 1427 482 1427 439 1396.5 c 128,-1,80
 396 1366 396 1366 361.5 1293.5 c 128,-1,81
 327 1221 327 1221 305 1099.5 c 128,-1,82
 283 978 283 978 283 796 c 256,83,84
 283 614 283 614 305 492.5 c 128,-1,85
 327 371 327 371 361.5 298.5 c 128,-1,86
 396 226 396 226 439 195.5 c 128,-1,87
 482 165 482 165 524 165 c 256,68,69
EndSplineSet
EndChar

StartChar: Racute
Encoding: 340 340 209
Width: 940
Flags: W
LayerCount: 2
Fore
SplineSet
164 1825 m 1,0,-1
 607 2020 l 1,1,-1
 674 1867 l 1,2,-1
 232 1671 l 1,3,-1
 164 1825 l 1,0,-1
170 1613 m 1,4,5
 341 1620 341 1620 468 1583 c 128,-1,6
 595 1546 595 1546 678 1472.5 c 128,-1,7
 761 1399 761 1399 802 1294 c 128,-1,8
 843 1189 843 1189 843 1061 c 0,9,10
 843 912 843 912 789 796 c 128,-1,11
 735 680 735 680 623 607 c 1,12,-1
 900 0 l 1,13,-1
 690 0 l 1,14,-1
 462 537 l 1,15,16
 412 523 412 523 356 516 c 1,17,-1
 356 0 l 1,18,-1
 170 0 l 1,19,-1
 170 1613 l 1,4,5
356 705 m 1,20,21
 420 711 420 711 474 735 c 128,-1,22
 528 759 528 759 567 803.5 c 128,-1,23
 606 848 606 848 628 912 c 128,-1,24
 650 976 650 976 650 1061 c 256,25,26
 650 1146 650 1146 628 1210 c 128,-1,27
 606 1274 606 1274 567 1318.5 c 128,-1,28
 528 1363 528 1363 474 1387 c 128,-1,29
 420 1411 420 1411 356 1417 c 1,30,-1
 356 705 l 1,20,21
EndSplineSet
EndChar

StartChar: Ugrave
Encoding: 217 217 210
Width: 1087
Flags: W
LayerCount: 2
Fore
SplineSet
274 1867 m 1,0,-1
 341 2020 l 1,1,-1
 784 1825 l 1,2,-1
 716 1671 l 1,3,-1
 274 1867 l 1,0,-1
168 1593 m 1,4,-1
 354 1593 l 1,5,-1
 354 466 l 2,6,7
 354 383 354 383 366.5 325.5 c 128,-1,8
 379 268 379 268 403.5 232.5 c 128,-1,9
 428 197 428 197 463 181 c 128,-1,10
 498 165 498 165 543 165 c 256,11,12
 588 165 588 165 623 181 c 128,-1,13
 658 197 658 197 682.5 232.5 c 128,-1,14
 707 268 707 268 719.5 325.5 c 128,-1,15
 732 383 732 383 732 466 c 2,16,-1
 732 1593 l 1,17,-1
 918 1593 l 1,18,-1
 918 443 l 2,19,20
 918 322 918 322 892.5 235 c 128,-1,21
 867 148 867 148 818.5 91.5 c 128,-1,22
 770 35 770 35 700.5 8 c 128,-1,23
 631 -19 631 -19 543 -19 c 256,24,25
 455 -19 455 -19 385.5 8 c 128,-1,26
 316 35 316 35 267.5 91.5 c 128,-1,27
 219 148 219 148 193.5 235 c 128,-1,28
 168 322 168 322 168 443 c 2,29,-1
 168 1593 l 1,4,-1
EndSplineSet
EndChar

StartChar: Uacute
Encoding: 218 218 211
Width: 1087
Flags: W
LayerCount: 2
Fore
SplineSet
289 1825 m 1,0,-1
 732 2020 l 1,1,-1
 799 1867 l 1,2,-1
 357 1671 l 1,3,-1
 289 1825 l 1,0,-1
168 1593 m 1,4,-1
 354 1593 l 1,5,-1
 354 466 l 2,6,7
 354 383 354 383 366.5 325.5 c 128,-1,8
 379 268 379 268 403.5 232.5 c 128,-1,9
 428 197 428 197 463 181 c 128,-1,10
 498 165 498 165 543 165 c 256,11,12
 588 165 588 165 623 181 c 128,-1,13
 658 197 658 197 682.5 232.5 c 128,-1,14
 707 268 707 268 719.5 325.5 c 128,-1,15
 732 383 732 383 732 466 c 2,16,-1
 732 1593 l 1,17,-1
 918 1593 l 1,18,-1
 918 443 l 2,19,20
 918 322 918 322 892.5 235 c 128,-1,21
 867 148 867 148 818.5 91.5 c 128,-1,22
 770 35 770 35 700.5 8 c 128,-1,23
 631 -19 631 -19 543 -19 c 256,24,25
 455 -19 455 -19 385.5 8 c 128,-1,26
 316 35 316 35 267.5 91.5 c 128,-1,27
 219 148 219 148 193.5 235 c 128,-1,28
 168 322 168 322 168 443 c 2,29,-1
 168 1593 l 1,4,-1
EndSplineSet
EndChar

StartChar: Ucircumflex
Encoding: 219 219 212
Width: 1087
Flags: W
LayerCount: 2
Fore
SplineSet
230 1813 m 1,0,-1
 546 1976 l 1,1,-1
 862 1813 l 1,2,-1
 786 1675 l 1,3,-1
 546 1796 l 1,4,-1
 306 1675 l 1,5,-1
 230 1813 l 1,0,-1
168 1593 m 1,6,-1
 354 1593 l 1,7,-1
 354 466 l 2,8,9
 354 383 354 383 366.5 325.5 c 128,-1,10
 379 268 379 268 403.5 232.5 c 128,-1,11
 428 197 428 197 463 181 c 128,-1,12
 498 165 498 165 543 165 c 256,13,14
 588 165 588 165 623 181 c 128,-1,15
 658 197 658 197 682.5 232.5 c 128,-1,16
 707 268 707 268 719.5 325.5 c 128,-1,17
 732 383 732 383 732 466 c 2,18,-1
 732 1593 l 1,19,-1
 918 1593 l 1,20,-1
 918 443 l 2,21,22
 918 322 918 322 892.5 235 c 128,-1,23
 867 148 867 148 818.5 91.5 c 128,-1,24
 770 35 770 35 700.5 8 c 128,-1,25
 631 -19 631 -19 543 -19 c 256,26,27
 455 -19 455 -19 385.5 8 c 128,-1,28
 316 35 316 35 267.5 91.5 c 128,-1,29
 219 148 219 148 193.5 235 c 128,-1,30
 168 322 168 322 168 443 c 2,31,-1
 168 1593 l 1,6,-1
EndSplineSet
EndChar

StartChar: Udieresis
Encoding: 220 220 213
Width: 1087
Flags: W
LayerCount: 2
Fore
SplineSet
733 1699 m 256,0,1
 704 1699 704 1699 680 1709 c 128,-1,2
 656 1719 656 1719 639 1736 c 128,-1,3
 622 1753 622 1753 613 1775.5 c 128,-1,4
 604 1798 604 1798 604 1823 c 256,5,6
 604 1848 604 1848 613 1870.5 c 128,-1,7
 622 1893 622 1893 639 1910 c 128,-1,8
 656 1927 656 1927 680 1937 c 128,-1,9
 704 1947 704 1947 733 1947 c 256,10,11
 762 1947 762 1947 786 1937 c 128,-1,12
 810 1927 810 1927 827 1910 c 128,-1,13
 844 1893 844 1893 853 1870.5 c 128,-1,14
 862 1848 862 1848 862 1823 c 256,15,16
 862 1798 862 1798 853 1775.5 c 128,-1,17
 844 1753 844 1753 827 1736 c 128,-1,18
 810 1719 810 1719 786 1709 c 128,-1,19
 762 1699 762 1699 733 1699 c 256,0,1
357 1699 m 256,20,21
 328 1699 328 1699 304 1709 c 128,-1,22
 280 1719 280 1719 263 1736 c 128,-1,23
 246 1753 246 1753 237 1775.5 c 128,-1,24
 228 1798 228 1798 228 1823 c 256,25,26
 228 1848 228 1848 237 1870.5 c 128,-1,27
 246 1893 246 1893 263 1910 c 128,-1,28
 280 1927 280 1927 304 1937 c 128,-1,29
 328 1947 328 1947 357 1947 c 256,30,31
 386 1947 386 1947 410 1937 c 128,-1,32
 434 1927 434 1927 451 1910 c 128,-1,33
 468 1893 468 1893 477 1870.5 c 128,-1,34
 486 1848 486 1848 486 1823 c 256,35,36
 486 1798 486 1798 477 1775.5 c 128,-1,37
 468 1753 468 1753 451 1736 c 128,-1,38
 434 1719 434 1719 410 1709 c 128,-1,39
 386 1699 386 1699 357 1699 c 256,20,21
168 1593 m 1,40,-1
 354 1593 l 1,41,-1
 354 466 l 2,42,43
 354 383 354 383 366.5 325.5 c 128,-1,44
 379 268 379 268 403.5 232.5 c 128,-1,45
 428 197 428 197 463 181 c 128,-1,46
 498 165 498 165 543 165 c 256,47,48
 588 165 588 165 623 181 c 128,-1,49
 658 197 658 197 682.5 232.5 c 128,-1,50
 707 268 707 268 719.5 325.5 c 128,-1,51
 732 383 732 383 732 466 c 2,52,-1
 732 1593 l 1,53,-1
 918 1593 l 1,54,-1
 918 443 l 2,55,56
 918 322 918 322 892.5 235 c 128,-1,57
 867 148 867 148 818.5 91.5 c 128,-1,58
 770 35 770 35 700.5 8 c 128,-1,59
 631 -19 631 -19 543 -19 c 256,60,61
 455 -19 455 -19 385.5 8 c 128,-1,62
 316 35 316 35 267.5 91.5 c 128,-1,63
 219 148 219 148 193.5 235 c 128,-1,64
 168 322 168 322 168 443 c 2,65,-1
 168 1593 l 1,40,-1
EndSplineSet
EndChar

